<?xml version="1.0" encoding="utf-8"?>
<!-- Generator: Adobe Illustrator 27.1.1, SVG Export Plug-In . SVG Version: 6.00 Build 0)  -->
<svg version="1.1" id="Layer_1" xmlns="http://www.w3.org/2000/svg" xmlns:xlink="http://www.w3.org/1999/xlink" x="0px" y="0px"
	 viewBox="0 0 579.1 554.7" style="enable-background:new 0 0 579.1 554.7;" xml:space="preserve">
<style type="text/css">
	.st0{fill:#FFFFFF;}
</style>
<g id="XMLID_46_">
	<g id="XMLID_65_">
		<path id="XMLID_66_" class="st0" d="M314.4,554.7C168.6,554.7,49.7,435.9,49.7,290S168,25.8,314.4,25.8s264.7,118.8,264.7,264.7
			S460.3,554.7,314.4,554.7z M314.4,41.1C176.7,41.1,65,152.8,65,290s111.7,249.4,249.4,249.4S563.8,427.7,563.8,290
			C563.8,152.3,451.6,41.1,314.4,41.1z"/>
	</g>
	<g id="XMLID_47_">
		<path id="XMLID_58_" class="st0" d="M478.6,284.9h-10.7c-1.5-39.3-17.3-76-44.9-103.5c-27.5-28-64.3-43.9-103.5-45.4v-10.7
			c0-3.1-2.6-5.1-5.1-5.1c-2.6,0-5.1,2.6-5.1,5.1V136c-39.8,1.5-76.5,17.3-104,45.4c-28.1,28-43.9,64.3-44.9,103.5h-10.7
			c-3.1,0-5.1,2.5-5.1,5.1c0,2.6,2.6,5.1,5.1,5.1h10.7c1.5,39.3,17.3,76,44.9,103.5c28.1,28,64.3,43.9,103.5,44.9v10.7
			c0,3.1,2.5,5.1,5.1,5.1c2.5,0,5.1-2.5,5.1-5.1V444c39.3-1.5,76-17.3,103.5-44.9c28-28.1,43.9-64.3,44.9-103.5h10.7
			c3.1,0,5.1-2.6,5.1-5.1C483.2,288,481.7,284.9,478.6,284.9L478.6,284.9z M212.9,188.5c26-26,59.7-40.8,95.9-41.8v10.7
			C240,160,184.4,215.6,181.3,284.9h-10.7C172.1,248.7,186.9,214.5,212.9,188.5L212.9,188.5z M212.9,391.5
			c-26-26-40.8-59.7-41.8-96.4h10.7c1,30.6,12.8,59.7,33.2,82.6c1,1,2.6,2,4.1,2c1,0,2.6-0.5,3.6-1.5c2-2,2.6-5.1,0.5-7.7
			c-18.4-20.9-29.1-47.4-30.6-75.5H219c3.1,0,5.1-2.6,5.1-5.1c0-2.5-2.6-5.1-5.1-5.1h-27c2.6-63.2,53.6-114.2,116.8-116.8v26.5
			c0,3.1,2.5,5.1,5.1,5.1c2.6,0,5.1-2.5,5.1-5.1v-26.5c21.9,1,42.8,7.6,60.7,19.4c2.5,1.5,5.6,1,7.1-1.5c1.5-2.5,1-5.6-1.5-7.1
			c-19.9-12.8-42.8-19.9-66.8-20.9v-10.7c36.2,1.5,70.4,16.3,96.4,41.8c26,26,40.8,59.7,41.8,95.9H447c-1-24-8.2-46.9-20.9-66.8
			c-1.5-2.5-5.1-3.1-7.1-1.5c-2.5,1.5-3.1,5.1-1.5,7.1c11.7,18.4,18.4,39.3,19.4,60.7h-26.5c-3.1,0-5.1,2.6-5.1,5.1
			c0,2.5,2.5,5.1,5.1,5.1h26.5c-3.1,64.3-54.1,114.7-117.3,117.8v-26.5c0-3.1-2.6-5.1-5.1-5.1c-2.6,0-5.1,2.5-5.1,5.1v26.5
			c-26-1-50.5-10.2-70.9-26.5c-2-2-5.6-1.5-7.6,1c-2,2-1.5,5.6,1,7.6c21.9,17.9,49.5,28.1,77.5,29.1v10.7
			C272.6,432.3,238.4,417.5,212.9,391.5L212.9,391.5z M415.4,391.5c-26,26-59.7,40.8-96.4,41.8v-10.7
			c68.9-2.6,124.4-58.1,127.5-127.5h10.7C456.2,331.8,441.4,366,415.4,391.5L415.4,391.5z"/>
		<path id="XMLID_55_" class="st0" d="M395.5,199.2c3.6,3.1,7.1,6.6,10.2,10.2c1,1,2.5,2,4.1,2c1,0,2.5-0.5,3.6-1.5
			c2-2,2.5-5.1,0.5-7.6c-3.6-4.1-7.1-7.6-11.2-11.2c-2-2-5.6-1.5-7.7,0.5C393.5,193.6,393.5,197.2,395.5,199.2L395.5,199.2z"/>
		<path id="XMLID_48_" class="st0" d="M250.2,295.6h16.3c2.5,21.9,19.9,39.8,42.3,42.3v16.3c0,3.1,2.5,5.1,5.1,5.1
			c2.6,0,5.1-2.5,5.1-5.1V338c21.9-2.5,39.8-19.9,42.3-42.3h16.3c3.1,0,5.1-2.6,5.1-5.1c0-2.6-2.5-5.1-5.1-5.1h-16.3
			c-2.5-21.9-19.9-39.8-42.3-42.3v-16.3c0-3.1-2.5-5.1-5.1-5.1c-2.5,0-5.1,2.5-5.1,5.1v16.3c-21.9,2.5-39.8,19.9-42.3,42.3h-16.3
			c-3.1,0-5.1,2.5-5.1,5.1C245.1,293.1,247.6,295.6,250.2,295.6L250.2,295.6z M277.2,295.6h31.6v31.6
			C292.5,324.7,279.7,312,277.2,295.6L277.2,295.6z M319.5,327.3v-31.6h31.6C348.6,312,335.8,324.7,319.5,327.3L319.5,327.3z
			 M351.1,284.9h-31.6v-31.6C335.8,255.9,348.6,268.6,351.1,284.9L351.1,284.9z M308.8,253.3v31.6h-31.6
			C279.7,268.6,292.5,255.9,308.8,253.3L308.8,253.3z"/>
	</g>
</g>
<path class="st0" d="M82.9,0C37.1,0,0,37.1,0,82.9s37.1,82.9,82.9,82.9c45.8,0,82.9-37.1,82.9-82.9S128.7,0,82.9,0z M93.1,134.4
	H80.3V49.2H80l-16.9,9.1l-2.5-10l21.3-11.4h11.2V134.4z"/>
</svg>
