<?xml version="1.0" encoding="utf-8"?>
<!-- Generator: Adobe Illustrator 27.1.1, SVG Export Plug-In . SVG Version: 6.00 Build 0)  -->
<svg version="1.1" id="Layer_1" xmlns="http://www.w3.org/2000/svg" xmlns:xlink="http://www.w3.org/1999/xlink" x="0px" y="0px"
	 viewBox="0 0 579.1 554.7" style="enable-background:new 0 0 579.1 554.7;" xml:space="preserve">
<style type="text/css">
	.st0{fill:#FFFFFF;}
</style>
<g>
	<path class="st0" d="M314.4,554.7C168.6,554.7,49.7,435.9,49.7,290S168.6,25.3,314.4,25.3S579.1,144.2,579.1,290
		S460.3,554.7,314.4,554.7z M314.4,40.6C177.2,40.6,65,152.3,65,290s111.7,249.4,249.4,249.4S563.8,427.7,563.8,290
		S451.6,40.6,314.4,40.6z"/>
	<path class="st0" d="M377.1,168.6l-103,103c-1,1-1.5,2-1.5,3.1l-8.7,34.2c-0.5,2,0,4.6,1.5,6.1c1,1,3.1,2,4.6,2c0.5,0,1,0,1.5,0
		l34.2-8.7c1-0.5,2-1,3.1-1.5l103-103l0,0l0,0l20.9-20.9c2.5-2.5,2.5-6.6,0-9.2l-25.5-25.5c-1-1-3.1-2-4.6-2c-1.5,0-3.6,0.5-4.6,2
		L377.1,168.6L377.1,168.6L377.1,168.6L377.1,168.6z M300.6,295.6l-21.9,5.6l5.6-21.4l97.4-97.4l15.8,15.8L300.6,295.6z M402.6,162
		l15.8,15.8l-11.7,11.7l-15.8-15.8L402.6,162z"/>
	<path class="st0" d="M427.6,216.6c-3.6,0-6.6,3.1-6.6,6.6v208.6H217V183.4h120.4c3.6,0,6.6-3.1,6.6-6.6s-3.1-6.6-6.6-6.6H210.9
		c-3.6,0-6.6,3.1-6.6,6.6v261.1c0,3.6,3.1,6.6,6.6,6.6h216.8c3.6,0,6.6-3.1,6.6-6.6V223.2C434.3,219.6,431.2,216.6,427.6,216.6
		L427.6,216.6z"/>
</g>
<path class="st0" d="M82.9,0C37.1,0,0,37.1,0,82.9s37.1,82.9,82.9,82.9c45.8,0,82.9-37.1,82.9-82.9S128.7,0,82.9,0z M115.1,131.3
	H52.9v-8.1l10.3-10c24.9-23.7,36.1-36.3,36.3-51c0-9.9-4.8-19-19.3-19c-8.8,0-16.2,4.5-20.7,8.2l-4.2-9.3c6.8-5.7,16.3-9.9,27.6-9.9
	c21,0,29.8,14.4,29.8,28.3c0,18-13,32.5-33.6,52.3l-7.8,7.2v0.3h43.8V131.3z"/>
</svg>
