<?xml version="1.0" encoding="utf-8"?>
<!-- Generator: Adobe Illustrator 27.1.1, SVG Export Plug-In . SVG Version: 6.00 Build 0)  -->
<svg version="1.1" id="Layer_1" xmlns="http://www.w3.org/2000/svg" xmlns:xlink="http://www.w3.org/1999/xlink" x="0px" y="0px"
	 viewBox="0 0 579.1 554.7" style="enable-background:new 0 0 579.1 554.7;" xml:space="preserve">
<style type="text/css">
	.st0{fill:#FFFFFF;}
</style>
<g>
	<g>
		<path class="st0" d="M313.8,554.7C167.9,554.7,49.1,435.9,49.1,290c0-145.9,118.8-264.2,264.7-264.2s264.7,118.8,264.7,264.7
			C578.5,436.4,459.7,554.7,313.8,554.7z M313.8,41.1C176.6,41.1,64.9,152.8,64.9,290c0,137.2,111.7,249.4,249.4,249.4
			c137.2,0,249.4-111.7,249.4-249.4C563.7,152.3,451.5,41.1,313.8,41.1z"/>
	</g>
	<g>
		<path class="st0" d="M336.2,433.8"/>
	</g>
	<g>
		<path class="st0" d="M307.2,146.2c-82.6,0-149.4,66.8-149.4,149.4c0,82.1,66.8,149.4,149.4,149.4c38.8,0,75.5-14.8,103.5-41.8
			c2.5-2.6,2.5-6.1,0-8.7c-2.6-2.6-6.1-2.6-8.7,0c-25.5,24.5-59.7,38.2-94.9,38.2c-75.5,0-137.2-61.7-137.2-137.2
			s61.7-137.2,137.2-137.2c75.5,0,137.2,61.7,137.2,137.2c0,16.8-3.1,33.7-9.2,49.5c-1,3.1,0.5,6.6,3.6,7.6s6.6-0.5,7.6-3.6
			c6.6-17.3,10.2-35.2,10.2-54.1C456.6,213,389.3,146.2,307.2,146.2L307.2,146.2z"/>
	</g>
	<g>
		<g>
			<path class="st0" d="M317.4,217.6c13.8,0,25.5,4.6,34.7,14.3c9.7,9.7,14.3,20.9,14.3,34.7s-4.6,25-14.3,34.7
				c-9.7,10.2-21.4,14.8-34.7,14.8h-25.5v49c0,1.5-0.5,3.1-1.5,4.1s-2.5,1.5-4.1,1.5s-3.1-0.5-4.1-1.5c-1-1-1.5-2.6-1.5-4.1V223.7
				c0-1.5,0.5-3.1,1.5-4.1s2.5-1.5,4.1-1.5h31.1L317.4,217.6L317.4,217.6z M291.9,229.8v75h25.5c10.2,0,18.9-3.6,26.5-10.7
				c7.1-7.1,11.2-16.3,11.2-26.5s-3.6-18.9-11.2-26.5c-7.1-7.1-16.3-11.2-26.5-11.2L291.9,229.8L291.9,229.8z"/>
			<path class="st0" d="M285.8,372.6c-2,0-3.6-0.5-5.1-2c-1.5-1.5-2-3.1-2-5.1V223.7c0-2,0.5-3.6,2-5.1s3.1-2,5.1-2h31.6
				c13.8,0,26,5.1,35.7,14.8c9.7,9.7,14.8,21.4,14.8,35.7c0,13.8-5.1,26-14.8,35.7c-9.7,9.7-21.9,14.8-35.7,14.8h-24.5v47.9
				c0,2-0.5,3.6-2,5.1C289.3,371.6,287.8,372.6,285.8,372.6z M285.8,219.1c-1.5,0-2.5,0.5-3.1,1.5c-1,1-1.5,2-1.5,3.6v141.3
				c0,1.5,0.5,2.5,1.5,3.6c1.5,2,4.6,2,6.6,0c1-1,1.5-2,1.5-3.6V315h26.5c13.3,0,24.5-4.6,33.7-13.8c9.2-9.2,14.3-20.9,14.3-33.7
				c0-13.3-4.6-24.5-14.3-33.7c-9.2-9.2-20.4-14.3-33.7-14.3h-31.6V219.1z M317.4,305.8h-27v-77.5h27c10.7,0,19.9,4.1,27,11.2
				c7.6,7.6,11.2,16.8,11.2,27c0,10.7-4.1,19.9-11.2,27.5C336.8,301.8,327.6,305.8,317.4,305.8z M292.9,303.3h24.5
				c9.7,0,18.4-3.6,25.5-10.7c7.1-7.1,10.7-15.8,10.7-25.5s-3.6-18.4-10.7-25.5c-7.1-7.1-15.8-10.7-25.5-10.7h-24.5V303.3z"/>
		</g>
	</g>
	<path class="st0" d="M335.2,347.7h-79.1c-3.6,0-6.6-3.1-6.6-6.6c0-3.6,3.1-6.6,6.6-6.6h79.1c3.6,0,6.6,3.1,6.6,6.6
		C341.9,345.1,338.8,347.7,335.2,347.7z"/>
</g>
<path class="st0" d="M82.9,0C37.1,0,0,37.1,0,82.9s37.1,82.9,82.9,82.9c45.8,0,82.9-37.1,82.9-82.9S128.7,0,82.9,0z M77.8,132.9
	c-10.9,0-20.5-3.4-25.3-6.6l3.6-10.2c3.8,2.4,12.4,6.1,21.6,6.1c16.9,0,22.2-10.8,22-18.9c-0.1-13.6-12.4-19.5-25.2-19.5h-7.4V74
	h7.4c9.6,0,21.7-4.9,21.7-16.5c0-7.8-5-14.7-17.1-14.7c-7.8,0-15.3,3.5-19.5,6.4l-3.4-9.6c5.1-3.7,15-7.5,25.5-7.5
	c19.2,0,27.9,11.4,27.9,23.2c0,10-6,18.6-18,22.9v0.3c12,2.4,21.8,11.4,21.8,25C113.3,119.3,101.2,132.9,77.8,132.9z"/>
</svg>
