<?xml version="1.0" encoding="utf-8"?>
<!-- Generator: Adobe Illustrator 27.1.1, SVG Export Plug-In . SVG Version: 6.00 Build 0)  -->
<svg version="1.1" id="Layer_1" xmlns="http://www.w3.org/2000/svg" xmlns:xlink="http://www.w3.org/1999/xlink" x="0px" y="0px"
	 viewBox="0 0 579.1 554.7" style="enable-background:new 0 0 579.1 554.7;" xml:space="preserve">
<style type="text/css">
	.st0{fill:#FFFFFF;}
</style>
<g>
	<g>
		<path class="st0" d="M314.4,554.7C168.6,554.7,49.7,435.9,49.7,290S168.6,25.3,314.4,25.3S579.1,144.2,579.1,290
			S460.3,554.7,314.4,554.7z M314.4,40.6C177.2,40.6,65,152.3,65,290c0,137.2,111.7,249.4,249.4,249.4S563.8,427.7,563.8,290
			C563.3,152.3,451.6,40.6,314.4,40.6z"/>
	</g>
	<path class="st0" d="M354.7,221.7v-19.4c0-36.7-30.1-66.8-66.8-66.8h-1c-36.7,0-66.8,30.1-66.8,66.8v60.2c0,25-20.4,45.4-44.9,45.4
		l0,0c-3.6,0.5-6.1,3.6-6.1,6.6c0,3.6,2.6,6.1,6.1,6.6l0,0c0.5,0,0.5,0,1,0l0,0h0.5c32.1-1,57.6-27,57.6-59.2v-59.7
		c0-29.1,24-53,53-53h1c29.1,0,53,24,53,53v19.4c-41.3,3.6-73.4,37.7-73.4,80.1v65.8c0,44.4,36.2,80.1,80.1,80.1h1.5
		c28.6,0,55.6-15.3,69.9-40.3c2-3.6,0.5-7.6-2.5-9.7c-3.6-2-7.6-0.5-9.7,2.6c-11.7,20.4-33.7,33.7-57.6,33.7h-1.5
		c-36.7,0-66.3-29.6-66.3-66.3v-65.8c0-34.2,26-62.7,59.7-66.3v72.4h-38.2c-4.1,0-7.1,3.1-7.1,7.1s3.1,7.1,7.1,7.1h112.7v27.5
		c0,4.1,3.1,7.1,7.1,7.1s7.1-3.1,7.1-7.1v-47.9C429.2,259.4,396.5,224.7,354.7,221.7z M415.4,308.4h-60.7V236
		c33.7,3.1,60.7,31.6,60.7,66.3L415.4,308.4L415.4,308.4z"/>
</g>
<g>
	<path class="st0" d="M82.9,0C37.1,0,0,37.1,0,82.9s37.1,82.9,82.9,82.9c45.8,0,82.9-37.1,82.9-82.9S128.7,0,82.9,0z M119.8,104.7
		h-13.6v26.5H93.7v-26.5H48.4V96l43.5-62.2h14.2v60.6h13.6V104.7z"/>
	<path class="st0" d="M85.6,61L61.7,94.1v0.3h31.9V61.9c0-5.1,0.1-10.2,0.5-15.3h-0.5C90.7,52.3,88.3,56.5,85.6,61z"/>
</g>
</svg>
