<?xml version="1.0" encoding="utf-8"?>
<!-- Generator: Adobe Illustrator 27.1.1, SVG Export Plug-In . SVG Version: 6.00 Build 0)  -->
<svg version="1.1" id="Layer_1" xmlns="http://www.w3.org/2000/svg" xmlns:xlink="http://www.w3.org/1999/xlink" x="0px" y="0px"
	 viewBox="0 0 579.1 554.7" style="enable-background:new 0 0 579.1 554.7;" xml:space="preserve">
<style type="text/css">
	.st0{fill:#FFFFFF;}
</style>
<g>
	<g>
		<path class="st0" d="M313.1,554.7c-145.9,0-264.7-118.3-264.7-264.2c0-145.9,118.8-264.7,264.7-264.7s264.7,118.8,264.7,264.7
			C577.8,436.4,458.9,554.7,313.1,554.7z M313.1,41.1c-137.2,0-249.4,111.7-249.4,249.4s111.7,249.4,249.4,249.4
			c137.2,0,249.4-111.7,249.4-249.4C562.5,152.8,450.3,41.1,313.1,41.1z"/>
	</g>
	<path class="st0" d="M440.6,387.4l-116.8-88.7V151.8c0-3.6-3.1-6.6-6.6-6.6c-47.9,0-90.3,21.4-119.3,55.6c0,1,0,1.5-0.5,2.5
		c0,0,0,0,0,0.5c2,0.5,4.1,1,6.1,1.5c1.5,1,3.1,2,4.6,3.6c25-29.6,61.7-48.5,102.5-50.5v142.8c0,2,1,4.1,2.5,5.1L426.8,393
		c-27.5,32.6-66.8,51-109.6,51c-79.1,0-143.3-64.3-143.3-143.3c0-17.3,3.1-33.7,8.7-49c-3.6-1-6.6-3.1-9.2-6.1c-1,0.5-2,1-3.1,1
		c-6.1,16.8-9.7,35.2-9.7,54.1c0,86.2,70.4,156.6,156.6,156.6c49,0,94.4-22.4,124.4-61.7c1-1.5,1.5-3.1,1.5-5.1
		C443.1,390,442.1,388.5,440.6,387.4z"/>
	<path class="st0" d="M344.7,294.1c-1.5,0-3.1-0.5-4.6-1.5c-1.5-1-2-3.1-2-5.1V154.4c0-2,1-4.1,2.5-5.1c1.5-1,3.6-1.5,5.6-1.5
		c62.2,11.7,110.7,59.2,123.9,120.9c0.5,2,0,3.6-1,5.1c-1,1.5-2.6,2.5-4.6,2.5l-118.8,17.3C345.7,294.1,345.2,294.1,344.7,294.1z
		 M351.3,162.5v117.3l104-15.3C442.1,214,402.3,175.3,351.3,162.5z"/>
	<path class="st0" d="M452.3,376.2c-1.5,0-2.6-0.5-3.6-1L364.1,316c-2-1.5-3.1-4.6-2.5-7.1s3.1-4.6,5.6-5.1l100-12.8
		c2,0,3.6,0.5,5.1,1.5c1.5,1,2,3.1,2.5,5.1c0.5,26-5.1,51.5-16.8,75c-1,1.5-2.5,3.1-4.1,3.6C453.3,375.7,452.8,376.2,452.3,376.2z
		 M386,315l63.8,44.4c7.7-16.8,11.7-35.7,12.2-54.1L386,315z"/>
	<circle class="st0" cx="203.4" cy="204.3" r="6.6"/>
	<circle class="st0" cx="176.9" cy="250.8" r="6.6"/>
</g>
<path class="st0" d="M82.9,0C37.1,0,0,37.1,0,82.9s37.1,82.9,82.9,82.9c45.8,0,82.9-37.1,82.9-82.9S128.7,0,82.9,0z M76.7,132.9
	c-10.6,0-19.6-3-24.3-6l3.3-10c4,2.4,12,5.4,20.8,5.4c12.4,0,23.1-8.1,23.1-21.1c-0.1-12.6-8.5-21.6-28-21.6
	c-5.5,0-9.9,0.6-13.5,1.1l6.3-46.8h46.6v11.1H73.9l-3.7,25c2.2-0.3,4.4-0.6,7.9-0.6c7.5,0,15,1.6,21,5.2c7.6,4.4,13.9,12.7,13.9,25
	C113,118.7,97.9,132.9,76.7,132.9z"/>
</svg>
