<?xml version="1.0" encoding="utf-8"?>
<!-- Generator: Adobe Illustrator 27.1.1, SVG Export Plug-In . SVG Version: 6.00 Build 0)  -->
<svg version="1.1" id="Layer_1" xmlns="http://www.w3.org/2000/svg" xmlns:xlink="http://www.w3.org/1999/xlink" x="0px" y="0px"
	 viewBox="0 0 579.1 554.7" style="enable-background:new 0 0 579.1 554.7;" xml:space="preserve">
<style type="text/css">
	.st0{fill:#FFFFFF;}
</style>
<g>
	<g>
		<path class="st0" d="M315.8,554.7C170,554.7,51.2,435.9,51.2,290C51.2,144.2,170,25.8,315.8,25.8s264.7,118.8,264.7,264.7
			S461.7,554.7,315.8,554.7z M315.8,41.1c-137.2,0-249.4,111.7-249.4,249.4c0,137.7,111.7,249.4,249.4,249.4
			s249.4-111.7,249.4-249.4C565.2,152.8,453.5,41.1,315.8,41.1z"/>
	</g>
	<g>
		<path class="st0" d="M254.1,387.9V204.9H298v24.5c0,2.5,1.5,4.6,3.6,5.6s4.6,1,6.6,0l47.4-30.6c2-1,3.1-3.6,3.1-5.6
			s-1-4.6-3.1-5.6l-47.4-30.6c-2-1.5-4.6-1.5-6.6,0c-2,1-3.6,3.6-3.6,5.6v24h-50.5c-3.6,0-6.6,3.1-6.6,6.6v189.7
			c0,3.6,3.1,6.6,6.6,6.6C251.1,394.6,254.1,391.5,254.1,387.9L254.1,387.9z M339.8,198.2l-28.6,18.4v-37.2L339.8,198.2z"/>
		<path class="st0" d="M338.3,433.8c2-1,3.6-3.6,3.6-5.6v-24h50.5c3.6,0,6.6-3.1,6.6-6.6V207.9c0-3.6-3.1-6.6-6.6-6.6
			c-3.6,0-6.6,3.1-6.6,6.6V391h-50.5c-3.6,0-6.6,3.1-6.6,6.6V416L300,397.6l38.8-25c3.1-2,4.1-6.1,2-9.2s-6.1-4.1-9.2-2L284.2,392
			c-2,1-3.1,3.6-3.1,5.6s1,4.6,3.1,5.6l47.4,30.6C333.7,434.9,336.2,435.4,338.3,433.8L338.3,433.8z"/>
	</g>
</g>
<g>
	<path class="st0" d="M84.7,77c-7.9,0-15.3,4.9-18.9,12c-0.9,1.5-1.5,3.4-1.5,5.8c0.3,16,7.6,27.9,21.4,27.9c11.4,0,19-9.4,19-23.4
		S96.8,77,84.7,77z"/>
	<path class="st0" d="M82.9,0C37.1,0,0,37.1,0,82.9s37.1,82.9,82.9,82.9c45.8,0,82.9-37.1,82.9-82.9S128.7,0,82.9,0z M85.7,132.9
		c-20.8,0-34.5-16.2-34.5-41.5c0-19.2,6.9-34.3,16.5-43.9c8.1-7.9,18.9-12.9,31.2-14.4c3.9-0.6,7.2-0.8,9.6-0.8v10.8
		c-2.7-0.1-6.1,0-9.9,0.6C77.9,47.2,67,62.3,64.7,78.3h0.5c4.6-6.1,12.7-11.2,23.5-11.2c17.2,0,29.4,12.4,29.4,31.5
		C118.1,116.4,106,132.9,85.7,132.9z"/>
</g>
</svg>
