<?xml version="1.0" encoding="UTF-8"?> <!-- Generator: Adobe Illustrator 16.0.0, SVG Export Plug-In . SVG Version: 6.00 Build 0) --> <svg xmlns="http://www.w3.org/2000/svg" xmlns:xlink="http://www.w3.org/1999/xlink" id="Layer_1" x="0px" y="0px" width="529.379px" height="529.38px" viewBox="34.68 137.94 529.379 529.38" xml:space="preserve"> <g> <path fill="#FFFFFF" d="M299.37,667.32c-145.86,0-264.69-118.83-264.69-264.69c0-145.86,118.83-264.69,264.69-264.69 S564.06,256.77,564.06,402.63C564.06,548.49,445.23,667.32,299.37,667.32z M299.37,153.24c-137.19,0-249.39,111.69-249.39,249.39 c0,137.7,111.69,249.391,249.39,249.391S548.76,540.33,548.76,402.63C548.76,264.93,436.56,153.24,299.37,153.24z"></path> <path fill="#FFFFFF" d="M362.1,281.25L259.08,384.27c-1.02,1.02-1.53,2.04-1.53,3.06l-8.67,34.17c-0.51,2.04,0,4.59,1.53,6.12 c1.02,1.02,3.06,2.04,4.59,2.04c0.51,0,1.02,0,1.53,0l34.17-8.67c1.02-0.51,2.04-1.02,3.06-1.53L396.78,316.44l0,0l0,0l20.91-20.91 c2.55-2.55,2.55-6.63,0-9.18l-25.5-25.5c-1.021-1.02-3.061-2.04-4.591-2.04c-1.529,0-3.569,0.51-4.59,2.04L362.1,281.25 L362.1,281.25L362.1,281.25L362.1,281.25z M285.6,408.24l-21.93,5.609l5.61-21.419l97.411-97.41l15.81,15.81L285.6,408.24z M387.6,274.62l15.811,15.81l-11.73,11.73l-15.81-15.81L387.6,274.62z"></path> <path fill="#FFFFFF" d="M412.59,329.19c-3.57,0-6.63,3.06-6.63,6.63v208.59h-204V296.04h120.36c3.569,0,6.63-3.06,6.63-6.63 c0-3.57-3.061-6.63-6.63-6.63H195.84c-3.57,0-6.63,3.06-6.63,6.63v261.12c0,3.569,3.06,6.63,6.63,6.63h216.75 c3.57,0,6.63-3.061,6.63-6.63V335.82C419.22,332.25,416.16,329.19,412.59,329.19L412.59,329.19z"></path> </g> </svg> 