<?xml version="1.0" encoding="UTF-8"?> <!-- Generator: Adobe Illustrator 16.0.0, SVG Export Plug-In . SVG Version: 6.00 Build 0) --> <svg xmlns="http://www.w3.org/2000/svg" xmlns:xlink="http://www.w3.org/1999/xlink" id="Layer_1" x="0px" y="0px" width="529.38px" height="528.87px" viewBox="31.11 138.45 529.38 528.87" xml:space="preserve"> <g id="XMLID_46_"> <g id="XMLID_65_"> <path id="XMLID_66_" fill="#FFFFFF" d="M295.8,667.32c-145.86,0-264.69-118.83-264.69-264.69 c0-145.86,118.32-264.18,264.69-264.18c146.37,0,264.69,118.83,264.69,264.69C560.49,549,441.66,667.32,295.8,667.32z M295.8,153.75c-137.7,0-249.39,111.69-249.39,248.88c0,137.19,111.69,249.391,249.39,249.391 c137.7,0,249.391-111.69,249.391-249.391C545.19,264.93,432.99,153.75,295.8,153.75z"></path> </g> <g id="XMLID_47_"> <path id="XMLID_58_" fill="#FFFFFF" d="M460.02,397.53h-10.71c-1.529-39.27-17.34-75.99-44.88-103.53 c-27.54-28.05-64.26-43.86-103.529-45.39V237.9c0-3.06-2.551-5.1-5.101-5.1s-5.1,2.55-5.1,5.1v10.71 c-39.78,1.53-76.5,17.34-104.04,45.39c-28.05,28.05-43.86,64.26-44.88,103.53h-10.71c-3.06,0-5.1,2.55-5.1,5.1 s2.55,5.101,5.1,5.101h10.71c1.53,39.27,17.34,75.989,44.88,103.529c28.05,28.05,64.26,43.86,103.53,44.88v10.71 c0,3.061,2.55,5.101,5.1,5.101s5.1-2.55,5.1-5.101V556.65c39.271-1.53,75.99-17.341,103.53-44.88 c28.05-28.051,43.86-64.261,44.88-103.53h10.71c3.061,0,5.101-2.551,5.101-5.1C464.61,400.59,463.08,397.53,460.02,397.53 L460.02,397.53z M194.31,301.14c26.01-26.01,59.67-40.8,95.88-41.82v10.71c-68.85,2.55-124.44,58.14-127.5,127.5h-10.71 C153.51,361.32,168.3,327.15,194.31,301.14L194.31,301.14z M194.31,504.12c-26.01-26.01-40.8-59.67-41.82-96.39h10.71 c1.02,30.6,12.75,59.67,33.15,82.619c1.02,1.021,2.55,2.04,4.08,2.04c1.02,0,2.55-0.51,3.57-1.529c2.04-2.04,2.55-5.101,0.51-7.65 c-18.36-20.91-29.07-47.43-30.6-75.479h26.52c3.06,0,5.1-2.551,5.1-5.101s-2.55-5.1-5.1-5.1H173.4 c2.55-63.24,53.55-114.24,116.79-116.79v26.52c0,3.06,2.55,5.1,5.1,5.1s5.1-2.55,5.1-5.1v-26.52 c21.931,1.02,42.841,7.65,60.69,19.38c2.55,1.53,5.61,1.02,7.14-1.53c1.53-2.55,1.021-5.61-1.529-7.14 c-19.891-12.75-42.841-19.89-66.811-20.91v-10.71c36.21,1.53,70.38,16.32,96.39,41.82c26.011,26.01,40.801,59.67,41.82,95.88 H428.4c-1.021-23.97-8.16-46.92-20.91-66.81c-1.53-2.55-5.101-3.06-7.141-1.53c-2.55,1.53-3.06,5.1-1.529,7.14 c11.729,18.36,18.359,39.27,19.38,60.689H391.68c-3.06,0-5.1,2.551-5.1,5.101s2.55,5.101,5.1,5.101H418.2 c-3.061,64.26-54.061,114.749-117.3,117.81V498.51c0-3.06-2.551-5.1-5.101-5.1s-5.1,2.55-5.1,5.1v26.521 c-26.01-1.021-50.49-10.2-70.89-26.521c-2.04-2.04-5.61-1.529-7.65,1.021c-2.04,2.04-1.53,5.609,1.02,7.649 c21.93,17.851,49.47,28.051,77.52,29.07v10.71C253.98,544.92,219.81,530.13,194.31,504.12L194.31,504.12z M396.78,504.12 c-26.011,26.01-59.67,40.8-96.391,41.82v-10.71c68.851-2.551,124.44-58.141,127.5-127.5h10.71 C437.58,444.45,422.79,478.62,396.78,504.12L396.78,504.12z"></path> <path id="XMLID_55_" fill="#FFFFFF" d="M376.89,311.85c3.57,3.06,7.141,6.63,10.2,10.2c1.021,1.02,2.55,2.04,4.08,2.04 c1.021,0,2.55-0.51,3.57-1.53c2.04-2.04,2.55-5.1,0.51-7.65c-3.57-4.08-7.14-7.65-11.22-11.22c-2.04-2.04-5.61-1.53-7.65,0.51 C374.85,306.24,374.85,309.81,376.89,311.85L376.89,311.85z"></path> <path id="XMLID_48_" fill="#FFFFFF" d="M231.54,408.24h16.32c2.55,21.93,19.89,39.78,42.33,42.33v16.319 c0,3.061,2.55,5.101,5.1,5.101s5.1-2.55,5.1-5.101V450.57c21.931-2.55,39.78-19.891,42.33-42.33h16.32c3.06,0,5.1-2.551,5.1-5.1 c0-2.551-2.55-5.101-5.1-5.101h-16.32c-2.55-21.93-19.89-39.78-42.33-42.33v-16.32c0-3.06-2.55-5.1-5.1-5.1s-5.1,2.55-5.1,5.1 v16.32c-21.93,2.55-39.78,19.89-42.33,42.33h-16.32c-3.06,0-5.1,2.55-5.1,5.101C226.44,405.689,228.99,408.24,231.54,408.24 L231.54,408.24z M258.57,408.24h31.62v31.62C273.87,437.31,261.12,424.56,258.57,408.24L258.57,408.24z M300.9,439.86v-31.62 h31.619C329.97,424.56,317.22,437.31,300.9,439.86L300.9,439.86z M332.52,397.53H300.9v-31.62 C317.22,368.46,329.97,381.21,332.52,397.53L332.52,397.53z M290.19,365.91v31.62h-31.62 C261.12,381.21,273.87,368.46,290.19,365.91L290.19,365.91z"></path> </g> </g> </svg> 