<?xml version="1.0" encoding="utf-8"?>
<!-- Generator: Adobe Illustrator 27.1.1, SVG Export Plug-In . SVG Version: 6.00 Build 0)  -->
<svg version="1.1" id="Слой_1" xmlns="http://www.w3.org/2000/svg" xmlns:xlink="http://www.w3.org/1999/xlink" x="0px" y="0px"
	 viewBox="0 0 127 127" style="enable-background:new 0 0 127 127;" xml:space="preserve">
<style type="text/css">
	.st0{clip-path:url(#SVGID_00000057125759559713825330000007265263034903852449_);}
	.st1{fill:#F55E2C;}
</style>
<g>
	<defs>
		<rect id="SVGID_1_" width="127" height="127"/>
	</defs>
	<clipPath id="SVGID_00000148663667772229125720000012142413953481617035_">
		<use xlink:href="#SVGID_1_"  style="overflow:visible;"/>
	</clipPath>
	<g style="clip-path:url(#SVGID_00000148663667772229125720000012142413953481617035_);">
		<path class="st1" d="M114.32,59.99c0-6.38-4.81-11.66-11-12.4V15.57c0-1.96-1.27-3.62-3.17-4.13c-1.89-0.51-3.83,0.29-4.81,1.98
			c-6.76,11.64-17.42,19.59-31.67,23.65c-10.77,3.06-19.67,2.62-19.75,2.61c-0.13-0.01-0.26,0-0.39,0.01H20.76
			C9.31,39.69,0,49,0,60.44c0,10.78,8.26,19.66,18.79,20.66l6.87,28.26c0.91,3.74,4.23,6.36,8.09,6.36h4.77
			c2.57,0,4.95-1.16,6.54-3.18c1.59-2.02,2.15-4.61,1.54-7.11L40.71,81.2h2.83c0.13,0.01,0.26,0.02,0.39,0.01
			c0.09,0,8.98-0.45,19.75,2.61c14.25,4.05,24.9,12.01,31.67,23.64c0.79,1.35,2.18,2.13,3.67,2.13c0.38,0,0.76-0.05,1.14-0.15
			c1.89-0.51,3.17-2.17,3.17-4.13V73.3c6.18-0.74,11-6.02,11-12.4V59.99z M40.99,103.38l0.78,3.22c0.25,1.01,0.02,2.06-0.62,2.87
			c-0.64,0.82-1.6,1.28-2.64,1.28h-4.77c-1.56,0-2.9-1.06-3.26-2.57L23.91,81.2H35.6l1.75,7.2h-1.19c-1.37,0-2.48,1.11-2.48,2.48
			s1.11,2.48,2.48,2.48h2.39l1.23,5.05h-0.78c-1.37,0-2.48,1.11-2.48,2.48c0,1.37,1.11,2.48,2.48,2.48H40.99z M41.31,65.71H25.89
			c-1.37,0-2.48,1.11-2.48,2.48c0,1.37,1.11,2.48,2.48,2.48h15.42v5.57h-3.62c-0.05,0-0.09-0.01-0.14-0.01H20.76
			c-0.02,0-0.05,0-0.07,0C12.01,76.2,4.96,69.13,4.96,60.44c0-8.71,7.09-15.8,15.8-15.8h20.55V65.71z M98.37,49.98v20.93v31.99
			c-7.43-11.56-18.96-19.8-33.5-23.89c-8.05-2.27-15-2.72-18.6-2.78v-8.04V44.66c3.61-0.06,10.56-0.51,18.6-2.78
			c14.53-4.09,26.06-12.33,33.5-23.89V49.98z M109.36,60.9c0,3.64-2.6,6.68-6.03,7.38V52.61c3.44,0.69,6.03,3.74,6.03,7.38V60.9z"/>
		<path class="st1" d="M115.07,45.97c0.6,0,1.19-0.21,1.67-0.65l7.15-6.52c1.01-0.92,1.09-2.49,0.16-3.5
			c-0.92-1.01-2.49-1.09-3.5-0.16l-7.15,6.52c-1.01,0.92-1.09,2.49-0.16,3.5C113.72,45.7,114.39,45.97,115.07,45.97z"/>
		<path class="st1" d="M116.74,75.56c-1.01-0.92-2.58-0.85-3.5,0.16c-0.92,1.01-0.85,2.58,0.16,3.5l7.15,6.52
			c0.48,0.43,1.07,0.65,1.67,0.65c0.67,0,1.35-0.27,1.83-0.81c0.92-1.01,0.85-2.58-0.16-3.5L116.74,75.56z"/>
		<path class="st1" d="M124.52,57.96h-5.49c-1.37,0-2.48,1.11-2.48,2.48s1.11,2.48,2.48,2.48h5.49c1.37,0,2.48-1.11,2.48-2.48
			S125.89,57.96,124.52,57.96z"/>
		<path class="st1" d="M17.96,67.25c-0.06-0.15-0.14-0.3-0.23-0.43c-0.09-0.14-0.19-0.26-0.31-0.38c-0.12-0.11-0.24-0.22-0.38-0.31
			c-0.13-0.09-0.28-0.17-0.43-0.23c-0.15-0.06-0.31-0.11-0.46-0.14c-0.32-0.06-0.65-0.06-0.97,0c-0.16,0.03-0.32,0.08-0.46,0.14
			c-0.15,0.06-0.3,0.14-0.43,0.23c-0.14,0.09-0.26,0.19-0.38,0.31c-0.11,0.11-0.22,0.24-0.31,0.38c-0.09,0.13-0.17,0.28-0.23,0.43
			c-0.06,0.15-0.11,0.31-0.14,0.46c-0.03,0.16-0.05,0.32-0.05,0.48c0,0.16,0.02,0.32,0.05,0.49c0.03,0.16,0.08,0.31,0.14,0.46
			c0.06,0.15,0.14,0.29,0.23,0.43c0.09,0.14,0.19,0.26,0.31,0.38c0.11,0.11,0.24,0.22,0.38,0.31c0.13,0.09,0.28,0.17,0.43,0.23
			c0.15,0.06,0.31,0.11,0.46,0.14c0.16,0.03,0.32,0.05,0.48,0.05c0.16,0,0.32-0.01,0.49-0.05c0.16-0.03,0.31-0.08,0.46-0.14
			c0.15-0.06,0.29-0.14,0.43-0.23c0.14-0.09,0.26-0.2,0.38-0.31c0.11-0.11,0.22-0.24,0.31-0.38c0.09-0.13,0.17-0.28,0.23-0.43
			c0.06-0.15,0.11-0.31,0.14-0.46c0.03-0.16,0.05-0.32,0.05-0.49c0-0.16-0.01-0.32-0.05-0.48C18.07,67.55,18.03,67.4,17.96,67.25z"
			/>
	</g>
</g>
</svg>
