<?xml version="1.0" encoding="UTF-8"?> <!-- Generator: Adobe Illustrator 16.0.0, SVG Export Plug-In . SVG Version: 6.00 Build 0) --> <svg xmlns="http://www.w3.org/2000/svg" xmlns:xlink="http://www.w3.org/1999/xlink" id="Layer_1" x="0px" y="0px" width="529.38px" height="528.87px" viewBox="37.74 138.96 529.38 528.87" xml:space="preserve"> <g> <g> <path fill="#FFFFFF" d="M302.43,667.83C156.57,667.83,37.74,549,37.74,403.141c0-145.86,118.83-264.181,264.69-264.181 c145.86,0,264.69,118.83,264.69,264.69C567.12,549.51,448.29,667.83,302.43,667.83z M302.43,154.26 c-137.189,0-249.39,111.69-249.39,249.39c0,137.699,111.69,249.39,249.39,249.39c137.7,0,249.391-111.69,249.391-249.39 C551.82,265.95,440.13,154.26,302.43,154.26z"></path> </g> <g> <path fill="#FFFFFF" d="M240.72,501.06V317.97h43.86v24.48c0,2.55,1.53,4.59,3.57,5.61s4.59,1.02,6.63,0l47.43-30.6 c2.04-1.02,3.06-3.57,3.06-5.61s-1.02-4.59-3.06-5.61l-47.43-30.6c-2.04-1.53-4.59-1.53-6.63,0c-2.04,1.02-3.57,3.57-3.57,5.61 v23.97h-50.49c-3.57,0-6.63,3.06-6.63,6.63v189.72c0,3.569,3.06,6.63,6.63,6.63C237.66,507.69,240.72,504.63,240.72,501.06 L240.72,501.06z M326.4,311.34L297.84,329.7v-37.23L326.4,311.34z"></path> <path fill="#FFFFFF" d="M324.87,546.96c2.04-1.02,3.57-3.57,3.57-5.61v-23.97h50.489c3.57,0,6.63-3.06,6.63-6.63V321.03 c0-3.57-3.06-6.63-6.63-6.63c-3.569,0-6.63,3.06-6.63,6.63v183.09h-50.49c-3.569,0-6.63,3.06-6.63,6.63v18.36l-28.56-18.36 l38.76-24.99c3.061-2.04,4.08-6.12,2.04-9.18s-6.12-4.08-9.18-2.04l-47.43,30.6c-2.04,1.021-3.06,3.57-3.06,5.61 s1.02,4.59,3.06,5.61l47.43,30.6C320.28,547.98,322.83,548.49,324.87,546.96L324.87,546.96z"></path> </g> </g> </svg> 