<?xml version="1.0" encoding="UTF-8"?> <!-- Generator: Adobe Illustrator 16.0.0, SVG Export Plug-In . SVG Version: 6.00 Build 0) --> <svg xmlns="http://www.w3.org/2000/svg" xmlns:xlink="http://www.w3.org/1999/xlink" id="Layer_1" x="0px" y="0px" width="529.38px" height="528.87px" viewBox="33.15 141 529.38 528.87" xml:space="preserve"> <g> <g> <path fill="#FFFFFF" d="M297.84,669.87c-145.86,0-264.69-118.32-264.69-264.181C33.15,259.83,151.98,141,297.84,141 c145.86,0,264.69,118.83,264.69,264.689C562.53,551.55,443.7,669.87,297.84,669.87z M297.84,156.3 c-137.19,0-249.39,111.69-249.39,249.39c0,137.7,111.69,249.391,249.39,249.391c137.19,0,249.391-111.69,249.391-249.391 C547.23,267.99,435.03,156.3,297.84,156.3z"></path> </g> <path fill="#FFFFFF" d="M425.34,502.59l-116.79-88.74V266.97c0-3.57-3.06-6.63-6.63-6.63c-47.94,0-90.27,21.42-119.34,55.59 c0,1.02,0,1.53-0.51,2.55c0,0,0,0,0,0.51c2.04,0.51,4.08,1.02,6.12,1.53c1.53,1.02,3.06,2.04,4.59,3.57 c24.99-29.58,61.71-48.45,102.51-50.49v142.8c0,2.039,1.02,4.08,2.55,5.1l113.73,86.7c-27.54,32.64-66.811,51-109.65,51 c-79.05,0-143.31-64.26-143.31-143.31c0-17.341,3.06-33.661,8.67-48.96c-3.57-1.02-6.63-3.06-9.18-6.12 c-1.02,0.51-2.04,1.02-3.06,1.02c-6.12,16.83-9.69,35.189-9.69,54.061c0,86.189,70.38,156.569,156.57,156.569 c48.96,0,94.351-22.439,124.44-61.71c1.02-1.53,1.529-3.06,1.529-5.1C427.89,505.14,426.87,503.61,425.34,502.59z"></path> <path fill="#FFFFFF" d="M329.46,409.26c-1.53,0-3.06-0.51-4.59-1.529c-1.53-1.021-2.04-3.061-2.04-5.101V269.52 c0-2.04,1.02-4.08,2.55-5.1s3.57-1.53,5.61-1.53c62.22,11.73,110.67,59.16,123.93,120.87c0.51,2.04,0,3.57-1.02,5.1 c-1.021,1.53-2.551,2.55-4.591,2.55L330.48,408.75C330.48,409.26,329.97,409.26,329.46,409.26z M336.09,277.68v117.3l104.04-15.3 C426.87,329.19,387.09,290.43,336.09,277.68z"></path> <path fill="#FFFFFF" d="M437.07,491.37c-1.53,0-2.551-0.51-3.57-1.021l-84.66-59.159c-2.04-1.53-3.06-4.591-2.55-7.141 s3.06-4.59,5.61-5.1l99.96-12.75c2.04,0,3.569,0.51,5.1,1.53c1.53,1.02,2.04,3.06,2.55,5.1c0.51,26.01-5.1,51.51-16.83,74.97 c-1.02,1.53-2.55,3.061-4.08,3.57C438.09,490.86,437.58,491.37,437.07,491.37z M370.77,430.17l63.75,44.37 c7.65-16.83,11.73-35.7,12.24-54.06L370.77,430.17z"></path> <circle fill="#FFFFFF" cx="188.19" cy="319.5" r="6.63"></circle> <circle fill="#FFFFFF" cx="161.67" cy="365.91" r="6.63"></circle> </g> </svg> 