<?xml version="1.0" encoding="utf-8"?>
<!-- Generator: Adobe Illustrator 27.1.1, SVG Export Plug-In . SVG Version: 6.00 Build 0)  -->
<svg version="1.1" id="Слой_1" xmlns="http://www.w3.org/2000/svg" xmlns:xlink="http://www.w3.org/1999/xlink" x="0px" y="0px"
	 viewBox="0 0 1985.8 1489.4" style="enable-background:new 0 0 1985.8 1489.4;" xml:space="preserve">
<style type="text/css">
	.st0{fill:#FFFFFF;}
	.st1{fill:#EAEAEA;}
	.st2{fill:#F55E2C;}
	.st3{fill:#FA744A;}
	.st4{opacity:0.37;fill:#FFFFFF;enable-background:new    ;}
	.st5{fill:#A92F00;}
	.st6{fill:#A12C00;}
	.st7{fill:url(#SVGID_1_);}
	.st8{fill:url(#SVGID_00000059281057710461613350000017552768123103515032_);}
	.st9{fill:url(#SVGID_00000030474145423116766810000005668761666861688246_);}
	.st10{fill:url(#SVGID_00000063622825365999402310000002482633811907895942_);}
	.st11{opacity:0.43;fill:#FFFFFF;enable-background:new    ;}
	.st12{opacity:0.2;fill:#F6A992;enable-background:new    ;}
	.st13{fill:#FF6633;}
	.st14{opacity:0.57;fill:#FFFFFF;enable-background:new    ;}
	.st15{opacity:0.83;fill:#FFFFFF;enable-background:new    ;}
	.st16{fill:url(#SVGID_00000028297934211636630850000008657562802894725778_);}
	.st17{fill:url(#SVGID_00000124871541407445425420000018356302158923218350_);}
	.st18{fill:url(#SVGID_00000029746878583077327250000011181588962750435743_);}
	.st19{fill:#DDC9C0;}
	.st20{fill:#C0D5DD;}
	.st21{enable-background:new    ;}
	.st22{fill:#BF4100;}
	.st23{fill:url(#SVGID_00000038388053072298326170000010412574093756753793_);}
	.st24{fill:url(#SVGID_00000099653916996986779480000017941390160999959201_);}
	.st25{fill:url(#SVGID_00000166657012072754697930000012275846412875229608_);}
	.st26{fill:#F6A992;}
	.st27{opacity:0.43;fill:url(#SVGID_00000046334271253047000190000009832025139441987518_);enable-background:new    ;}
	.st28{opacity:0.43;fill:url(#SVGID_00000130644326525732774470000005001447021428536238_);enable-background:new    ;}
	.st29{opacity:0.43;fill:url(#SVGID_00000147221760601373431460000008406048196735470267_);enable-background:new    ;}
	.st30{opacity:0.43;fill:url(#SVGID_00000150797622448305788280000005976169267393650084_);enable-background:new    ;}
	.st31{opacity:0.43;fill:url(#SVGID_00000178890298684359092440000016047717964796917899_);enable-background:new    ;}
	.st32{fill:url(#SVGID_00000155129579799810150440000015571041091030354313_);}
	.st33{fill:#CA5426;}
	.st34{fill:url(#SVGID_00000094577477872370067150000001284993148060278173_);}
	.st35{fill:url(#SVGID_00000083775917671263756320000003909663298315229359_);}
	.st36{fill:url(#SVGID_00000069363743764558508900000001499913193794848696_);}
	.st37{fill:url(#SVGID_00000109733735521669801530000002213064695383867532_);}
	.st38{fill:#FFCC00;}
	.st39{fill:#212121;}
	.st40{fill:#E15C30;}
	.st41{fill:url(#SVGID_00000108998966882995743730000004189697176480655784_);}
	.st42{fill:url(#SVGID_00000142136592746927854010000016186564572334568342_);}
	.st43{fill:url(#SVGID_00000137115378402560762350000018010953632268650430_);}
	.st44{fill:url(#SVGID_00000034082956609396007470000001886007204807823292_);}
	.st45{fill:url(#SVGID_00000111881596145917827940000002069710082272677565_);}
	.st46{fill:url(#SVGID_00000085957810020508229980000000070287078223135884_);}
	.st47{fill:#EA4C17;}
	.st48{fill:url(#SVGID_00000133492825936398363100000000880308407815674762_);}
	.st49{fill:url(#SVGID_00000078040408993619469510000011475634814480348306_);}
	.st50{fill:url(#SVGID_00000054963366856582044760000010715502556358438840_);}
	.st51{fill:url(#SVGID_00000042014156919631194510000000911255426207282053_);}
	.st52{fill:url(#SVGID_00000101815520994670832900000001848667503249175737_);}
	.st53{fill:url(#SVGID_00000178178235470169554280000011848876650676154259_);}
	.st54{fill:url(#SVGID_00000060011227264426844990000015422048243404176813_);}
	.st55{opacity:0.12;fill:#FFFFFF;enable-background:new    ;}
</style>
<g id="Слой_2_00000067195905660621841240000016410042491500378759_">
	<g id="Illustration">
		<path class="st0" d="M1918.3,1304.2c-0.8,0-1.5-0.7-1.5-1.5c0-0.4,0.2-0.9,0.5-1.1c1.5-1.2,3-2.5,4.4-3.8c0.6-0.5,1.6-0.4,2.1,0.3
			c0.4,0.6,0.4,1.4-0.1,1.9c-1.5,1.3-3,2.6-4.5,3.8C1919,1304.1,1918.6,1304.2,1918.3,1304.2z"/>
		<path class="st0" d="M1808.7,1345.7c-0.8-0.1-1.4-0.8-1.3-1.6c0.1-0.7,0.6-1.3,1.3-1.3c3.7-0.1,7.5-0.4,11.2-0.7
			c0.8-0.1,1.5,0.5,1.6,1.3s-0.5,1.5-1.3,1.6l0,0C1816.5,1345.3,1812.6,1345.5,1808.7,1345.7L1808.7,1345.7z M1790.3,1345.4
			L1790.3,1345.4c-3.9-0.3-7.7-0.7-11.5-1.1c-0.8-0.2-1.3-0.9-1.2-1.7c0.1-0.7,0.8-1.2,1.5-1.2c3.7,0.5,7.5,0.9,11.2,1.1
			c0.8,0.1,1.4,0.8,1.3,1.6C1791.6,1344.8,1791,1345.3,1790.3,1345.4z M1838.3,1342.2c-0.8,0-1.5-0.6-1.5-1.4c0-0.7,0.5-1.4,1.2-1.5
			c3.7-0.7,7.3-1.6,11-2.6c0.8-0.3,1.6,0.1,1.9,0.9s-0.1,1.6-0.9,1.9c-0.1,0-0.2,0-0.2,0.1c-3.7,1-7.4,1.9-11.2,2.6
			C1838.5,1342.2,1838.4,1342.2,1838.3,1342.2L1838.3,1342.2z M1760.8,1340.9c-0.1,0-0.2,0-0.3,0c-3.7-0.9-7.4-1.9-11-3
			c-0.8-0.2-1.2-1.1-1-1.8c0.2-0.8,1.1-1.2,1.8-1c3.6,1.1,7.2,2.1,10.9,2.9c0.8,0.2,1.3,1,1.1,1.8l0,0
			C1762.1,1340.4,1761.5,1340.9,1760.8,1340.9L1760.8,1340.9z M1866.9,1333.9c-0.8,0-1.5-0.7-1.5-1.5c0-0.6,0.4-1.1,0.9-1.4l1-0.4
			c3.2-1.2,6.3-2.6,9.4-3.9c0.7-0.3,1.6,0,1.9,0.7l0,0c0.3,0.7,0,1.6-0.7,1.9c-3.1,1.4-6.4,2.8-9.6,4l-1,0.4
			C1867.3,1333.9,1867.1,1333.9,1866.9,1333.9L1866.9,1333.9z M1732.5,1331.6c-0.2,0-0.4,0-0.6-0.1c-3.5-1.5-7-3.1-10.4-4.7
			c-0.7-0.4-0.9-1.3-0.5-2c0.4-0.6,1.2-0.9,1.8-0.6c3.3,1.7,6.8,3.2,10.2,4.7c0.7,0.3,1.1,1.2,0.8,1.9
			C1733.6,1331.3,1733.1,1331.6,1732.5,1331.6z M1893.8,1321.1c-0.8,0-1.5-0.6-1.5-1.4c0-0.5,0.3-1,0.7-1.3c3.2-1.9,6.5-3.9,9.6-6
			c0.7-0.4,1.6-0.3,2,0.4c0.4,0.7,0.3,1.6-0.4,2l0,0c-3.2,2.1-6.4,4.1-9.7,6C1894.3,1321,1894.1,1321.1,1893.8,1321.1L1893.8,1321.1
			z M1706.1,1318c-0.3,0-0.5-0.1-0.8-0.2c-3.2-2-6.4-4.2-9.5-6.4c-0.7-0.4-0.9-1.3-0.5-2s1.3-0.9,2-0.5c0.1,0,0.1,0.1,0.2,0.1
			c3,2.2,6.2,4.3,9.3,6.3c0.7,0.4,0.9,1.3,0.5,2C1707,1317.7,1706.6,1318,1706.1,1318L1706.1,1318z M1682.2,1300.2
			c-0.4,0-0.7-0.1-1-0.4c-2.9-2.5-5.7-5.2-8.3-7.8c-0.6-0.6-0.6-1.5,0-2.1s1.5-0.6,2.1,0l0,0c2.6,2.6,5.4,5.2,8.2,7.7
			c0.6,0.5,0.7,1.5,0.1,2.1l0,0C1683,1300,1682.6,1300.2,1682.2,1300.2z M1661.6,1278.8c-0.4,0-0.9-0.2-1.1-0.5
			c-2.4-2.9-4.7-6-6.9-9.1c-0.4-0.7-0.2-1.6,0.5-2c0.6-0.4,1.4-0.2,1.9,0.3c2.2,3,4.5,6.1,6.8,8.9c0.5,0.6,0.4,1.6-0.2,2.1
			C1662.2,1278.6,1661.9,1278.7,1661.6,1278.8z M1644.8,1254.2c-0.5,0-1-0.3-1.3-0.7c-1.9-3.3-3.7-6.7-5.3-10.1
			c-0.4-0.7-0.1-1.6,0.6-2l0,0c0.7-0.4,1.6-0.1,2,0.6c0,0,0,0,0,0.1c1.7,3.3,3.4,6.7,5.3,10c0.4,0.7,0.2,1.6-0.5,2
			C1645.3,1254.1,1645.1,1254.2,1644.8,1254.2L1644.8,1254.2z M1632.2,1227.2c-0.6,0-1.2-0.4-1.4-1c-1.3-3.6-2.6-7.2-3.7-10.8
			c-0.2-0.8,0.2-1.6,1-1.8c0.8-0.2,1.6,0.2,1.8,1c1.1,3.6,2.3,7.2,3.6,10.7c0.3,0.7-0.1,1.6-0.8,1.9l0,0
			C1632.5,1227.1,1632.4,1227.2,1632.2,1227.2L1632.2,1227.2z M1624.1,1198.5c-0.7,0-1.3-0.5-1.4-1.2c-0.7-3.7-1.3-7.5-1.8-11.3
			c-0.1-0.8,0.6-1.5,1.4-1.6c0.7-0.1,1.4,0.5,1.5,1.2c0.5,3.7,1.1,7.5,1.8,11.1c0.2,0.8-0.4,1.5-1.1,1.7l0,0L1624.1,1198.5z
			 M1620.8,1168.9c-0.8,0-1.4-0.6-1.5-1.4c0-1.6-0.1-3.3-0.1-4.9c0-2.2,0-4.4,0.1-6.5c0-0.8,0.7-1.4,1.5-1.4h0.1
			c0.8,0,1.4,0.7,1.4,1.5l0,0c-0.1,2.1-0.1,4.3-0.1,6.4c0,1.6,0,3.2,0.1,4.8C1622.3,1168.2,1621.7,1168.9,1620.8,1168.9
			C1620.9,1168.9,1620.9,1168.9,1620.8,1168.9L1620.8,1168.9z"/>
		<path class="st0" d="M1622.5,1139.1h-0.2c-0.8-0.1-1.4-0.8-1.3-1.6l0,0c0.3-2,0.6-3.9,0.9-5.8c0.2-0.8,1-1.3,1.8-1.1
			c0.7,0.2,1.2,0.8,1.1,1.6c-0.3,1.9-0.6,3.8-0.9,5.7C1623.9,1138.5,1623.2,1139.1,1622.5,1139.1z"/>
		<path class="st0" d="M1694.3,1018c-0.8,0-1.5-0.7-1.5-1.5c0-0.5,0.2-0.9,0.6-1.2c1.6-1.2,3.2-2.3,4.8-3.4c0.7-0.5,1.6-0.3,2,0.4
			c0.5,0.7,0.3,1.6-0.4,2c-1.6,1.1-3.2,2.2-4.7,3.4C1694.9,1017.9,1694.6,1018,1694.3,1018z"/>
		<path class="st0" d="M1983.8,1177.8L1983.8,1177.8c-0.9-0.1-1.5-0.8-1.4-1.6c0.3-3.9,0.5-7.9,0.5-11.9c0-0.8,0.7-1.4,1.5-1.4l0,0
			c0.8,0,1.5,0.7,1.5,1.5l0,0c0,4-0.2,8.1-0.5,12.1C1985.2,1177.2,1984.5,1177.8,1983.8,1177.8z M1983.5,1146.4
			c-0.8,0-1.4-0.6-1.5-1.4c-0.4-3.9-0.9-7.9-1.6-11.8c-0.1-0.8,0.4-1.6,1.2-1.7c0.8-0.1,1.6,0.4,1.7,1.2c0.7,4,1.2,8,1.6,12
			c0.1,0.8-0.5,1.5-1.3,1.6l0,0L1983.5,1146.4z M1977.7,1115.4c-0.7,0-1.2-0.4-1.4-1.1c-1.1-3.8-2.3-7.6-3.6-11.3
			c-0.3-0.8,0.1-1.6,0.9-1.9s1.6,0.1,1.9,0.9c1.3,3.8,2.6,7.7,3.6,11.5c0.2,0.8-0.2,1.6-1,1.8
			C1978,1115.4,1977.8,1115.4,1977.7,1115.4L1977.7,1115.4z M1966.7,1086c-0.6,0-1.1-0.3-1.3-0.8c-1.7-3.6-3.5-7.1-5.4-10.6
			c-0.4-0.7-0.1-1.6,0.6-2s1.6-0.1,2,0.6c2,3.5,3.8,7.1,5.5,10.8c0.3,0.7,0,1.6-0.7,1.9l0,0C1967.1,1085.9,1966.9,1086,1966.7,1086
			L1966.7,1086z M1950.8,1058.8c-0.5,0-0.9-0.2-1.2-0.6c-2.3-3.2-4.7-6.4-7.2-9.5c-0.5-0.6-0.4-1.6,0.2-2.1s1.6-0.4,2.1,0.2
			c2.5,3.1,5,6.3,7.3,9.6c0.4,0.6,0.3,1.5-0.3,2C1951.4,1058.7,1951.1,1058.8,1950.8,1058.8L1950.8,1058.8z M1930.5,1034.8
			c-0.4,0-0.7-0.2-1-0.4c-2.8-2.8-5.7-5.5-8.7-8.1c-0.6-0.5-0.7-1.5-0.1-2.1c0.5-0.6,1.5-0.7,2.1-0.1c3,2.6,6,5.4,8.9,8.2
			c0.6,0.6,0.6,1.5,0,2.1C1931.3,1034.7,1930.9,1034.8,1930.5,1034.8L1930.5,1034.8z M1906.3,1014.7c-0.3,0-0.6-0.1-0.8-0.3
			c-3.2-2.3-6.6-4.4-10-6.5c-0.7-0.4-0.9-1.3-0.5-2s1.3-0.9,2-0.5l0,0c3.4,2.1,6.8,4.3,10.2,6.6c0.7,0.5,0.8,1.4,0.4,2
			C1907.2,1014.5,1906.8,1014.7,1906.3,1014.7L1906.3,1014.7z M1715.7,1004.3c-0.8,0-1.5-0.6-1.5-1.4c0-0.5,0.3-1.1,0.8-1.3
			c3.5-1.9,7.2-3.7,10.8-5.4c0.8-0.3,1.6,0.1,1.9,0.9c0.2,0.7,0,1.4-0.7,1.8c-3.6,1.7-7.2,3.5-10.6,5.3
			C1716.2,1004.3,1715.9,1004.4,1715.7,1004.3L1715.7,1004.3z M1879,999.2c-0.2,0-0.4,0-0.6-0.1c-3.6-1.7-7.3-3.2-11-4.7
			c-0.8-0.2-1.2-1-1-1.8s1-1.2,1.8-1c0.1,0,0.2,0.1,0.3,0.1c3.8,1.4,7.5,3,11.1,4.7c0.7,0.3,1,1.2,0.7,2
			C1880,998.8,1879.5,999.1,1879,999.2L1879,999.2z M1744.5,991.8c-0.8,0-1.5-0.7-1.5-1.5c0-0.6,0.4-1.2,1-1.4
			c3.8-1.3,7.7-2.5,11.6-3.5c0.8-0.2,1.6,0.3,1.8,1c0.2,0.8-0.3,1.6-1,1.8l0,0c-3.8,1-7.6,2.2-11.4,3.4
			C1744.8,991.8,1744.7,991.8,1744.5,991.8L1744.5,991.8z M1849.4,988.4c-0.1,0-0.3,0-0.4,0c-3.8-1-7.7-1.9-11.6-2.7
			c-0.8-0.2-1.3-0.9-1.2-1.7s0.9-1.3,1.7-1.2l0,0c3.9,0.8,7.9,1.7,11.8,2.7c0.8,0.2,1.3,1,1.1,1.8
			C1850.7,988,1850.1,988.5,1849.4,988.4L1849.4,988.4z M1775.1,984.3c-0.8,0-1.5-0.6-1.5-1.4c0-0.8,0.5-1.4,1.3-1.5
			c4-0.6,8-1.1,12-1.4c0.8-0.1,1.5,0.5,1.6,1.3l0,0c0.1,0.8-0.5,1.5-1.3,1.6c-3.9,0.3-7.9,0.8-11.8,1.4L1775.1,984.3z M1818.5,982.9
			L1818.5,982.9c-4-0.3-8-0.6-12-0.7c-0.8,0-1.5-0.6-1.6-1.4c0-0.8,0.6-1.5,1.4-1.6c0.1,0,0.2,0,0.2,0c4,0.1,8.1,0.3,12.1,0.7
			c0.8,0,1.4,0.7,1.4,1.5C1819.9,982.4,1819.3,983,1818.5,982.9L1818.5,982.9z"/>
		<path class="st0" d="M1980.1,1203c-0.1,0-0.2,0-0.3,0c-0.8-0.2-1.3-1-1.1-1.7l0,0c0.4-1.9,0.8-3.8,1.2-5.7
			c0.1-0.8,0.8-1.4,1.6-1.3c0.8,0.1,1.4,0.8,1.3,1.6c0,0.1,0,0.2,0,0.2c-0.4,1.9-0.8,3.9-1.2,5.8
			C1981.3,1202.5,1980.7,1203,1980.1,1203z"/>
		<path class="st1" d="M1934.1,1209.4c0.4-0.8,0.2-1.8-0.4-2.5l-18.8-18.7c2.7-12.3,3.5-24.9,2.1-37.4l20.8-16.4
			c0.7-0.6,1-1.6,0.7-2.4l-10.5-30.1c-0.3-0.9-1.1-1.5-2.1-1.5l-26.5,0.1c-6.7-10.6-15.2-20-24.9-27.9l3.1-26.4
			c0.1-0.9-0.4-1.8-1.2-2.2l-28.7-13.8c-0.8-0.4-1.8-0.2-2.5,0.4l-18.7,18.8c-12.3-2.7-24.9-3.5-37.4-2.1l-16.4-20.8
			c-0.6-0.7-1.6-1-2.4-0.7l-30.1,10.5c-0.9,0.3-1.5,1.1-1.5,2.1l0.1,26.5c-10.6,6.7-20,15.2-27.9,24.9l-26.4-3.1
			c-0.9-0.1-1.8,0.4-2.2,1.2l-13.8,28.7c-0.4,0.8-0.2,1.8,0.4,2.5l18.8,18.7c-2.7,12.3-3.5,24.9-2.1,37.4l-20.8,16.4
			c-0.7,0.6-1,1.6-0.7,2.4l10.5,30.1c0.3,0.9,1.1,1.5,2.1,1.5l26.5-0.1c6.8,10.6,15.2,20.1,25,27.9l-3.1,26.4
			c-0.1,0.9,0.4,1.8,1.2,2.2l28.7,13.8c0.8,0.4,1.8,0.2,2.5-0.4l18.6-18.9c12.3,2.7,24.9,3.5,37.4,2.1l16.4,20.8
			c0.6,0.7,1.6,1,2.4,0.7l30.1-10.5c0.9-0.3,1.5-1.1,1.5-2.1l-0.1-26.5c10.6-6.8,20.1-15.2,27.9-25l26.4,3.1
			c0.9,0.1,1.8-0.4,2.2-1.2L1934.1,1209.4z"/>
		<path class="st0" d="M1801.2,1192.8c-16.4,0-29.7-13.3-29.7-29.7c0-16.4,13.3-29.7,29.7-29.7c16.4,0,29.7,13.3,29.7,29.7
			c0,10-5,19.3-13.4,24.8C1812.7,1191,1807.1,1192.8,1801.2,1192.8z M1801.2,1136.2c-14.8,0-26.8,12.1-26.8,26.9
			s12.1,26.8,26.9,26.8s26.8-12.1,26.8-26.9c0-12.7-9-23.7-21.4-26.3C1804.8,1136.4,1803,1136.2,1801.2,1136.2z"/>
		<path class="st0" d="M1800.7,1241.1c-43.2,0-78.3-35-78.4-78.2c0-43.2,35-78.3,78.2-78.4c33.3,0,63,21,74,52.5
			c1.7,4.8,2.9,9.8,3.6,14.8c0.1,0.5,0.1,1,0.2,1.4c0,0.1,0,0.1,0,0.2c0,0.8-0.7,1.4-1.5,1.4c-0.7,0-1.3-0.5-1.4-1.2
			c-0.7-5.3-1.9-10.6-3.7-15.6c-13.7-39.3-56.7-60-96-46.2c-39.3,13.7-60,56.7-46.2,96c13.7,39.3,56.7,60,96,46.2
			c12.8-4.5,24.2-12.4,32.9-22.8c0.5-0.6,1.4-0.7,2.1-0.2l0,0c0.6,0.5,0.7,1.4,0.2,2.1l0,0
			C1845.8,1230.8,1823.9,1241.1,1800.7,1241.1L1800.7,1241.1z"/>
		<path class="st2" d="M1584,1265.3c0,13.1-10.7,23.7-23.8,23.8H274c-13.1,0-23.7-10.6-23.8-23.8l-10.8-739.2
			c0-13.1,15.4-38.6,43.6-36.7l1257.1-32.5c33.1-0.9,60.6,25.2,61.5,58.3c0,1,0,2,0,3L1584,1265.3z"/>
		<path class="st3" d="M1560.5,1242.5c0,12.4-10.1,22.5-22.5,22.5H305c-12.4,0-22.5-10.1-22.5-22.5l-10.1-671
			c1.2-40.4,36.6-54.9,58-54l1204.8-32.3c23.3-0.6,42.6,17.8,43.2,41c0,0.7,0,1.4,0,2.1L1560.5,1242.5z"/>
		<path class="st4" d="M295.8,922.1c-0.9,0-1.7-0.8-1.7-1.7l-0.8-54.4c0-0.9,0.7-1.7,1.6-1.7l0,0l0,0c0.9,0,1.7,0.7,1.7,1.7
			l0.8,54.4C297.5,921.3,296.8,922.1,295.8,922.1L295.8,922.1L295.8,922.1z"/>
		<path class="st0" d="M293.8,788.8c-0.9,0-1.7-0.8-1.7-1.7L289,578.7c0.1-13.9,4.3-25,12.7-33c15.2-14.6,39.1-13.9,40.1-13.8
			l384.7-10.3c0.9,0,1.7,0.7,1.7,1.7c0,0.9-0.7,1.7-1.7,1.7l-384.8,10.3c-1.1,0-23.5-0.7-37.7,12.9c-7.7,7.4-11.6,17.6-11.7,30.5
			l3.1,208.4C295.5,787.9,294.8,788.7,293.8,788.8C293.9,788.7,293.9,788.7,293.8,788.8L293.8,788.8z"/>
		<path class="st4" d="M336.8,1205.3c1.3-55.5,0.8-546.6-2.4-589s62.9-50.4,164.3-55.1s957.1-23.7,979.2-25.5
			c49.5-4,59.8,70,54.8,230.7c-3.7,120.7-9.9,319.6-12.7,411.1c-0.8,27.2-23.1,48.9-50.3,48.9c-205.9,0.6-995.2,2.8-1047.7,4.4
			C361.5,1232.6,336.3,1227.2,336.8,1205.3z"/>
		<path class="st5" d="M182.2,1285.5h1495.9c5.7,0,10.3,4.6,10.3,10.3v44.4c0,5.7-4.6,10.3-10.3,10.3H182.2
			c-5.7,0-10.3-4.6-10.3-10.3v-44.4C171.9,1290.1,176.5,1285.5,182.2,1285.5z"/>
		<path class="st6" d="M43.4,130.4h492.4c24,0,43.4,19.4,43.4,43.4V689c0,24-19.4,43.4-43.4,43.4H43.4C19.4,732.3,0,712.9,0,689
			V173.8C0,149.8,19.4,130.4,43.4,130.4z"/>
		<path class="st1" d="M71.3,148h437.6c24,0,43.4,19.4,43.4,43.4V673c0,24-19.4,43.4-43.4,43.4H71.3c-24,0-43.4-19.4-43.4-43.4
			V191.4C27.9,167.4,47.3,148,71.3,148z"/>
		
			<linearGradient id="SVGID_1_" gradientUnits="userSpaceOnUse" x1="45.599" y1="-1260" x2="391.6" y2="-1260" gradientTransform="matrix(1 0 0 1 0 1442)">
			<stop  offset="0" style="stop-color:#FFFFFF"/>
			<stop  offset="1" style="stop-color:#FFFFFF"/>
		</linearGradient>
		<path class="st7" d="M62.1,164h313c9.1,0,16.5,7.4,16.5,16.5v3c0,9.1-7.4,16.5-16.5,16.5h-313c-9.1,0-16.5-7.4-16.5-16.5v-3
			C45.5,171.4,52.9,164,62.1,164z"/>
		
			<linearGradient id="SVGID_00000106126256684294251060000003079999780312285362_" gradientUnits="userSpaceOnUse" x1="408.6" y1="-1259.5" x2="438.12" y2="-1259.5" gradientTransform="matrix(1 0 0 1 0 1442)">
			<stop  offset="0" style="stop-color:#FFFFFF"/>
			<stop  offset="1" style="stop-color:#FFFFFF"/>
		</linearGradient>
		<path style="fill:url(#SVGID_00000106126256684294251060000003079999780312285362_);" d="M423.4,196.4c-8.1,0-14.8-6.2-14.8-13.9
			s6.6-13.9,14.8-13.9s14.8,6.2,14.8,13.9S431.5,196.4,423.4,196.4z M423.4,172.5c-6,0-10.9,4.5-10.9,10s4.9,10.1,10.9,10.1
			s10.9-4.5,10.9-10.1S429.4,172.5,423.4,172.5z"/>
		
			<linearGradient id="SVGID_00000134944489921503904260000014870315318330761149_" gradientUnits="userSpaceOnUse" x1="458.57" y1="-1259.5" x2="488.09" y2="-1259.5" gradientTransform="matrix(1 0 0 1 0 1442)">
			<stop  offset="0" style="stop-color:#FFFFFF"/>
			<stop  offset="1" style="stop-color:#FFFFFF"/>
		</linearGradient>
		<path style="fill:url(#SVGID_00000134944489921503904260000014870315318330761149_);" d="M473.3,196.4c-8.1,0-14.8-6.2-14.8-13.9
			s6.6-13.9,14.8-13.9s14.8,6.2,14.8,13.9S481.5,196.4,473.3,196.4z M473.3,172.5c-6,0-10.9,4.5-10.9,10s4.9,10.1,10.9,10.1
			s10.9-4.5,10.9-10.1S479.3,172.5,473.3,172.5z"/>
		
			<linearGradient id="SVGID_00000103956098898265353740000001598104152519377073_" gradientUnits="userSpaceOnUse" x1="508.53" y1="-1259.5" x2="538.05" y2="-1259.5" gradientTransform="matrix(1 0 0 1 0 1442)">
			<stop  offset="0" style="stop-color:#FFFFFF"/>
			<stop  offset="1" style="stop-color:#FFFFFF"/>
		</linearGradient>
		<path style="fill:url(#SVGID_00000103956098898265353740000001598104152519377073_);" d="M523.3,196.4c-8.1,0-14.8-6.2-14.8-13.9
			s6.6-13.9,14.8-13.9s14.8,6.2,14.8,13.9S531.4,196.4,523.3,196.4z M523.3,172.5c-6,0-10.9,4.5-10.9,10s4.9,10.1,10.9,10.1
			s10.9-4.5,10.9-10.1S529.3,172.5,523.3,172.5z"/>
		<path class="st11" d="M372.4,189.9H65.2c-4.2,0.2-7.7-3.1-7.9-7.3s3.1-7.7,7.3-7.9c0.2,0,0.4,0,0.6,0h307.1
			c4.2-0.2,7.7,3.1,7.9,7.3c0.2,4.2-3.1,7.7-7.3,7.9C372.7,189.9,372.5,189.9,372.4,189.9z"/>
		<path class="st2" d="M63.7,201.1L29,236.4c-1.4,1.4-1.4,3.6,0,5c0.1,0.1,0.1,0.1,0.2,0.2l0.3,0.2c1.4,1.2,3.5,1,4.7-0.4l0,0
			l31.7-38.3L63.7,201.1z"/>
		
			<ellipse transform="matrix(0.9025 -0.4307 0.4307 0.9025 -71.0157 51.6716)" class="st12" cx="78.6" cy="182.7" rx="23" ry="22.6"/>
		<path class="st2" d="M67.8,160c-12.4,6.2-17.4,21.3-11.2,33.7s21.3,17.4,33.7,11.2c12.2-6.1,17.3-20.9,11.4-33.3
			C95.5,159.1,80.3,153.9,67.8,160L67.8,160z M87.8,202c-10.8,4.9-23.5,0.1-28.4-10.6S59.3,167.9,70,163
			c10.6-4.8,23.2-0.3,28.2,10.3C103.3,184.1,98.6,196.9,87.8,202L87.8,202z"/>
		<path class="st3" d="M504.3,294.7H77.9c-4.9,0-8.9-4-8.9-8.9s4-8.9,8.9-8.9h426.4c4.9,0,8.9,4,8.9,8.9
			C513.1,290.7,509.2,294.7,504.3,294.7z"/>
		<path class="st13" d="M436.5,259.7H139.7c-4.9,0-8.9-4-8.9-8.9s4-8.9,8.9-8.9h296.8c4.9,0,8.9,4,8.9,8.9S441.4,259.7,436.5,259.7
			L436.5,259.7z"/>
		<path class="st0" d="M104,559.4h376.1c13.9,0,25.1,3.8,25.1,8.5v102.9c0,4.7-11.3,8.5-25.1,8.5H104c-13.9,0-25.1-3.8-25.1-8.5
			v-103C78.9,563.2,90.1,559.4,104,559.4z"/>
		<path class="st14" d="M1570.6,583.3c-1.3,0-2.4-1.1-2.4-2.4c0-1.3,1.1-2.4,2.4-2.4l0,0c2.2,0,4.5-0.1,6.7-0.2
			c1.3,0,2.4,1.1,2.4,2.5c0,1.2-1,2.3-2.2,2.4C1575.2,583.2,1572.9,583.3,1570.6,583.3L1570.6,583.3z M1563.8,583.3L1563.8,583.3
			c-2.3,0-4.6-0.1-6.8-0.2c-1.3-0.1-2.4-1.2-2.3-2.5s1.2-2.4,2.5-2.3l0,0c2.2,0.1,4.4,0.2,6.7,0.2c1.3,0,2.4,1.1,2.4,2.4
			C1566.3,582.2,1565.3,583.3,1563.8,583.3L1563.8,583.3z M1584.1,582.8c-1.3,0-2.4-1.2-2.3-2.5c0-1.2,1-2.2,2.2-2.3
			c2.2-0.1,4.5-0.3,6.7-0.5c1.3-0.1,2.5,0.9,2.6,2.2s-0.9,2.5-2.2,2.6c-2.3,0.2-4.6,0.4-6.8,0.5H1584.1z M1550.3,582.7h-0.2
			c-2.3-0.2-4.6-0.4-6.8-0.6c-1.3-0.1-2.4-1.2-2.3-2.5s1.2-2.4,2.5-2.3c0.1,0,0.2,0,0.2,0c2.2,0.2,4.4,0.4,6.7,0.6
			c1.3,0.1,2.3,1.3,2.2,2.6C1552.6,581.7,1551.6,582.7,1550.3,582.7L1550.3,582.7z M1597.6,581.6c-1.3,0-2.4-1.1-2.4-2.4
			c0-1.2,0.9-2.2,2.1-2.4c2.2-0.3,4.5-0.6,6.6-0.9c1.3-0.2,2.6,0.7,2.7,2c0.2,1.3-0.7,2.6-2,2.7c-2.2,0.3-4.5,0.6-6.8,0.9
			C1597.8,581.6,1597.7,581.6,1597.6,581.6L1597.6,581.6z M1536.9,581.4c-0.1,0-0.2,0-0.3,0c-2.3-0.3-4.5-0.6-6.8-1
			c-1.3-0.2-2.3-1.4-2.1-2.7s1.4-2.3,2.7-2.1c0.1,0,0.1,0,0.2,0c2.2,0.3,4.4,0.7,6.6,0.9c1.3,0.1,2.3,1.3,2.2,2.6
			C1539.3,580.5,1538.2,581.4,1536.9,581.4L1536.9,581.4z M1611,579.6c-1.3,0-2.4-1.1-2.4-2.4c0-1.2,0.8-2.2,2-2.4
			c2.2-0.4,4.4-0.8,6.6-1.2c1.3-0.3,2.6,0.6,2.9,1.9s-0.6,2.6-1.9,2.9c-2.2,0.5-4.5,0.9-6.7,1.3L1611,579.6z M1523.5,579.3
			c-0.1,0-0.3,0-0.4,0c-2.2-0.4-4.5-0.8-6.7-1.3c-1.3-0.2-2.2-1.5-2-2.8s1.5-2.2,2.8-2c0.1,0,0.2,0,0.2,0c2.2,0.5,4.4,0.9,6.6,1.3
			c1.3,0.2,2.2,1.4,2,2.8C1525.8,578.5,1524.7,579.4,1523.5,579.3L1523.5,579.3z M1624.2,577c-1.3,0-2.4-1.1-2.4-2.4
			c0-1.1,0.8-2.1,1.8-2.3c2.2-0.5,4.3-1,6.5-1.6c1.3-0.3,2.6,0.4,2.9,1.7s-0.4,2.6-1.7,2.9l0,0c-2.2,0.6-4.4,1.1-6.6,1.6
			C1624.6,576.9,1624.4,576.9,1624.2,577L1624.2,577z M1510.2,576.5c-0.2,0-0.4,0-0.6-0.1c-2.2-0.5-4.4-1.1-6.6-1.7
			c-1.3-0.3-2-1.7-1.7-3s1.7-2,3-1.7c2.1,0.6,4.3,1.1,6.5,1.7c1.3,0.3,2.1,1.6,1.8,2.9C1512.3,575.7,1511.4,576.5,1510.2,576.5
			L1510.2,576.5z M1637.3,573.5c-1.3,0-2.4-1.1-2.4-2.4c0-1.1,0.7-2.1,1.8-2.3c2.1-0.6,4.3-1.3,6.4-2c1.3-0.4,2.6,0.3,3,1.6
			s-0.3,2.6-1.6,3l0,0c-2.2,0.7-4.4,1.4-6.5,2C1637.8,573.4,1637.6,573.5,1637.3,573.5L1637.3,573.5z M1497.2,572.9
			c-0.2,0-0.5,0-0.7-0.1c-2.2-0.7-4.4-1.3-6.5-2c-1.3-0.4-2-1.7-1.7-3c0.4-1.3,1.7-2,3-1.7c0.1,0,0.1,0,0.2,0.1
			c2.1,0.7,4.2,1.4,6.4,2c1.3,0.4,2,1.8,1.6,3C1499.2,572.2,1498.2,572.9,1497.2,572.9L1497.2,572.9z M1650.2,569.4
			c-1.3,0-2.4-1.1-2.4-2.4c0-1,0.6-1.9,1.6-2.3c2.1-0.7,4.2-1.5,6.3-2.3c1.2-0.5,2.6,0.1,3.1,1.4c0.5,1.2-0.1,2.6-1.4,3.1l0,0
			c-2.1,0.8-4.3,1.6-6.4,2.3C1650.7,569.3,1650.5,569.4,1650.2,569.4L1650.2,569.4z M1484.3,568.7c-0.3,0-0.6,0-0.8-0.1
			c-2.2-0.8-4.3-1.6-6.4-2.4c-1.3-0.4-1.9-1.8-1.5-3.1s1.8-1.9,3.1-1.5c0.1,0,0.1,0,0.2,0.1c2.1,0.8,4.2,1.6,6.3,2.4
			c1.3,0.5,1.9,1.9,1.4,3.1C1486.2,568,1485.3,568.7,1484.3,568.7L1484.3,568.7z M1662.8,564.5c-1.3,0-2.4-1.1-2.4-2.4
			c0-1,0.6-1.8,1.5-2.2c2-0.8,4.1-1.7,6.1-2.6c1.2-0.6,2.7,0,3.2,1.2c0.6,1.2,0,2.7-1.2,3.2c-2.1,0.9-4.2,1.8-6.2,2.7
			C1663.5,564.5,1663.1,564.5,1662.8,564.5L1662.8,564.5z M1471.7,563.7c-0.3,0-0.6-0.1-0.9-0.2c-2.1-0.9-4.2-1.8-6.3-2.8
			c-1.3-0.5-1.9-1.8-1.5-3.1c0.5-1.3,1.8-1.9,3.1-1.5c0.1,0,0.2,0.1,0.4,0.2c2,0.9,4.1,1.8,6.1,2.7c1.2,0.5,1.8,2,1.3,3.2
			C1473.5,563.1,1472.6,563.7,1471.7,563.7L1471.7,563.7z M1675.1,559c-1.3,0-2.4-1.1-2.4-2.4c0-0.9,0.5-1.8,1.4-2.2c2-1,4-2,6-3
			c1.2-0.6,2.6-0.2,3.3,1c0.6,1.2,0.2,2.6-1,3.3h-0.1c-2,1-4.1,2-6.1,3C1675.9,558.9,1675.5,559,1675.1,559z M1459.4,558
			c-0.4,0-0.7-0.1-1.1-0.2c-2.1-1-4.1-2.1-6.1-3.1c-1.2-0.7-1.5-2.2-0.9-3.3s2-1.5,3.1-1c2,1,4,2.1,6,3c1.2,0.6,1.7,2,1.1,3.2
			C1461.2,557.4,1460.3,557.9,1459.4,558L1459.4,558z M1687.1,552.8c-1.3,0-2.4-1.1-2.4-2.4c0-0.9,0.5-1.7,1.3-2.1
			c1.9-1.1,3.9-2.2,5.8-3.3c1.2-0.6,2.6-0.2,3.3,1c0.6,1.1,0.2,2.5-0.8,3.2c-2,1.2-4,2.3-5.9,3.4
			C1688,552.7,1687.6,552.8,1687.1,552.8L1687.1,552.8z M1447.4,551.7c-0.4,0-0.8-0.1-1.2-0.3c-2-1.1-4-2.3-5.9-3.4
			c-1.1-0.7-1.4-2.2-0.7-3.4c0.7-1,2.1-1.4,3.2-0.8c1.9,1.1,3.9,2.3,5.8,3.4c1.2,0.7,1.6,2.1,0.9,3.3
			C1449,551.2,1448.3,551.7,1447.4,551.7z M1698.8,546c-1.3,0-2.4-1.1-2.4-2.4c0-0.8,0.4-1.6,1.1-2.1c1.9-1.2,3.8-2.4,5.6-3.6
			c1.2-0.6,2.6-0.1,3.3,1c0.5,1,0.3,2.2-0.6,3c-1.9,1.2-3.8,2.5-5.7,3.7C1699.7,545.8,1699.2,546,1698.8,546L1698.8,546z
			 M1435.8,544.7c-0.5,0-0.9-0.1-1.3-0.4c-1.9-1.2-3.8-2.5-5.7-3.8c-1.1-0.7-1.5-2.2-0.8-3.3s2.2-1.5,3.3-0.8c0.1,0,0.2,0.1,0.2,0.2
			c1.9,1.3,3.7,2.5,5.6,3.7c1.1,0.7,1.5,2.2,0.7,3.3C1437.4,544.3,1436.6,544.7,1435.8,544.7L1435.8,544.7z M1710.1,538.5
			c-1.3,0-2.4-1.1-2.4-2.4c0-0.8,0.4-1.5,1-2c1.8-1.3,3.6-2.6,5.4-3.9c1.1-0.8,2.6-0.6,3.4,0.5s0.6,2.6-0.5,3.4l0,0
			c-1.8,1.4-3.7,2.7-5.5,4C1711.1,538.4,1710.6,538.6,1710.1,538.5L1710.1,538.5z M1424.6,537.1c-0.5,0-1-0.2-1.4-0.5
			c-1.8-1.3-3.7-2.7-5.5-4.1c-1.1-0.7-1.4-2.2-0.7-3.4c0.7-1.1,2.2-1.4,3.4-0.7c0.1,0.1,0.2,0.1,0.2,0.2c1.8,1.3,3.6,2.7,5.4,4
			c1.1,0.8,1.3,2.3,0.5,3.4C1426.1,536.8,1425.3,537.1,1424.6,537.1L1424.6,537.1z M1720.9,530.4c-0.7,0-1.4-0.3-1.9-0.9
			c-0.8-1-0.6-2.6,0.4-3.4l0,0c1.8-1.4,3.5-2.8,5.2-4.2c1-0.9,2.5-0.8,3.4,0.1s0.8,2.5-0.1,3.4c-0.1,0.1-0.1,0.1-0.2,0.1
			c-1.7,1.5-3.5,2.9-5.3,4.3C1722,530.3,1721.4,530.5,1720.9,530.4L1720.9,530.4z M1413.8,529c-0.6,0-1.1-0.2-1.5-0.5
			c-1.8-1.4-3.5-2.9-5.3-4.3c-1.1-0.8-1.3-2.3-0.5-3.4c0.8-1.1,2.3-1.3,3.4-0.5c0.1,0.1,0.2,0.1,0.2,0.2c1.7,1.5,3.4,2.9,5.2,4.3
			c1,0.8,1.2,2.4,0.4,3.4C1415.2,528.7,1414.5,529,1413.8,529L1413.8,529z M1731.3,521.8c-1.3,0-2.4-1.1-2.4-2.4
			c0-0.7,0.3-1.4,0.8-1.8c1.7-1.5,3.3-3,5-4.5c1-0.9,2.6-0.7,3.4,0.3c0.8,0.9,0.7,2.3-0.1,3.2c-1.7,1.5-3.4,3.1-5.1,4.6
			C1732.5,521.6,1731.9,521.9,1731.3,521.8L1731.3,521.8z M1403.4,520.2c-0.6,0-1.2-0.2-1.6-0.6c-1.7-1.5-3.4-3.1-5-4.6
			c-1-0.9-1.2-2.4-0.3-3.4c0.9-1,2.4-1.2,3.4-0.3c0.1,0.1,0.1,0.1,0.2,0.2c1.6,1.5,3.3,3,4.9,4.5c1,0.9,1.1,2.4,0.2,3.4
			C1404.8,520,1404.1,520.3,1403.4,520.2L1403.4,520.2z M1741.2,512.6c-1.3,0-2.4-1.1-2.4-2.4c0-0.6,0.3-1.3,0.7-1.7
			c1.6-1.6,3.2-3.2,4.7-4.8c1-0.9,2.5-0.9,3.4,0.1c0.9,0.9,0.9,2.4,0.1,3.3c-1.6,1.6-3.2,3.3-4.8,4.9
			C1742.4,512.4,1741.8,512.6,1741.2,512.6L1741.2,512.6z M1393.6,511c-0.6,0-1.3-0.2-1.7-0.7c-1.6-1.6-3.2-3.2-4.8-4.9
			c-0.9-1-0.7-2.6,0.3-3.4c0.9-0.8,2.3-0.7,3.2,0.1c1.5,1.6,3.1,3.2,4.7,4.8c0.9,0.9,0.9,2.5,0,3.4
			C1394.9,510.7,1394.3,511,1393.6,511L1393.6,511z M1750.6,503c-0.6,0-1.2-0.2-1.6-0.6c-1-0.9-1-2.4-0.2-3.4c1.5-1.6,3-3.3,4.4-5
			c0.9-1,2.4-1.1,3.4-0.2s1.1,2.4,0.2,3.4c-1.5,1.7-3,3.4-4.5,5.1C1751.9,502.7,1751.3,503,1750.6,503L1750.6,503z M1384.4,501.2
			c-0.7,0-1.3-0.3-1.8-0.8c-1.5-1.7-3-3.4-4.5-5.1c-0.8-1-0.7-2.6,0.4-3.4c1-0.8,2.5-0.7,3.3,0.3c1.4,1.7,2.9,3.4,4.4,5
			c0.9,1,0.8,2.5-0.2,3.4C1385.5,500.9,1384.9,501.1,1384.4,501.2L1384.4,501.2z M1759.5,492.8c-0.6,0-1.1-0.2-1.5-0.5
			c-1-0.8-1.2-2.4-0.3-3.4l0,0c1.4-1.7,2.8-3.5,4.2-5.2c0.8-1.1,2.4-1.2,3.4-0.4c1.1,0.8,1.2,2.4,0.4,3.4c-1.4,1.8-2.8,3.6-4.3,5.4
			C1760.9,492.4,1760.2,492.7,1759.5,492.8L1759.5,492.8z M1375.6,490.9c-0.7,0-1.4-0.3-1.9-0.9c-1.4-1.8-2.8-3.6-4.2-5.4
			c-0.7-1.1-0.5-2.6,0.7-3.4c1-0.7,2.4-0.5,3.2,0.4c1.3,1.8,2.7,3.5,4.1,5.3c0.8,1,0.7,2.6-0.4,3.4
			C1376.7,490.7,1376.2,490.9,1375.6,490.9L1375.6,490.9z M1767.7,482c-0.5,0-1-0.2-1.4-0.5c-1.1-0.8-1.3-2.3-0.5-3.4
			c1.3-1.8,2.6-3.6,3.9-5.5c0.8-1.1,2.3-1.4,3.4-0.6s1.4,2.3,0.6,3.4l0,0c-1.3,1.9-2.6,3.7-4,5.6
			C1769.2,481.6,1768.5,482,1767.7,482z M1367.4,480.1c-0.8,0-1.5-0.4-2-1c-1.3-1.8-2.6-3.7-3.9-5.6c-0.7-1.1-0.5-2.6,0.7-3.4
			c1.1-0.7,2.6-0.5,3.3,0.6l0,0c1.2,1.8,2.5,3.7,3.8,5.5c0.8,1.1,0.5,2.6-0.6,3.4C1368.4,479.9,1367.9,480.1,1367.4,480.1
			L1367.4,480.1z M1775.4,470.9c-0.5,0-0.9-0.1-1.3-0.4c-1.1-0.7-1.4-2.2-0.7-3.3l0,0c1.2-1.9,2.4-3.8,3.6-5.7
			c0.7-1.1,2.2-1.5,3.3-0.8c1.1,0.7,1.5,2.2,0.8,3.3c-1.2,1.9-2.4,3.9-3.7,5.8C1777,470.4,1776.2,470.8,1775.4,470.9L1775.4,470.9z
			 M1359.8,468.9c-0.8,0-1.6-0.4-2-1.1c-1.2-1.9-2.4-3.9-3.6-5.8c-0.6-1.2-0.2-2.6,1-3.3c1.1-0.6,2.5-0.2,3.2,0.8
			c1.1,1.9,2.3,3.8,3.5,5.7c0.7,1.1,0.4,2.6-0.7,3.3l0,0C1360.8,468.8,1360.3,468.9,1359.8,468.9L1359.8,468.9z M1782.5,459.3
			c-0.4,0-0.8-0.1-1.2-0.3c-1.2-0.7-1.6-2.1-0.9-3.3l0,0c1.1-1.9,2.2-3.9,3.3-5.9c0.6-1.2,2.1-1.6,3.3-1s1.6,2.1,1,3.3
			c-1.1,2-2.2,4-3.3,6C1784.1,458.8,1783.3,459.3,1782.5,459.3L1782.5,459.3z M1352.9,457.3c-0.9,0-1.7-0.5-2.1-1.2
			c-1.1-2-2.2-4-3.3-6c-0.6-1.2-0.1-2.7,1.2-3.2c1.1-0.5,2.5-0.1,3.1,1c1,2,2.1,3.9,3.2,5.9c0.7,1.2,0.3,2.6-0.9,3.3
			C1353.7,457.2,1353.3,457.3,1352.9,457.3L1352.9,457.3z M1788.9,447.3c-0.4,0-0.7-0.1-1.1-0.3c-1.2-0.6-1.7-2.1-1.1-3.2l0,0
			c1-2,2-4,2.9-6c0.6-1.2,2.1-1.6,3.3-1c1.1,0.6,1.6,1.9,1.1,3.1c-1,2.1-2,4.1-3,6.2C1790.6,446.8,1789.8,447.3,1788.9,447.3
			L1788.9,447.3z M1346.6,445.3c-0.9,0-1.8-0.5-2.2-1.4c-1-2-2-4.1-2.9-6.1c-0.5-1.2,0.1-2.6,1.4-3.1c1.2-0.5,2.5,0,3,1.1
			c0.9,2,1.9,4,2.9,6c0.6,1.2,0.1,2.7-1.1,3.2C1347.3,445.2,1346.9,445.3,1346.6,445.3L1346.6,445.3z M1794.6,435.1
			c-1.3,0-2.4-1.1-2.4-2.4c0-0.3,0.1-0.6,0.2-0.9c0.9-2,1.8-4.1,2.6-6.2c0.4-1.3,1.8-1.9,3.1-1.5c1.3,0.4,1.9,1.8,1.5,3.1
			c0,0.1-0.1,0.2-0.1,0.3c-0.8,2.1-1.8,4.2-2.7,6.3C1796.5,434.5,1795.6,435.1,1794.6,435.1L1794.6,435.1z M1340.9,433.1
			c-1,0-1.8-0.6-2.2-1.5c-0.9-2.1-1.8-4.2-2.6-6.3c-0.4-1.3,0.2-2.6,1.5-3.1c1.2-0.4,2.5,0.2,3,1.3c0.8,2.1,1.7,4.1,2.5,6.2
			c0.5,1.2,0,2.6-1.3,3.2l0,0C1341.6,433,1341.3,433.1,1340.9,433.1L1340.9,433.1z M1799.7,422.5c-0.3,0-0.6-0.1-0.8-0.1
			c-1.2-0.5-1.9-1.9-1.4-3.1c0.8-2.1,1.5-4.2,2.2-6.3c0.5-1.3,1.9-1.9,3.1-1.4c1.2,0.4,1.9,1.8,1.5,3c-0.7,2.1-1.5,4.3-2.3,6.5
			C1801.7,421.8,1800.8,422.5,1799.7,422.5L1799.7,422.5z M1336,420.5c-1,0-1.9-0.6-2.3-1.6c-0.8-2.1-1.5-4.3-2.2-6.5
			c-0.4-1.3,0.3-2.6,1.5-3c1.3-0.4,2.6,0.3,3,1.5l0,0c0.7,2.1,1.4,4.2,2.2,6.3c0.5,1.3-0.2,2.6-1.4,3.1l0,0
			C1336.5,420.4,1336.3,420.5,1336,420.5L1336,420.5z M1804.1,409.6c-0.2,0-0.5,0-0.7-0.1c-1.3-0.4-2-1.7-1.6-3
			c0.7-2.1,1.3-4.3,1.9-6.4c0.4-1.3,1.7-2,3-1.7c1.3,0.4,2,1.7,1.7,3l0,0c-0.6,2.2-1.3,4.4-1.9,6.5
			C1806.1,408.9,1805.2,409.6,1804.1,409.6L1804.1,409.6z M1331.7,407.6c-1.1,0-2-0.7-2.3-1.7c-0.7-2.2-1.3-4.4-1.9-6.6
			c-0.4-1.3,0.4-2.6,1.7-3c1.3-0.4,2.6,0.4,3,1.7c0,0,0,0,0,0.1c0.6,2.2,1.2,4.3,1.8,6.4c0.4,1.3-0.3,2.6-1.6,3
			C1332.2,407.6,1332,407.7,1331.7,407.6L1331.7,407.6z M1807.8,396.5c-0.2,0-0.4,0-0.6-0.1c-1.3-0.3-2.1-1.6-1.8-2.9
			c0.6-2.2,1.1-4.4,1.5-6.5c0.2-1.3,1.4-2.3,2.7-2.1c1.3,0.2,2.3,1.4,2.1,2.7c0,0.1,0,0.3-0.1,0.4c-0.5,2.2-1,4.4-1.6,6.6
			C1809.9,395.8,1808.9,396.6,1807.8,396.5L1807.8,396.5z M1328.2,394.5c-1.1,0-2.1-0.8-2.3-1.9c-0.5-2.2-1-4.4-1.5-6.7
			c-0.3-1.3,0.4-2.6,1.7-3c1.3-0.3,2.6,0.4,3,1.7c0,0.1,0,0.1,0,0.2c0.5,2.2,1,4.4,1.5,6.5c0.3,1.3-0.5,2.6-1.8,2.9l0,0
			C1328.6,394.6,1328.4,394.6,1328.2,394.5L1328.2,394.5z M1810.7,383.3c-0.2,0-0.3,0-0.5,0c-1.3-0.3-2.2-1.5-1.9-2.8
			c0.4-2.2,0.8-4.4,1.2-6.6c0.3-1.3,1.6-2.1,2.9-1.9c1.2,0.3,2,1.4,1.9,2.7c-0.4,2.2-0.8,4.5-1.2,6.7
			C1812.9,382.5,1811.9,383.4,1810.7,383.3L1810.7,383.3z M1325.3,381.3c-1.2,0-2.2-0.8-2.4-2c-0.4-2.2-0.8-4.5-1.2-6.7
			c-0.2-1.3,0.8-2.5,2.1-2.7c1.3-0.2,2.5,0.7,2.7,2c0.3,2.2,0.7,4.4,1.1,6.6c0.2,1.3-0.6,2.6-1.9,2.8l0,0
			C1325.7,381.3,1325.5,381.4,1325.3,381.3L1325.3,381.3z M1812.9,370h-0.3c-1.3-0.2-2.2-1.4-2.1-2.7l0,0c0.3-2.2,0.6-4.4,0.8-6.6
			c0.2-1.3,1.4-2.3,2.7-2.1c1.3,0.2,2.2,1.3,2.1,2.6c-0.2,2.2-0.5,4.5-0.8,6.8C1815.1,369.1,1814.1,370,1812.9,370L1812.9,370z
			 M1323.3,368c-1.2,0-2.2-0.9-2.4-2.1c-0.3-2.2-0.6-4.5-0.8-6.8c-0.2-1.3,0.7-2.6,2-2.7c1.3-0.2,2.6,0.7,2.7,2c0,0.1,0,0.1,0,0.2
			c0.2,2.2,0.5,4.5,0.8,6.7c0.2,1.3-0.8,2.5-2.1,2.7C1323.5,368,1323.4,368,1323.3,368L1323.3,368z M1814.4,356.6h-0.2
			c-1.3-0.1-2.2-1.3-2.2-2.6c0.2-2.2,0.3-4.5,0.4-6.7c0.1-1.3,1.2-2.4,2.5-2.3s2.4,1.2,2.3,2.5c-0.1,2.3-0.3,4.6-0.5,6.8
			C1816.7,355.7,1815.7,356.6,1814.4,356.6L1814.4,356.6z M1321.9,354.6c-1.3,0-2.3-1-2.4-2.2c-0.2-2.2-0.3-4.5-0.4-6.8
			c0-1.3,1.1-2.4,2.4-2.4s2.3,1,2.4,2.2c0.1,2.2,0.2,4.5,0.4,6.7c0.1,1.3-0.9,2.5-2.2,2.6l0,0h-0.2V354.6z M1815.1,343.1
			L1815.1,343.1c-1.4,0-2.5-1.1-2.4-2.5c0.1-2.2,0.1-4.5,0.1-6.7c0.5-0.8,0.5-1.8,0-2.6c0-2.2-0.1-4.5-0.2-6.7
			c-0.1-1.3,0.9-2.5,2.2-2.6c1.3-0.1,2.5,0.9,2.6,2.2c0,0.1,0,0.2,0,0.3c0.1,2.3,0.1,4.6,0.2,6.8c0,0.5-0.1,0.9-0.4,1.4
			c0.3,0.4,0.4,0.9,0.4,1.3c0,2.3,0,4.6-0.1,6.8C1817.5,342,1816.4,343.1,1815.1,343.1L1815.1,343.1z M1321.3,341.1
			c-1.3,0-2.4-1.1-2.4-2.4c0-1.6,0-3.2,0-4.8c0-0.7,0-1.4,0-2.1c-0.1-1.3,0.9-2.5,2.3-2.6s2.5,0.9,2.6,2.3c0,0.1,0,0.2,0,0.3
			c0,0.7,0,1.4,0,2c0,1.6,0,3.1,0,4.7C1323.7,339.9,1322.7,341,1321.3,341.1L1321.3,341.1z M1321.4,327.6L1321.4,327.6
			c-1.4-0.1-2.5-1.2-2.4-2.5l0,0c0.1-2.3,0.2-4.6,0.3-6.8c0.1-1.3,1.2-2.4,2.5-2.3s2.4,1.2,2.3,2.5v0.1c-0.1,2.2-0.2,4.5-0.3,6.7
			C1323.8,326.5,1322.8,327.5,1321.4,327.6L1321.4,327.6z M1814.6,320.2c-1.3,0-2.3-1-2.4-2.3c-0.1-2.2-0.3-4.5-0.5-6.7
			c-0.2-1.3,0.7-2.6,2-2.8c1.3-0.2,2.6,0.7,2.8,2c0,0.1,0,0.2,0,0.3c0.2,2.2,0.4,4.5,0.5,6.8c0.1,1.3-0.9,2.5-2.3,2.6h-0.1V320.2z
			 M1322.3,314h-0.2c-1.3-0.1-2.3-1.3-2.2-2.6c0.2-2.2,0.4-4.5,0.7-6.8c0.2-1.3,1.5-2.2,2.8-2c1.2,0.2,2.1,1.3,2,2.5
			c-0.2,2.2-0.5,4.5-0.7,6.7C1324.6,313,1323.5,314,1322.3,314z M1813.5,306.7c-1.2,0-2.3-0.9-2.4-2.1c-0.3-2.2-0.6-4.4-0.9-6.6
			c-0.1-1.3,0.9-2.5,2.2-2.6c1.2-0.1,2.3,0.7,2.6,1.9c0.3,2.2,0.6,4.5,0.9,6.8c0.2,1.3-0.8,2.5-2.1,2.7l0,0L1813.5,306.7z
			 M1323.9,300.6h-0.3c-1.3-0.2-2.2-1.4-2-2.7c0.3-2.2,0.7-4.5,1.1-6.8c0.2-1.3,1.5-2.2,2.8-2s2.2,1.5,2,2.8
			c-0.4,2.2-0.7,4.4-1.1,6.6C1326.1,299.7,1325.1,300.6,1323.9,300.6L1323.9,300.6z M1811.5,293.3c-1.2,0-2.2-0.8-2.4-2
			c-0.4-2.2-0.8-4.4-1.2-6.6c-0.3-1.3,0.6-2.6,1.9-2.9s2.6,0.6,2.9,1.9c0.4,2.2,0.9,4.5,1.3,6.7c0.2,1.3-0.7,2.6-2,2.8l0,0
			C1811.7,293.3,1811.6,293.3,1811.5,293.3L1811.5,293.3z M1326.2,287.2c-0.2,0-0.3,0-0.5,0c-1.3-0.3-2.2-1.5-1.9-2.8l0,0
			c0.4-2.2,0.9-4.5,1.4-6.7c0.4-1.3,1.7-2,3-1.7c1.2,0.3,1.9,1.5,1.7,2.7c-0.5,2.2-1,4.4-1.4,6.5
			C1328.3,286.5,1327.3,287.3,1326.2,287.2L1326.2,287.2z M1808.8,280c-1.1,0-2.1-0.8-2.3-1.9c-0.5-2.2-1.1-4.4-1.6-6.5
			c-0.3-1.3,0.4-2.6,1.7-3c1.3-0.3,2.6,0.4,3,1.7l0,0c0.6,2.2,1.1,4.4,1.7,6.6c0.3,1.3-0.5,2.6-1.8,2.9
			C1809.1,280,1809,280,1808.8,280L1808.8,280z M1329.2,274c-0.2,0-0.4,0-0.6-0.1c-1.3-0.3-2.1-1.7-1.7-3c0.6-2.2,1.2-4.4,1.8-6.6
			c0.4-1.3,1.7-2,3-1.6s2,1.7,1.7,3c-0.6,2.1-1.2,4.3-1.8,6.5C1331.3,273.3,1330.3,274.1,1329.2,274L1329.2,274z M1805.3,267
			c-1.1,0-2-0.7-2.3-1.7c-0.6-2.1-1.3-4.3-2-6.4c-0.5-1.2,0.1-2.6,1.4-3.1c1.2-0.5,2.6,0.1,3.1,1.4c0,0.1,0.1,0.2,0.1,0.3
			c0.7,2.2,1.4,4.4,2,6.5c0.4,1.3-0.4,2.6-1.6,3C1805.8,267,1805.6,267,1805.3,267z M1333,261.1c-0.3,0-0.5,0-0.7-0.1
			c-1.2-0.4-1.9-1.7-1.6-3c0.7-2.2,1.4-4.4,2.2-6.5c0.4-1.3,1.8-1.9,3.1-1.5s1.9,1.8,1.5,3.1c-0.7,2.1-1.5,4.2-2.1,6.4
			C1335,260.4,1334,261.1,1333,261.1z M1801.2,254.1c-1,0-1.9-0.6-2.3-1.6c-0.7-2.1-1.5-4.2-2.3-6.3c-0.4-1.3,0.3-2.6,1.6-3
			c1.2-0.4,2.4,0.2,2.9,1.3c0.8,2.1,1.6,4.3,2.4,6.4c0.5,1.3-0.2,2.6-1.4,3.1c0,0,0,0-0.1,0C1801.7,254.1,1801.5,254.1,1801.2,254.1
			L1801.2,254.1z M1337.5,248.3c-0.3,0-0.6-0.1-0.9-0.2c-1.2-0.5-1.9-1.9-1.4-3.1l0,0c0.8-2.1,1.7-4.3,2.5-6.4
			c0.5-1.3,1.9-1.9,3.1-1.4c1.3,0.5,1.9,1.9,1.4,3.1c0,0,0,0.1-0.1,0.1c-0.9,2.1-1.7,4.2-2.5,6.2
			C1339.4,247.7,1338.5,248.3,1337.5,248.3L1337.5,248.3z M1796.4,241.5c-1,0-1.9-0.6-2.2-1.5c-0.8-2-1.7-4.1-2.7-6.1
			c-0.6-1.2,0-2.7,1.2-3.2c1.2-0.6,2.7,0,3.2,1.2c0.9,2.1,1.8,4.2,2.7,6.2c0.5,1.2-0.1,2.6-1.3,3.2
			C1797,241.4,1796.7,241.5,1796.4,241.5L1796.4,241.5z M1342.7,235.7c-1.3,0-2.4-1.1-2.4-2.4c0-0.3,0.1-0.7,0.2-1
			c0.9-2.1,1.9-4.2,2.9-6.2c0.6-1.2,2-1.7,3.2-1.1s1.7,2,1.1,3.2c-1,2-1.9,4.1-2.8,6.1C1344.5,235.2,1343.6,235.8,1342.7,235.7
			L1342.7,235.7z M1790.9,229.2c-0.9,0-1.8-0.5-2.2-1.4c-1-2-2-4-3-6c-0.7-1.1-0.3-2.6,0.8-3.3c1.1-0.7,2.6-0.3,3.3,0.8
			c0.1,0.1,0.1,0.2,0.1,0.3c1,2,2.1,4.1,3,6.1c0.6,1.2,0.1,2.6-1.1,3.2C1791.5,229.1,1791.2,229.2,1790.9,229.2L1790.9,229.2z
			 M1348.5,223.5c-1.3,0-2.4-1.1-2.4-2.4c0-0.4,0.1-0.8,0.3-1.1c1-2,2.1-4.1,3.2-6c0.6-1.2,2.1-1.6,3.3-0.9c1.2,0.6,1.6,2.1,0.9,3.3
			c-1.1,2-2.1,3.9-3.2,5.9C1350.3,223,1349.4,223.5,1348.5,223.5L1348.5,223.5z M1784.7,217.2c-0.9,0-1.7-0.5-2.1-1.2
			c-1.1-1.9-2.2-3.9-3.3-5.8c-0.7-1.1-0.4-2.6,0.7-3.3s2.6-0.4,3.3,0.7c0,0.1,0.1,0.1,0.1,0.2c1.2,2,2.3,4,3.4,5.9
			c0.6,1.2,0.2,2.6-1,3.3l0,0C1785.4,217.1,1785,217.2,1784.7,217.2L1784.7,217.2z M1355,211.6c-1.3,0-2.4-1.1-2.3-2.5
			c0-0.4,0.1-0.8,0.3-1.2c1.1-2,2.3-3.9,3.5-5.9c0.7-1.1,2.2-1.5,3.3-0.8c1.1,0.7,1.5,2.2,0.8,3.3l0,0c-1.2,1.9-2.3,3.8-3.5,5.7
			C1356.7,211.2,1355.9,211.7,1355,211.6z M1777.7,205.6c-0.8,0-1.6-0.4-2-1.1c-1.2-1.9-2.4-3.8-3.6-5.6c-0.6-1.2-0.2-2.6,1-3.3
			c1-0.5,2.3-0.3,3,0.6c1.2,1.9,2.5,3.8,3.7,5.7c0.7,1.1,0.4,2.6-0.8,3.3l0,0C1778.7,205.4,1778.2,205.6,1777.7,205.6L1777.7,205.6z
			 M1362.2,200.1c-1.3,0-2.4-1.1-2.4-2.4c0-0.5,0.1-0.9,0.4-1.3c1.2-1.9,2.6-3.8,3.8-5.6c0.8-1.1,2.3-1.4,3.4-0.6s1.4,2.3,0.6,3.4
			c-1.3,1.8-2.5,3.7-3.8,5.5C1363.8,199.8,1363,200.2,1362.2,200.1L1362.2,200.1z M1770.3,194.3c-0.8,0-1.5-0.4-2-1
			c-1.3-1.8-2.6-3.6-3.9-5.4c-0.9-1-0.7-2.5,0.3-3.4s2.5-0.7,3.4,0.3c0.1,0.1,0.1,0.2,0.2,0.2c1.3,1.8,2.7,3.7,4,5.5
			c0.8,1.1,0.5,2.6-0.6,3.4C1771.2,194.2,1770.8,194.3,1770.3,194.3L1770.3,194.3z M1370,189.1c-0.5,0-1-0.2-1.4-0.5
			c-1.1-0.8-1.3-2.3-0.5-3.4l0,0c1.3-1.8,2.8-3.6,4.2-5.4c0.8-1,2.4-1.2,3.4-0.4s1.2,2.4,0.4,3.4c-1.4,1.8-2.8,3.5-4.1,5.3
			C1371.5,188.7,1370.8,189.1,1370,189.1z M1762.2,183.5c-0.7,0-1.4-0.3-1.9-0.9c-1.4-1.8-2.8-3.5-4.2-5.2c-0.8-1.1-0.6-2.6,0.5-3.4
			c1-0.8,2.4-0.6,3.2,0.3c1.4,1.7,2.9,3.5,4.3,5.3c0.8,1,0.6,2.6-0.4,3.4C1763.3,183.3,1762.8,183.5,1762.2,183.5z M1378.4,178.5
			c-0.6,0-1.1-0.2-1.6-0.6c-1-0.9-1.2-2.4-0.3-3.4c1.5-1.8,3-3.5,4.4-5.2c0.8-1.1,2.3-1.2,3.4-0.4s1.2,2.3,0.4,3.4
			c-0.1,0.1-0.1,0.1-0.2,0.2c-1.5,1.7-2.9,3.4-4.3,5.1C1379.8,178.1,1379.1,178.4,1378.4,178.5L1378.4,178.5z M1753.6,173.2
			c-0.7,0-1.4-0.3-1.8-0.8c-1.5-1.7-3-3.3-4.5-5c-0.9-1-0.9-2.5,0.1-3.4s2.5-0.9,3.4,0.1l0,0c1.5,1.6,3.1,3.4,4.6,5.1
			c0.9,1,0.8,2.5-0.2,3.4C1754.7,172.9,1754.2,173.1,1753.6,173.2L1753.6,173.2z M1387.3,168.3c-1.3,0-2.4-1.1-2.4-2.4
			c0-0.6,0.2-1.2,0.7-1.7c1.6-1.7,3.1-3.3,4.7-4.9c0.9-0.9,2.5-1,3.4,0c0.9,0.9,1,2.5,0,3.4c-1.5,1.6-3.1,3.2-4.6,4.8
			C1388.6,168,1388,168.3,1387.3,168.3L1387.3,168.3z M1744.3,163.2c-0.6,0-1.3-0.3-1.7-0.7c-1.6-1.6-3.2-3.2-4.8-4.7
			c-1-0.9-1.1-2.4-0.3-3.4c0.9-1,2.4-1.1,3.4-0.3c0.1,0.1,0.2,0.1,0.2,0.2c1.6,1.6,3.3,3.2,4.9,4.8c0.9,1,0.9,2.5,0,3.4
			C1745.6,163,1745,163.2,1744.3,163.2z M1396.8,158.7c-1.3,0-2.4-1.1-2.4-2.4c0-0.7,0.3-1.3,0.7-1.7c1.6-1.6,3.3-3.1,5-4.7
			c0.9-0.9,2.5-1,3.4,0s1,2.5,0,3.4c-0.1,0.1-0.1,0.1-0.2,0.2c-1.6,1.5-3.3,3-4.9,4.6C1398,158.4,1397.4,158.6,1396.8,158.7
			L1396.8,158.7z M1734.6,153.9c-0.6,0-1.2-0.2-1.6-0.6c-1.7-1.5-3.3-3-5-4.4c-1-0.9-1.1-2.4-0.3-3.4s2.4-1.1,3.4-0.3
			c1.7,1.5,3.4,3,5.1,4.5c1,0.9,1.1,2.4,0.2,3.4l0,0C1735.9,153.6,1735.3,153.8,1734.6,153.9L1734.6,153.9z M1406.7,149.6
			c-1.3,0-2.4-1.1-2.4-2.4c0-0.7,0.3-1.4,0.8-1.8c1.7-1.5,3.5-3,5.2-4.4c1-0.9,2.5-0.8,3.4,0.1c0.9,1,0.8,2.5-0.1,3.4
			c-0.1,0.1-0.1,0.1-0.2,0.2c-1.7,1.4-3.4,2.9-5.1,4.3C1407.9,149.3,1407.3,149.5,1406.7,149.6L1406.7,149.6z M1724.4,145
			c-0.6,0-1.1-0.2-1.5-0.5c-1.7-1.4-3.5-2.8-5.2-4.2c-1.1-0.8-1.2-2.4-0.4-3.4c0.8-1.1,2.4-1.2,3.4-0.4c1.8,1.4,3.6,2.8,5.3,4.2
			c1,0.8,1.2,2.4,0.3,3.4l0,0C1725.8,144.7,1725.1,145,1724.4,145z M1417.2,141c-1.3,0-2.4-1.1-2.4-2.4c0-0.8,0.3-1.5,0.9-1.9
			c1.8-1.4,3.6-2.8,5.4-4.1c1.1-0.8,2.6-0.5,3.4,0.6c0.7,1.1,0.5,2.5-0.5,3.3c-1.8,1.3-3.6,2.6-5.3,4
			C1418.3,140.8,1417.8,140.9,1417.2,141L1417.2,141z M1713.6,136.8c-0.5,0-1-0.2-1.4-0.5c-1.8-1.3-3.7-2.6-5.5-3.9
			c-1.1-0.8-1.4-2.3-0.6-3.4s2.3-1.4,3.4-0.6l0,0c1.9,1.3,3.7,2.6,5.6,4c1.1,0.8,1.3,2.3,0.5,3.4
			C1715.1,136.4,1714.4,136.8,1713.6,136.8L1713.6,136.8z M1428.1,133c-1.3,0-2.4-1.1-2.4-2.4c0-0.8,0.4-1.5,1-2
			c1.9-1.3,3.8-2.6,5.7-3.8c1.1-0.7,2.6-0.4,3.3,0.7c0.7,1.1,0.4,2.6-0.7,3.3c-1.9,1.2-3.7,2.5-5.6,3.7
			C1429.1,132.8,1428.6,133,1428.1,133z M1702.5,129c-0.5,0-0.9-0.1-1.3-0.4c-1.9-1.2-3.8-2.4-5.7-3.6c-1.1-0.7-1.4-2.2-0.7-3.3
			c0.7-1.1,2.1-1.4,3.2-0.8c2,1.2,3.9,2.4,5.8,3.6c1.1,0.7,1.4,2.2,0.7,3.3C1704.1,128.6,1703.3,129,1702.5,129z M1439.5,125.6
			c-1.3,0-2.4-1.1-2.4-2.4c0-0.8,0.4-1.6,1.2-2.1c1.9-1.2,3.9-2.3,5.9-3.5c1.2-0.6,2.6-0.1,3.3,1.1c0.6,1.1,0.2,2.5-0.8,3.1
			c-1.9,1.1-3.9,2.3-5.8,3.4C1440.4,125.5,1439.9,125.6,1439.5,125.6L1439.5,125.6z M1690.9,122c-0.4,0-0.8-0.1-1.2-0.3
			c-2-1.1-3.9-2.2-5.9-3.3c-1.2-0.6-1.7-2-1.1-3.2s2-1.7,3.2-1.1c0.1,0,0.1,0.1,0.2,0.1c2,1.1,4,2.2,6,3.3c1.2,0.7,1.6,2.1,0.9,3.3
			C1692.6,121.5,1691.8,122,1690.9,122L1690.9,122z M1451.2,118.9c-1.3,0-2.4-1.1-2.4-2.4c0-0.9,0.5-1.7,1.3-2.1c2-1.1,4-2.1,6-3.2
			c1.2-0.6,2.6-0.1,3.2,1.1s0.1,2.6-1.1,3.2l0,0c-2,1-4,2-5.9,3.1C1451.9,118.8,1451.5,118.9,1451.2,118.9L1451.2,118.9z
			 M1679,115.5c-0.4,0-0.8-0.1-1.1-0.3c-2-1-4-2-6-2.9c-1.2-0.6-1.7-2-1.2-3.2c0.6-1.2,2-1.7,3.2-1.2c2.1,1,4.2,2,6.2,3
			c1.2,0.6,1.7,2,1.1,3.2C1680.8,115,1680,115.6,1679,115.5L1679,115.5z M1463.2,112.8c-1.3,0-2.4-1.1-2.4-2.4
			c0-0.9,0.6-1.8,1.4-2.2c2-1,4.1-1.9,6.2-2.8c1.2-0.6,2.7-0.1,3.2,1.1s0.1,2.7-1.1,3.2c-0.1,0-0.1,0.1-0.2,0.1
			c-2,0.9-4.1,1.8-6.1,2.8C1463.9,112.7,1463.6,112.8,1463.2,112.8L1463.2,112.8z M1666.7,109.8c-0.3,0-0.7-0.1-1-0.2
			c-2-0.9-4.1-1.8-6.2-2.6c-1.2-0.5-1.8-1.9-1.3-3.1s1.9-1.8,3.1-1.3c2.1,0.9,4.2,1.8,6.3,2.7c1.2,0.5,1.8,2,1.2,3.2
			C1668.5,109.2,1667.6,109.8,1666.7,109.8L1666.7,109.8z M1475.6,107.4c-1.3,0-2.4-1.1-2.4-2.4c0-1,0.6-1.9,1.5-2.2
			c2.1-0.8,4.2-1.7,6.4-2.5c1.2-0.5,2.6,0.2,3.1,1.4c0.5,1.2-0.2,2.6-1.4,3.1l0,0c-2.1,0.8-4.2,1.6-6.2,2.4
			C1476.2,107.3,1475.9,107.4,1475.6,107.4L1475.6,107.4z M1654.1,104.7c-0.3,0-0.6-0.1-0.8-0.2c-2.1-0.8-4.2-1.5-6.3-2.2
			c-1.3-0.4-1.9-1.8-1.5-3.1c0.4-1.3,1.8-1.9,3.1-1.5l0,0c2.2,0.7,4.3,1.5,6.4,2.3c1.3,0.4,1.9,1.8,1.5,3.1
			C1656.1,104.1,1655.2,104.7,1654.1,104.7L1654.1,104.7z M1488.2,102.6c-1.3,0-2.4-1.1-2.4-2.5c0-1,0.7-1.9,1.6-2.2
			c2.2-0.7,4.3-1.5,6.5-2.1c1.3-0.4,2.6,0.3,3.1,1.5c0.4,1.3-0.3,2.6-1.5,3.1h-0.1c-2.1,0.7-4.3,1.3-6.4,2.1
			C1488.8,102.6,1488.5,102.6,1488.2,102.6L1488.2,102.6z M1641.2,100.3c-0.2,0-0.5,0-0.7-0.1c-2.1-0.7-4.3-1.3-6.4-1.9
			c-1.3-0.3-2.1-1.6-1.8-2.9c0.3-1.3,1.6-2.1,2.9-1.8h0.1c2.2,0.6,4.4,1.3,6.6,1.9c1.3,0.4,2,1.8,1.6,3
			C1643.2,99.7,1642.3,100.3,1641.2,100.3L1641.2,100.3z M1501.1,98.6c-1.3,0-2.4-1.1-2.4-2.4c0-1.1,0.7-2,1.7-2.3
			c2.2-0.6,4.4-1.2,6.6-1.8c1.3-0.3,2.6,0.5,2.9,1.7c0.3,1.3-0.5,2.6-1.8,2.9c-2.2,0.6-4.3,1.1-6.5,1.7
			C1501.6,98.6,1501.4,98.6,1501.1,98.6L1501.1,98.6z M1628.2,96.7c-0.2,0-0.4,0-0.6-0.1c-2.1-0.5-4.3-1.1-6.5-1.5
			c-1.3-0.2-2.3-1.4-2.1-2.7s1.4-2.3,2.7-2.1c0.1,0,0.3,0,0.4,0.1c2.2,0.5,4.5,1,6.7,1.6c1.3,0.3,2.1,1.7,1.7,3
			C1630.2,96,1629.3,96.7,1628.2,96.7L1628.2,96.7z M1514.2,95.3c-1.3,0-2.4-1.1-2.4-2.4c0-1.1,0.8-2.1,1.9-2.3
			c2.2-0.5,4.5-1,6.7-1.4c1.3-0.2,2.6,0.7,2.8,2c0.2,1.3-0.6,2.5-1.9,2.8c-2.2,0.4-4.4,0.9-6.6,1.4
			C1514.6,95.3,1514.4,95.3,1514.2,95.3L1514.2,95.3z M1615,93.8c-0.2,0-0.3,0-0.5,0c-2.2-0.4-4.4-0.8-6.6-1.2
			c-1.3-0.1-2.3-1.3-2.1-2.7c0.1-1.3,1.3-2.3,2.7-2.1c0.1,0,0.2,0,0.3,0c2.2,0.4,4.5,0.8,6.7,1.2c1.3,0.3,2.2,1.5,1.9,2.9
			C1617.1,93,1616.1,93.8,1615,93.8L1615,93.8z M1527.5,92.7c-1.3,0-2.4-1.1-2.4-2.5c0-1.2,0.9-2.1,2-2.3c2.2-0.4,4.5-0.7,6.8-1
			c1.3-0.2,2.5,0.7,2.7,2.1s-0.7,2.5-2.1,2.7c-2.2,0.3-4.4,0.7-6.6,1C1527.8,92.7,1527.7,92.7,1527.5,92.7L1527.5,92.7z
			 M1601.7,91.6h-0.3c-2.2-0.3-4.4-0.6-6.7-0.8c-1.3-0.2-2.3-1.4-2.1-2.7c0.2-1.3,1.3-2.2,2.6-2.1c2.3,0.2,4.5,0.5,6.8,0.8
			c1.3,0.2,2.2,1.4,2,2.8C1603.8,90.8,1602.8,91.6,1601.7,91.6L1601.7,91.6z M1540.9,90.9c-1.3,0-2.4-1.1-2.4-2.5
			c0-1.2,0.9-2.2,2.1-2.4c2.2-0.2,4.5-0.5,6.8-0.7c1.3-0.2,2.5,0.8,2.7,2.1c0.2,1.3-0.8,2.5-2.1,2.7c-0.1,0-0.1,0-0.2,0
			c-2.2,0.2-4.5,0.4-6.7,0.6L1540.9,90.9z M1588.2,90.2h-0.2c-2.2-0.2-4.4-0.3-6.7-0.4c-1.3-0.1-2.3-1.3-2.2-2.6
			c0.1-1.3,1.2-2.2,2.4-2.2c2.3,0.1,4.6,0.3,6.8,0.5c1.3,0.1,2.4,1.2,2.3,2.5C1590.7,89.2,1589.5,90.2,1588.2,90.2L1588.2,90.2z
			 M1554.4,89.8c-1.3,0-2.4-1-2.5-2.3c0-1.3,1-2.4,2.3-2.5c2.2-0.1,4.5-0.2,6.8-0.3c1.3,0,2.4,1.2,2.4,2.5c0,1.2-1,2.2-2.2,2.3
			c-2.3,0.1-4.5,0.2-6.7,0.3H1554.4z M1574.7,89.5L1574.7,89.5c-2.2-0.1-4.3-0.1-6.5-0.1h-0.2c-1.3,0-2.4-1.1-2.4-2.4
			s1.1-2.4,2.4-2.4h0.3c2.2,0,4.4,0,6.5,0.1c1.3,0.1,2.3,1.3,2.2,2.6C1577,88.4,1576,89.4,1574.7,89.5L1574.7,89.5z"/>
		<circle class="st3" cx="1568.3" cy="333.9" r="210.8"/>
		<path class="st15" d="M1568.3,549.5c-119.1,0-215.6-96.5-215.6-215.6s96.5-215.6,215.6-215.6s215.6,96.5,215.6,215.6
			c0,57.2-22.7,112-63.2,152.5C1680.4,526.9,1625.5,549.7,1568.3,549.5z M1568.3,128c-113.6,0-205.9,92.4-205.9,205.9
			s92.4,205.9,205.9,205.9s205.9-92.4,205.9-205.9S1681.8,128,1568.3,128L1568.3,128z"/>
		<circle class="st3" cx="1568.3" cy="333.9" r="128.5"/>
		<path class="st15" d="M1568.3,467.3c-73.5,0-133.3-59.8-133.3-133.3s59.8-133.3,133.3-133.3s133.3,59.8,133.3,133.3
			S1641.8,467.3,1568.3,467.3z M1568.3,210.3c-68.3,0-123.7,55.4-123.7,123.7s55.4,123.7,123.7,123.7S1692,402.3,1692,334
			C1691.8,265.7,1636.5,210.3,1568.3,210.3L1568.3,210.3z"/>
		
			<ellipse transform="matrix(0.2323 -0.9726 0.9726 0.2323 879.2891 1781.775)" class="st13" cx="1568.3" cy="333.9" rx="49.8" ry="49.8"/>
		<path class="st15" d="M1568.3,388.5c-30.2,0-54.6-24.4-54.6-54.6s24.4-54.6,54.6-54.6s54.6,24.4,54.6,54.6l0,0
			C1622.8,364.1,1598.4,388.5,1568.3,388.5z M1568.3,289c-24.8,0-44.9,20.2-44.9,45s20.2,44.9,45,44.9s44.9-20.1,44.9-44.9
			C1613.2,309.1,1593.1,289,1568.3,289L1568.3,289z"/>
		
			<rect x="1566.8" y="158.4" transform="matrix(0.7071 -0.7071 0.7071 0.7071 395.7685 1281.6548)" class="st6" width="356.4" height="9.4"/>
		
			<linearGradient id="SVGID_00000177446836839632877290000006875933886225381537_" gradientUnits="userSpaceOnUse" x1="1567.2" y1="-1137.0284" x2="1638.8237" y2="-1137.0284" gradientTransform="matrix(1 0 0 1 0 1442)">
			<stop  offset="0" style="stop-color:#FFFFFF"/>
			<stop  offset="1" style="stop-color:#FFFFFF"/>
		</linearGradient>
		<path style="fill:url(#SVGID_00000177446836839632877290000006875933886225381537_);" d="M1620.3,269.7c3.8-3.8,21.8,14.2,18,18
			l-66.8,52.5c-1.1,0.9-2.8,0.7-3.7-0.4c-0.8-1-0.8-2.3,0-3.3L1620.3,269.7z"/>
		
			<linearGradient id="SVGID_00000018952053363733909480000007684133464730955165_" gradientUnits="userSpaceOnUse" x1="2989.5212" y1="3768.0232" x2="2958.1514" y2="4104.5728" gradientTransform="matrix(-0.7071 -0.7071 0.7071 -0.7071 1291.4515 4865.501)">
			<stop  offset="0" style="stop-color:#FFFFFF"/>
			<stop  offset="1" style="stop-color:#FFFFFF"/>
		</linearGradient>
		<path style="fill:url(#SVGID_00000018952053363733909480000007684133464730955165_);" d="M1874.2,40.6l33.9,3.4l-46.6,46.5
			c-15.3,15.2-36.5,22.9-58,20.7L1874.2,40.6z"/>
		
			<linearGradient id="SVGID_00000119803722665552168350000013533108325558293674_" gradientUnits="userSpaceOnUse" x1="-336.2169" y1="3769.2637" x2="-367.5869" y2="4105.8037" gradientTransform="matrix(0.71 0.71 0.71 -0.71 -605.96 2968.0901)">
			<stop  offset="0" style="stop-color:#FFFFFF"/>
			<stop  offset="1" style="stop-color:#FFFFFF"/>
		</linearGradient>
		<path style="fill:url(#SVGID_00000119803722665552168350000013533108325558293674_);" d="M1867.5,33.9L1864.1,0l-46.6,46.5
			c-15.3,15.2-22.9,36.5-20.7,58L1867.5,33.9z"/>
		<path class="st19" d="M280.8,672.2l-20.5,3.1c-6.4-7.4-14-13.8-22.4-18.8l-0.6-20.7c0-0.7-0.5-1.4-1.2-1.6l-23.7-7.5
			c-0.7-0.2-1.4,0-1.9,0.6L198.2,644c-9.8-0.7-19.7,0.1-29.2,2.6l-15-14.3c-0.5-0.5-1.3-0.6-2-0.3l-22,11.5c-0.6,0.3-1,1-0.9,1.8
			l3.1,20.5c-7.5,6.4-13.8,14-18.8,22.4l-20.7,0.6c-0.8,0-1.4,0.5-1.7,1.2l-7.5,23.7c-0.2,0.7,0,1.4,0.6,1.9l16.7,12.3
			c-0.7,9.8,0.2,19.6,2.6,29.2l-14.3,15c-0.5,0.5-0.6,1.3-0.3,2l11.5,22c0.3,0.6,1,1,1.8,0.9l20.5-3.1c6.4,7.4,14,13.8,22.4,18.8
			l0.6,20.7c0,0.7,0.5,1.4,1.2,1.6l23.7,7.5c0.7,0.2,1.4,0,1.9-0.6l12.3-16.7c9.8,0.7,19.6-0.1,29.1-2.6l15,14.2
			c0.5,0.5,1.3,0.6,2,0.3l22.1-11.5c0.6-0.3,1-1,0.9-1.8l-3.1-20.5c7.4-6.4,13.8-14,18.8-22.4l20.7-0.6c0.7,0,1.4-0.5,1.6-1.2
			l7.5-23.7c0.2-0.7,0-1.4-0.6-1.9L282,741.2c0.7-9.8-0.1-19.6-2.6-29.1l14.3-15.1c0.5-0.5,0.6-1.3,0.3-2l-11.5-22
			C282.2,672.4,281.5,672,280.8,672.2z"/>
		<path class="st0" d="M209.6,750.4c-8.8,10-24,11-34,2.2s-11-24-2.2-34s24-11,34-2.2c5.6,4.9,8.6,12.1,8.2,19.5
			C215.2,741.3,213.1,746.4,209.6,750.4z M176.4,721.4c-7.3,8.4-6.5,21.1,1.8,28.4c8.4,7.3,21.1,6.5,28.4-1.8s6.5-21.1-1.8-28.4
			c-7.6-6.7-19.1-6.7-26.7,0.1C177.5,720.1,176.9,720.7,176.4,721.4z"/>
		<path class="st20" d="M322.6,704.8c-0.7,0.9-2,1-2.8,0.3c-0.4-0.3-0.6-0.7-0.7-1.2c-0.6-2.6-1.3-5.2-2.1-7.8
			c-0.3-1.1,0.3-2.2,1.3-2.5c1.1-0.3,2.2,0.3,2.6,1.3c0.8,2.6,1.5,5.3,2.2,8C323.3,703.6,323.1,704.3,322.6,704.8z"/>
		<path class="st19" d="M296.2,820.4c-0.7,0.9-2,1-2.9,0.2s-1-2-0.2-2.9l0,0c3.2-4,6.2-8.1,9-12.4c0.6-0.9,1.9-1.2,2.8-0.6
			s1.2,1.9,0.6,2.8C302.6,811.9,299.5,816.2,296.2,820.4L296.2,820.4z M278.3,838.4l-0.2,0.2c-4.1,3.4-8.3,6.5-12.7,9.4
			c-0.9,0.6-2.2,0.3-2.8-0.6c-0.6-0.9-0.3-2.2,0.6-2.8c4.3-2.8,8.4-5.9,12.3-9.1c0.8-0.8,2.1-0.8,2.9,0
			C279.2,836.3,279.1,837.6,278.3,838.4L278.3,838.4z M316.9,785.2c-0.6,0.9-1.8,1.2-2.8,0.7c-0.9-0.6-1.2-1.8-0.7-2.8
			c1.9-4.8,3.5-9.6,4.8-14.6c0.3-1.1,1.4-1.8,2.5-1.5s1.8,1.4,1.5,2.5c-1.4,5.1-3,10.1-5,15C317.2,784.8,317.1,785,316.9,785.2
			L316.9,785.2z M243.4,859.4c-0.2,0.2-0.5,0.4-0.8,0.5c-4.9,2-9.9,3.7-15,5.1c-1.1,0.3-2.2-0.3-2.5-1.4c-0.3-1.1,0.3-2.2,1.4-2.5
			c4.9-1.4,9.8-3,14.5-5c1-0.5,2.2-0.2,2.7,0.7C244.3,857.7,244.1,858.7,243.4,859.4L243.4,859.4z M326,745.5
			c-0.7,0.9-1.9,1-2.8,0.4c-0.6-0.4-0.9-1.2-0.8-1.9l0.1-1.8c0.3-4.5,0.3-9,0.1-13.5c0-1.1,0.8-2.1,2-2.1c1.1,0,2.1,0.8,2.1,2l0,0
			c0.2,4.6,0.2,9.3-0.1,13.9c0,0.6-0.1,1.3-0.1,1.9C326.5,744.7,326.3,745.1,326,745.5z M203.7,868.8c-0.4,0.4-0.8,0.6-1.4,0.7
			c-5.3,0.4-10.5,0.5-15.8,0.3c-1.1,0-2-1-2-2.1s1-2,2.1-2c5.1,0.2,10.2,0.1,15.4-0.3c1.1-0.2,2.1,0.6,2.3,1.7
			C204.4,867.7,204.2,868.4,203.7,868.8z M163.1,865.8c-0.5,0.6-1.3,0.8-2,0.7c-5.1-1.2-10.2-2.7-15.2-4.4c-1.1-0.4-1.6-1.5-1.2-2.6
			c0.4-1.1,1.5-1.6,2.6-1.2c4.8,1.7,9.7,3.2,14.7,4.3c1.1,0.2,1.8,1.3,1.6,2.4v0.1C163.4,865.3,163.3,865.6,163.1,865.8L163.1,865.8
			z"/>
		<path class="st19" d="M125.1,850.7c-0.6,0.8-1.7,0.9-2.6,0.4c-2.4-1.4-4.7-2.9-7-4.4c-0.9-0.6-1.2-1.9-0.5-2.8
			c0.6-0.9,1.9-1.2,2.8-0.5l0,0c2.2,1.5,4.5,3,6.8,4.3c1,0.5,1.3,1.8,0.8,2.7v0.1C125.3,850.5,125.2,850.6,125.1,850.7z"/>
		<path class="st19" d="M62.6,764c-0.7,0.9-2,1-2.8,0.3c-0.4-0.3-0.6-0.7-0.7-1.2c-0.6-2.7-1.1-5.4-1.5-8.2
			c-0.2-1.1,0.6-2.1,1.7-2.3s2.1,0.6,2.3,1.7l0,0c0.4,2.6,0.9,5.3,1.5,7.9C63.2,762.8,63,763.5,62.6,764z"/>
		<path class="st19" d="M244,612.7c-0.6,0.7-1.5,0.9-2.3,0.5c-4.7-1.9-9.4-3.6-14.3-5c-1.1-0.3-1.7-1.4-1.4-2.5s1.4-1.7,2.5-1.4
			c5,1.4,9.9,3.1,14.7,5.1c1,0.4,1.5,1.6,1.2,2.6C244.3,612.3,244.2,612.5,244,612.7L244,612.7z M205,603.1
			c-0.4,0.5-1.1,0.8-1.7,0.7c-1.4-0.1-2.9-0.2-4.3-0.3c-3.6-0.2-7.2-0.3-10.8-0.2c-1.1,0-2.1-0.9-2.1-2s0.9-2.1,2-2.1
			c3.7-0.1,7.4,0,11.1,0.2c1.5,0.1,3,0.2,4.5,0.3c1.1,0,2,1,1.9,2.1C205.5,602.3,205.3,602.8,205,603.1L205,603.1z M59.7,731.1
			c-0.4,0.5-1,0.7-1.6,0.7c-1.1,0-2-0.9-2-2v-0.1c0-1,0.1-2,0.1-2.9c0.2-4.2,0.7-8.4,1.3-12.6c0.2-1.1,1.2-1.9,2.3-1.7
			s1.9,1.2,1.7,2.3c-0.6,4-1,8.1-1.3,12.2c-0.1,1-0.1,1.9-0.1,2.8C60.1,730.3,60,730.8,59.7,731.1L59.7,731.1z M165,605.5
			c-0.3,0.3-0.7,0.6-1.1,0.6c-4.9,1.1-9.8,2.4-14.6,4c-1.1,0.4-2.2-0.2-2.6-1.3c-0.4-1.1,0.2-2.2,1.3-2.6c4.9-1.7,9.9-3,15-4.1
			c1-0.3,2.2,0.2,2.5,1.3C165.8,604.2,165.6,605,165,605.5L165,605.5z M67.2,691.7c-0.6,0.9-1.8,1.2-2.8,0.6
			c-0.9-0.6-1.2-1.7-0.7-2.6c1.7-4.9,3.7-9.7,6-14.4c0.5-1,1.7-1.4,2.7-0.9s1.4,1.7,0.9,2.7l0,0c-2.2,4.5-4.2,9.2-5.8,13.9
			C67.5,691.3,67.4,691.5,67.2,691.7z M127.5,619.8c-0.2,0.2-0.3,0.3-0.5,0.4c-4.4,2.5-8.6,5.2-12.7,8.2c-0.9,0.7-2.2,0.5-2.8-0.5
			c-0.7-0.9-0.5-2.2,0.4-2.8c4.2-3.1,8.6-5.9,13.1-8.4c0.9-0.7,2.1-0.6,2.8,0.3C128.5,617.8,128.4,619.1,127.5,619.8L127.5,619.8z
			 M86.1,656.3c-0.7,0.9-2,1-2.9,0.3s-1-2-0.3-2.9l0,0c2.1-2.8,4.4-5.7,6.7-8.3l0,0c1.1-1.2,2.2-2.4,3.3-3.6c0.7-0.8,2-0.9,2.8-0.1
			c0,0,0,0,0.1,0.1c0.8,0.8,0.8,2.1,0.1,2.9c-1.1,1.1-2.2,2.3-3.2,3.5C90.4,650.8,88.2,653.5,86.1,656.3L86.1,656.3z"/>
		<path class="st20" d="M272.8,629.1c-0.7,0.8-1.9,1-2.8,0.3c-2.1-1.6-4.4-3.2-6.6-4.6c-0.9-0.6-1.2-1.9-0.6-2.8
			c0.6-0.9,1.9-1.2,2.8-0.6l0,0c2.3,1.5,4.6,3.1,6.8,4.8C273.3,626.9,273.5,628.2,272.8,629.1L272.8,629.1z"/>
		<path class="st0" d="M237.7,775.7c-22.6,25.8-61.8,28.4-87.6,5.8c-25.8-22.6-28.4-61.8-5.8-87.6c16.2-18.5,41.8-25.7,65.3-18.3
			c1.4,0.5,2.8,1,4.2,1.5c2.4,0.9,4.7,2,7,3.3l0.9,0.5c0.1,0.1,0.2,0.1,0.3,0.2c0.9,0.6,1.1,1.9,0.5,2.8c-0.6,0.9-1.9,1.1-2.8,0.5
			c-27.8-15.9-63.3-6.1-79.1,21.7c-1.8,3.2-3.4,6.6-4.5,10.1c-0.1,0.2-0.1,0.4-0.2,0.6s-0.1,0.4-0.2,0.5
			c-9.7,30.5,7.2,63.1,37.7,72.8s63.1-7.2,72.8-37.7c3.2-10.1,3.6-20.8,1.1-31.1c-0.3-1.1,0.4-2.2,1.4-2.4h0.1
			c0.6-0.2,1.3,0,1.8,0.5c0.3,0.3,0.5,0.6,0.6,1.1C256.1,740,251,760.6,237.7,775.7L237.7,775.7z"/>
		<g>
			<g>
				
					<image style="overflow:visible;" width="656" height="515" xlink:href="FCC494CA.png"  transform="matrix(0.48 0 0 0.48 73.5153 303.9879)">
				</image>
				<g>
					<defs>
						<path id="SVGID_00000155849136622510917810000014418598024913367709_" d="M104,308.4h253.8c14,0,25.4,11.4,25.4,25.4v186
							c0,14-11.4,25.4-25.4,25.4H104c-14,0-25.4-11.4-25.4-25.4v-186C78.6,319.7,90,308.4,104,308.4z"/>
					</defs>
					<clipPath id="SVGID_00000180343313096022515210000001843602349173207988_">
						<use xlink:href="#SVGID_00000155849136622510917810000014418598024913367709_"  style="overflow:visible;"/>
					</clipPath>
				</g>
			</g>
		</g>
		<g class="st21">
			<path class="st0" d="M98,389.6c0-12.8,9.4-21.9,22.7-21.9c5.6,0,10.9,1.6,15.3,4.7l-4.7,7.6c-3.4-2.2-6.8-3.2-10.4-3.2
				c-7.8,0-13.1,5.2-13.1,12.9c0,7.6,5.3,12.9,13.1,12.9c3.6,0,7-1.1,10.4-3.2l4.7,7.6c-4.4,3.1-9.7,4.7-15.3,4.7
				C107.3,411.5,98,402.4,98,389.6z"/>
			<path class="st0" d="M137.5,392.5c0-9.7,2.7-14.8,8.1-17.8c2.9-1.6,8.6-3.1,10.7-3.8c2-0.7,2.3-1.5,2.4-2.5h9.2
				c0,3.9-1.3,7-5.1,8.4c-2.8,1.1-9.4,2.2-12.8,3.8c-4.4,2-5.6,5.4-5.6,10.9h0.2c1.5-6.1,6.4-8.6,11.6-8.6c7.7,0,13.1,5.4,13.1,14
				c0,8.8-5.9,14.8-15.3,14.8C145,411.5,137.5,406.1,137.5,392.5z M160,396.8c0-4-2.9-6.5-6.4-6.5c-3.6,0-6.4,2.5-6.4,6.5
				s2.8,6.5,6.4,6.5C157.1,403.3,160,400.7,160,396.8z"/>
			<path class="st0" d="M200.7,396.7v2.4h-16.4c-1.6,0-2.3-0.1-3.2-0.7l-0.1,0.2l0.2,0.7c0.8,3.2,3.1,4.9,6.9,4.9
				c3.2,0,6.1-1.2,8-2.5l3,6.9c-3.4,2-6.8,3-11,3c-9.6,0-15.8-5.5-15.8-14.8c0-9.1,6.1-14.6,14.7-14.6
				C195.5,382.1,200.7,387.3,200.7,396.7z M180.8,394l0.1,0.2c0.4-0.4,1.4-0.5,2.5-0.5h6.1c1,0,1.9,0.1,2.3,0.5l0.1-0.1
				c-0.2-3.4-2.2-5.2-5.3-5.2C183.5,388.8,181.2,390.7,180.8,394z"/>
			<path class="st0" d="M236.6,396.8c0,9-5.2,14.7-12.7,14.7c-4.6,0-8.4-2.3-10.2-7.2l-0.2,0.1c0.4,2.2,0.5,3.7,0.5,5.4v12.8h-8.9
				v-39.7h8.9c0,2.2-0.2,4.4-0.7,6.2l0.2,0.1c1.8-4.1,4.9-7.2,10.2-7.2C231.2,382,236.6,387.7,236.6,396.8z M213.7,396.8
				c0,4.1,2.7,6.7,6.8,6.7s6.8-2.5,6.8-6.7s-2.8-6.7-6.8-6.7C216.4,390.1,213.7,392.7,213.7,396.8z"/>
		</g>
		<g class="st21">
			<path class="st0" d="M112.5,473c-0.6-1.3-1.2-2.2-1.4-3.8h-0.2c-0.1,1.7-0.5,2.6-1.1,4.1l-3.7,9.3h-9.7l12.4-28.3h2.3l6.1,11.9
				c0.7,1.2,1.1,2.2,1.3,3.4h0.2c0.2-1.2,0.7-2.2,1.3-3.4l6.1-11.9h2.3l12.4,28.3h-9.7l-3.6-9.3c-0.6-1.5-1-2.4-1.1-4.1h-0.2
				c-0.2,1.6-0.8,2.6-1.4,3.8l-5,10.1h-2.2L112.5,473z"/>
			<path class="st0" d="M169.1,465.1v17.6h-9.1c0-2.1,0.3-3.8,1-5.5l-0.3-0.2c-1.9,4.4-5.3,6.6-9.7,6.6c-5.9,0-9.9-3.8-9.9-9.7
				c0-5.8,4-9.5,10-9.5c4.3,0,7.5,1.7,9.5,5.2l0.2-0.1c-0.4-1.1-0.5-2.3-0.5-4.4c0-2.2-2.2-3.6-5.8-3.6c-2.5,0-4.4,0.2-8.5,0.9
				l-1.3-7.2c3.6-0.7,7.6-1,10.9-1C165.3,454,169.1,457.2,169.1,465.1z M150.8,473.2c0,2.1,1.6,3.5,3.8,3.5s3.9-1.5,3.9-3.5
				s-1.6-3.5-3.9-3.5S150.8,471.2,150.8,473.2z"/>
			<path class="st0" d="M206.4,468.8c0,9-5.2,14.7-12.7,14.7c-4.6,0-8.4-2.3-10.2-7.2l-0.2,0.1c0.4,2.2,0.5,3.7,0.5,5.4v12.8h-8.9
				v-39.7h8.9c0,2.2-0.2,4.4-0.7,6.2l0.2,0.1c1.8-4.1,4.9-7.2,10.2-7.2C201.1,454,206.4,459.7,206.4,468.8z M183.6,468.8
				c0,4.1,2.7,6.7,6.8,6.7c4.1,0,6.8-2.5,6.8-6.7s-2.8-6.7-6.8-6.7C186.3,462.1,183.6,464.7,183.6,468.8z"/>
			<path class="st0" d="M227.5,479.2l-1.4-4.3c-0.7-2.2-1.3-3.3-3.1-3.3h-1.3c-0.9,0-1.6-0.1-1.9-0.1l-0.1,0.1
				c0.2,0.7,0.3,1.3,0.3,2.5v8.5H211v-27.7h9.1v7.4c0,1.2-0.1,1.7-0.3,2.4l0.1,0.1c0.2-0.1,1-0.1,1.9-0.1h1.3c1.6,0,2.5-0.8,3.2-2.8
				l1.7-3.9c1-2.3,2.7-3.3,5.6-3.3h4.9v7h-0.5c-1.8,0-2.6,0.5-3.2,1.4l-0.9,2c-0.7,1.9-1.9,2.9-6.2,2.9v0.2c4.3,0.1,5.5,1.3,6.2,3.4
				l1,2.5c0.8,1.3,1.3,1.7,2.6,1.7h0.8v7h-5.1C229.8,482.8,228.2,481.5,227.5,479.2z"/>
			<path class="st0" d="M268.7,468.7v2.4h-16.4c-1.6,0-2.3-0.1-3.2-0.7l-0.1,0.2l0.2,0.7c0.8,3.2,3.1,4.9,6.9,4.9
				c3.2,0,6.1-1.2,8-2.5l3,6.9c-3.4,2-6.8,3-11,3c-9.6,0-15.8-5.5-15.8-14.8c0-9.1,6.1-14.6,14.7-14.6
				C263.4,454.1,268.7,459.3,268.7,468.7z M248.7,466l0.1,0.2c0.4-0.4,1.4-0.5,2.5-0.5h6.1c1,0,1.9,0.1,2.3,0.5l0.1-0.1
				c-0.2-3.4-2.2-5.2-5.3-5.2C251.4,460.8,249.2,462.7,248.7,466z"/>
			<path class="st0" d="M296.3,454.9v7.9h-7.4c-0.7,0-1.2,0-1.7-0.2l-0.1,0.1c0.2,0.5,0.3,1,0.3,1.6v18.5h-9.1v-18.5
				c0-0.5,0.1-1.1,0.3-1.6l-0.1-0.1c-0.5,0.2-1,0.2-1.7,0.2h-7.4v-7.9H296.3z"/>
		</g>
		<path class="st22" d="M296.6,260.9H789c24,0,43.4,19.4,43.4,43.4v515.2c0,24-19.4,43.4-43.4,43.4H296.6c-24,0-43.4-19.4-43.4-43.4
			V304.2C253.3,280.3,272.7,260.9,296.6,260.9z"/>
		<path class="st0" d="M324.5,278.5h437.6c24,0,43.4,19.4,43.4,43.4v481.6c0,24-19.4,43.4-43.4,43.4H324.5
			c-24,0-43.4-19.4-43.4-43.4V321.9C281.2,297.9,300.6,278.5,324.5,278.5z"/>
		<path class="st1" d="M315.3,294.5h313c9.1,0,16.5,7.4,16.5,16.5v3c0,9.1-7.4,16.5-16.5,16.5h-313c-9.1,0-16.5-7.4-16.5-16.5v-3
			C298.8,301.9,306.2,294.5,315.3,294.5z"/>
		
			<linearGradient id="SVGID_00000162312083403179620350000008124983266025790605_" gradientUnits="userSpaceOnUse" x1="661.88" y1="-1129" x2="691.4" y2="-1129" gradientTransform="matrix(1 0 0 1 0 1442)">
			<stop  offset="0" style="stop-color:#FFFFFF"/>
			<stop  offset="1" style="stop-color:#FFFFFF"/>
		</linearGradient>
		<path style="fill:url(#SVGID_00000162312083403179620350000008124983266025790605_);" d="M676.6,326.9c-8.1,0-14.8-6.2-14.8-13.9
			s6.6-13.9,14.8-13.9s14.8,6.2,14.8,13.9S684.8,326.9,676.6,326.9z M676.6,302.9c-6,0-10.9,4.5-10.9,10s4.9,10,10.9,10
			s10.9-4.5,10.9-10S682.6,303,676.6,302.9L676.6,302.9z"/>
		
			<linearGradient id="SVGID_00000000942138020590440780000003422816666290117028_" gradientUnits="userSpaceOnUse" x1="711.83" y1="-1129" x2="741.35" y2="-1129" gradientTransform="matrix(1 0 0 1 0 1442)">
			<stop  offset="0" style="stop-color:#FFFFFF"/>
			<stop  offset="1" style="stop-color:#FFFFFF"/>
		</linearGradient>
		<path style="fill:url(#SVGID_00000000942138020590440780000003422816666290117028_);" d="M726.6,326.9c-8.1,0-14.8-6.2-14.8-13.9
			s6.6-13.9,14.8-13.9s14.8,6.2,14.8,13.9S734.7,326.9,726.6,326.9z M726.6,302.9c-6,0-10.9,4.5-10.9,10s4.9,10,10.9,10
			s10.9-4.5,10.9-10S732.6,303,726.6,302.9L726.6,302.9z"/>
		
			<linearGradient id="SVGID_00000091708697829657325000000002428523106995136947_" gradientUnits="userSpaceOnUse" x1="761.79" y1="-1129" x2="791.31" y2="-1129" gradientTransform="matrix(1 0 0 1 0 1442)">
			<stop  offset="0" style="stop-color:#FFFFFF"/>
			<stop  offset="1" style="stop-color:#FFFFFF"/>
		</linearGradient>
		<path style="fill:url(#SVGID_00000091708697829657325000000002428523106995136947_);" d="M776.5,326.9c-8.1,0-14.8-6.2-14.8-13.9
			s6.6-13.9,14.8-13.9s14.8,6.2,14.8,13.9S784.7,326.9,776.5,326.9z M776.5,302.9c-6,0-10.9,4.5-10.9,10s4.9,10,10.9,10
			s10.9-4.5,10.9-10S782.6,303,776.5,302.9L776.5,302.9z"/>
		<path class="st11" d="M625.6,320.4H318.5c-4.2-0.2-7.5-3.7-7.3-7.9c0.1-4,3.3-7.2,7.3-7.3h307.1c4.2-0.2,7.7,3.1,7.9,7.3
			c0.2,4.2-3.1,7.7-7.3,7.9C626,320.4,625.8,320.4,625.6,320.4z"/>
		<path class="st13" d="M316.9,331.6l-34.7,35.3c-1.4,1.4-1.4,3.7,0,5c0.1,0.1,0.1,0.1,0.2,0.2l0.3,0.2c1.4,1.2,3.5,1,4.7-0.4l0,0
			l31.8-38.3L316.9,331.6z"/>
		
			<ellipse transform="matrix(0.9025 -0.4307 0.4307 0.9025 -102.5409 173.4482)" class="st12" cx="331.8" cy="313.2" rx="23" ry="22.6"/>
		<path class="st3" d="M321,290.5c-12.4,6.2-17.4,21.3-11.2,33.7s21.3,17.4,33.7,11.2c12.2-6.1,17.3-20.9,11.4-33.3
			C348.8,289.6,333.6,284.4,321,290.5L321,290.5z M341,332.5c-10.8,4.9-23.5,0.1-28.4-10.6s-0.1-23.5,10.6-28.4
			c10.6-4.8,23.2-0.3,28.2,10.3C356.5,314.6,351.9,327.4,341,332.5L341,332.5z"/>
		<path class="st26" d="M334.7,638.6h278.9c13.9,0,25.1,11.3,25.1,25.1V801c0,13.9-11.3,25.1-25.1,25.1H334.7
			c-13.9,0-25.1-11.3-25.1-25.1V663.7C309.5,649.9,320.8,638.6,334.7,638.6z"/>
		
			<linearGradient id="SVGID_00000146461620389425966980000005165566101659265209_" gradientUnits="userSpaceOnUse" x1="328.5" y1="-777.65" x2="630.1018" y2="-777.65" gradientTransform="matrix(1 0 0 1 0 1442)">
			<stop  offset="0" style="stop-color:#FFFFFF"/>
			<stop  offset="1" style="stop-color:#FFFFFF"/>
		</linearGradient>
		<path style="opacity:0.43;fill:url(#SVGID_00000146461620389425966980000005165566101659265209_);enable-background:new    ;" d="
			M621.3,673.2H337.4c-4.9,0-8.9-4-8.9-8.8c0-4.9,4-8.9,8.8-8.9l0,0h283.9c4.9,0,8.9,4,8.9,8.8C630.2,669.2,626.2,673.2,621.3,673.2
			L621.3,673.2z"/>
		
			<linearGradient id="SVGID_00000064338885708080322440000001361264851853117115_" gradientUnits="userSpaceOnUse" x1="328.3982" y1="-743.75" x2="629.8018" y2="-743.75" gradientTransform="matrix(1 0 0 1 0 1442)">
			<stop  offset="0" style="stop-color:#FFFFFF"/>
			<stop  offset="1" style="stop-color:#FFFFFF"/>
		</linearGradient>
		<path style="opacity:0.43;fill:url(#SVGID_00000064338885708080322440000001361264851853117115_);enable-background:new    ;" d="
			M621,707.1H337.2c-4.9,0-8.9-4-8.8-8.9c0-4.9,4-8.8,8.8-8.8H621c4.9,0,8.9,4,8.8,8.9C629.9,703.1,625.9,707.1,621,707.1z"/>
		
			<linearGradient id="SVGID_00000162349064279486379220000015870047955478927753_" gradientUnits="userSpaceOnUse" x1="329.3981" y1="-707.9037" x2="631.1074" y2="-707.9037" gradientTransform="matrix(1 0 0 1 0 1442)">
			<stop  offset="0" style="stop-color:#FFFFFF"/>
			<stop  offset="1" style="stop-color:#FFFFFF"/>
		</linearGradient>
		<path style="opacity:0.43;fill:url(#SVGID_00000162349064279486379220000015870047955478927753_);enable-background:new    ;" d="
			M621.9,743H338c-4.9-0.2-8.7-4.3-8.6-9.2c0.2-4.7,3.9-8.4,8.6-8.6h283.9c4.9-0.2,9,3.7,9.2,8.6c0.2,4.9-3.7,9-8.6,9.2
			C622.3,743,622.1,743,621.9,743z"/>
		
			<linearGradient id="SVGID_00000167374225651736988190000013122993723829307826_" gradientUnits="userSpaceOnUse" x1="328.8982" y1="-673.95" x2="630.4018" y2="-673.95" gradientTransform="matrix(1 0 0 1 0 1442)">
			<stop  offset="0" style="stop-color:#FFFFFF"/>
			<stop  offset="1" style="stop-color:#FFFFFF"/>
		</linearGradient>
		<path style="opacity:0.43;fill:url(#SVGID_00000167374225651736988190000013122993723829307826_);enable-background:new    ;" d="
			M621.6,776.9H337.7c-4.9,0-8.9-4-8.8-8.9c0-4.9,4-8.8,8.8-8.8h283.9c4.9,0,8.9,4,8.8,8.9C630.4,772.9,626.5,776.9,621.6,776.9z"/>
		
			<linearGradient id="SVGID_00000041294186653198561870000010039305627102114200_" gradientUnits="userSpaceOnUse" x1="328.4982" y1="-643.05" x2="630.1" y2="-643.05" gradientTransform="matrix(1 0 0 1 0 1442)">
			<stop  offset="0" style="stop-color:#FFFFFF"/>
			<stop  offset="1" style="stop-color:#FFFFFF"/>
		</linearGradient>
		<path style="opacity:0.43;fill:url(#SVGID_00000041294186653198561870000010039305627102114200_);enable-background:new    ;" d="
			M621.2,807.8H337.3c-4.9,0-8.9-4-8.8-8.9c0-4.9,4-8.8,8.8-8.8h283.9c4.9,0,8.9,4,8.9,8.8C630.1,803.8,626.1,807.8,621.2,807.8
			L621.2,807.8z"/>
		<path class="st1" d="M669.9,357.1h98.5c11.1,0,20.1,9,20.1,20.1v147.9c0,11.1-9,20.1-20.1,20.1h-98.5c-11.1,0-20.1-9-20.1-20.1
			V377.2C649.8,366.1,658.8,357.1,669.9,357.1z"/>
		<path class="st1" d="M669.9,561.9h98.5c11.1,0,20.1,9,20.1,20.1v224c0,11.1-9,20.1-20.1,20.1h-98.5c-11.1,0-20.1-9-20.1-20.1V582
			C649.8,570.9,658.8,561.9,669.9,561.9z"/>
		<path class="st3" d="M618,626.8H335.9c-4.9,0-8.9-4-8.8-8.9c0-4.9,4-8.8,8.8-8.8H618c4.9,0,8.9,4,8.8,8.9
			C626.8,622.9,622.9,626.8,618,626.8z"/>
		
			<linearGradient id="SVGID_00000007420793932371399630000001234268089321873810_" gradientUnits="userSpaceOnUse" x1="322.2" y1="1014.5" x2="626.8" y2="1014.5" gradientTransform="matrix(1 0 0 -1 0 1490)">
			<stop  offset="0" style="stop-color:#F7971D"/>
			<stop  offset="1" style="stop-color:#E43225"/>
		</linearGradient>
		<path style="fill:url(#SVGID_00000007420793932371399630000001234268089321873810_);" d="M347.6,357.1h253.8
			c14,0,25.4,11.4,25.4,25.4v186c0,14-11.4,25.4-25.4,25.4H347.6c-14,0-25.4-11.4-25.4-25.4v-186
			C322.2,368.5,333.6,357.1,347.6,357.1z"/>
		<g class="st21">
			<path class="st0" d="M354.5,452.6h1.9l20.7,42.8h-10.2l-3.9-8.8H348l-4,8.8h-10.2L354.5,452.6z M352.8,479.7h5.4
				c1.3,0,2,0.1,2.7,0.3l0.1-0.1c-0.5-0.6-1.1-1.6-1.6-2.8l-2.4-5.7c-0.8-2-1.3-3.4-1.3-4.3h-0.2c-0.1,1-0.4,2.3-1.3,4.3l-2.4,5.7
				c-0.6,1.3-1.1,2.2-1.7,2.8l0.1,0.1C350.7,479.7,351.5,479.7,352.8,479.7z"/>
			<path class="st0" d="M389.5,495.3h-9.1v-42.9h9.1V495.3z"/>
			<path class="st0" d="M405,463.4h-9.8v-10.1h9.8V463.4z M404.7,495.3h-9.1v-27.7h9.1V495.3z"/>
			<path class="st0" d="M437.7,461.6h-15.2c-1,0-1.4-0.1-1.7-0.3l-0.1,0.1c0.2,0.3,0.3,1,0.3,1.8v4.2c0,0.8-0.1,1.6-0.3,1.9l0.1,0.1
				c0.3-0.2,0.7-0.3,1.7-0.3h13.6v8.2h-13.6c-1,0-1.4-0.1-1.7-0.3l-0.1,0.1c0.2,0.3,0.3,1,0.3,1.8v6.5c0,0.8-0.1,1.5-0.3,1.8
				l0.1,0.1c0.3-0.2,0.7-0.3,1.7-0.3H438v8.3h-26.3v-42h26V461.6z"/>
			<path class="st0" d="M450.3,482.5c0.6-0.8,1.1-1.3,1.7-1.7v-0.2c-0.6-0.4-1.1-0.8-1.6-1.5l-8.8-11.5h10.7l3.2,4.7
				c1,1.4,1.4,2.4,1.7,3.9h0.2c0.2-1.5,0.7-2.5,1.6-3.9l3.2-4.7h10.7l-8.8,11.6c-0.5,0.7-1,1.1-1.6,1.5v0.2c0.7,0.4,1.1,0.8,1.7,1.7
				l9.7,12.8h-10.7l-4.6-6.2c-0.9-1.3-1.2-2.2-1.4-3.8h-0.2c-0.3,1.7-0.6,2.5-1.5,3.8l-4.4,6.2h-10.7L450.3,482.5z"/>
			<path class="st0" d="M509,481.5c0,9-5.2,14.7-12.7,14.7c-4.6,0-8.4-2.3-10.2-7.2l-0.2,0.1c0.4,2.2,0.5,3.7,0.5,5.4v12.8h-8.9
				v-39.7h8.9c0,2.2-0.2,4.4-0.7,6.2l0.2,0.1c1.8-4.1,4.9-7.2,10.2-7.2C503.7,466.7,509,472.4,509,481.5z M486.2,481.5
				c0,4.1,2.7,6.7,6.8,6.7s6.8-2.5,6.8-6.7s-2.8-6.7-6.8-6.7C488.9,474.8,486.2,477.4,486.2,481.5z"/>
			<path class="st0" d="M532.5,466.9v8.9c-1.4-0.1-1.9-0.1-2.7-0.1c-4.5,0-7.2,2.2-7.2,8.4v11.3h-9.1v-27.7h8.6
				c0,2.8-0.2,5.5-0.8,9.1l0.2,0.1c1.4-7,4.5-10,8.8-10C531.3,466.8,531.9,466.8,532.5,466.9z"/>
			<path class="st0" d="M561.8,481.4v2.4h-16.4c-1.6,0-2.3-0.1-3.2-0.7l-0.1,0.2l0.2,0.7c0.8,3.2,3.1,4.9,6.9,4.9
				c3.2,0,6.1-1.2,8-2.5l3,6.9c-3.4,2-6.8,3-11,3c-9.6,0-15.8-5.5-15.8-14.8c0-9.1,6.1-14.6,14.7-14.6
				C556.6,466.8,561.8,472,561.8,481.4z M541.9,478.7l0.1,0.2c0.4-0.4,1.4-0.5,2.5-0.5h6.1c1,0,1.9,0.1,2.3,0.5l0.1-0.1
				c-0.2-3.4-2.2-5.2-5.3-5.2C544.5,473.5,542.3,475.4,541.9,478.7z"/>
			<path class="st0" d="M562.8,493.4l3.4-7.1c2.9,1.9,6.2,2.9,9.5,2.9c1.9,0,2.7-0.3,2.7-1.3c0-1-0.8-1.2-1.9-1.6l-5-2
				c-4.4-1.7-6.5-4.6-6.5-8.6c0-5.3,3.9-8.9,11.6-8.9c3.2,0,6.5,0.6,10,1.8l-2.6,7c-2.8-1.3-5.8-1.9-7.9-1.9c-1.8,0-2.4,0.4-2.4,1.2
				c0,1,0.9,1.3,2.3,1.9l4.6,1.8c4,1.6,6.5,3.8,6.5,8.3c0,6.3-4.8,9.4-12.1,9.4C571.3,496.2,566.8,495.5,562.8,493.4z"/>
			<path class="st0" d="M588.2,493.4l3.4-7.1c2.9,1.9,6.2,2.9,9.5,2.9c1.9,0,2.7-0.3,2.7-1.3c0-1-0.8-1.2-1.9-1.6l-5-2
				c-4.4-1.7-6.5-4.6-6.5-8.6c0-5.3,3.9-8.9,11.6-8.9c3.2,0,6.5,0.6,10,1.8l-2.6,7c-2.8-1.3-5.8-1.9-7.9-1.9c-1.8,0-2.4,0.4-2.4,1.2
				c0,1,0.9,1.3,2.3,1.9l4.6,1.8c4,1.6,6.5,3.8,6.5,8.3c0,6.3-4.8,9.4-12.1,9.4C596.7,496.2,592.2,495.5,588.2,493.4z"/>
		</g>
		<path class="st33" d="M542.2,457.1h492.4c24,0,43.4,19.4,43.4,43.4v515.2c0,24-19.4,43.4-43.4,43.4H542.2
			c-24,0-43.4-19.4-43.4-43.4V500.5C498.8,476.5,518.2,457.1,542.2,457.1z"/>
		<path class="st1" d="M570.1,474.8h437.6c24,0,43.4,19.4,43.4,43.4v481.6c0,24-19.4,43.4-43.4,43.4H570.1
			c-24,0-43.4-19.4-43.4-43.4V518.1C526.7,494.2,546.1,474.8,570.1,474.8z"/>
		<path class="st11" d="M560.9,490.7h313c9.1,0,16.5,7.4,16.5,16.5v3c0,9.1-7.4,16.5-16.5,16.5h-313c-9.1,0-16.5-7.4-16.5-16.5v-3
			C544.3,498.1,551.7,490.7,560.9,490.7z"/>
		
			<linearGradient id="SVGID_00000115515380815730120200000007789498831949043853_" gradientUnits="userSpaceOnUse" x1="907.4" y1="-932.8" x2="936.93" y2="-932.8" gradientTransform="matrix(1 0 0 1 0 1442)">
			<stop  offset="0" style="stop-color:#FFFFFF"/>
			<stop  offset="1" style="stop-color:#FFFFFF"/>
		</linearGradient>
		<path style="fill:url(#SVGID_00000115515380815730120200000007789498831949043853_);" d="M922.2,523.1c-8.1,0-14.8-6.2-14.8-13.9
			s6.6-13.9,14.8-13.9s14.8,6.2,14.8,13.9S930.3,523.1,922.2,523.1z M922.2,499.2c-6,0-10.9,4.5-10.9,10s4.9,10,10.9,10
			s10.9-4.5,10.9-10S928.2,499.2,922.2,499.2z"/>
		
			<linearGradient id="SVGID_00000127756224845565047420000016588504675449208486_" gradientUnits="userSpaceOnUse" x1="957.36" y1="-932.8" x2="986.88" y2="-932.8" gradientTransform="matrix(1 0 0 1 0 1442)">
			<stop  offset="0" style="stop-color:#FFFFFF"/>
			<stop  offset="1" style="stop-color:#FFFFFF"/>
		</linearGradient>
		<path style="fill:url(#SVGID_00000127756224845565047420000016588504675449208486_);" d="M972.1,523.1c-8.1,0-14.8-6.2-14.8-13.9
			s6.6-13.9,14.8-13.9s14.8,6.2,14.8,13.9S980.3,523.1,972.1,523.1z M972.1,499.2c-6,0-10.9,4.5-10.9,10s4.9,10,10.9,10
			s10.9-4.5,10.9-10S978.1,499.2,972.1,499.2z"/>
		
			<linearGradient id="SVGID_00000021081363356023749850000008205823207936736657_" gradientUnits="userSpaceOnUse" x1="1007.3" y1="-932.8" x2="1036.8199" y2="-932.8" gradientTransform="matrix(1 0 0 1 0 1442)">
			<stop  offset="0" style="stop-color:#FFFFFF"/>
			<stop  offset="1" style="stop-color:#FFFFFF"/>
		</linearGradient>
		<path style="fill:url(#SVGID_00000021081363356023749850000008205823207936736657_);" d="M1022.1,523.1c-8.1,0-14.8-6.2-14.8-13.9
			s6.6-13.9,14.8-13.9c8.1,0,14.8,6.2,14.8,13.9S1030.2,523.1,1022.1,523.1z M1022.1,499.2c-6,0-10.9,4.5-10.9,10s4.9,10,10.9,10
			s10.9-4.5,10.9-10S1028.1,499.2,1022.1,499.2z"/>
		<path class="st11" d="M871.2,516.7H564c-4.2-0.2-7.5-3.7-7.3-7.9c0.1-4,3.3-7.2,7.3-7.3h307.2c4.2-0.2,7.7,3.1,7.9,7.3
			s-3.1,7.7-7.3,7.9C871.5,516.7,871.3,516.7,871.2,516.7z"/>
		<path class="st13" d="M562.5,527.8l-34.7,35.3c-1.4,1.4-1.4,3.6,0,5c0.1,0.1,0.1,0.1,0.2,0.2l0.3,0.2c1.4,1.2,3.5,1,4.7-0.4l0,0
			l31.8-38.3L562.5,527.8z"/>
		<path class="st12" d="M598.1,499.5c5.7,11.4,1.1,25.2-10.3,30.9c-11.4,5.7-25.2,1.1-30.9-10.3c-5.7-11.4-1.1-25.2,10.3-30.9
			c0.1-0.1,0.3-0.1,0.4-0.2C579,483.5,592.6,488.2,598.1,499.5L598.1,499.5z"/>
		
			<linearGradient id="SVGID_00000148624462060232365760000015994983786390374300_" gradientUnits="userSpaceOnUse" x1="566.8" y1="-496.05" x2="871.5" y2="-496.05" gradientTransform="matrix(1 0 0 1 0 1442)">
			<stop  offset="0" style="stop-color:#FFFFFF"/>
			<stop  offset="1" style="stop-color:#FFFFFF"/>
		</linearGradient>
		<path style="fill:url(#SVGID_00000148624462060232365760000015994983786390374300_);" d="M586.9,881.2h264.5
			c11.1,0,20.1,9,20.1,20.1v89.3c0,11.1-9,20.1-20.1,20.1H586.9c-11.1,0-20.1-9-20.1-20.1v-89.3
			C566.8,890.2,575.8,881.2,586.9,881.2z"/>
		<path class="st38" d="M590.7,574.6h253.8c14,0,25.4,11.4,25.4,25.4v186c0,14-11.4,25.4-25.4,25.4H590.7c-14,0-25.4-11.4-25.4-25.4
			V600C565.2,586,576.6,574.6,590.7,574.6z"/>
		<path class="st22" d="M862.7,851.8h-287c-4.9,0-8.9-4-8.9-8.8c0-4.9,4-8.9,8.8-8.9l0,0h287c4.9,0,8.9,4,8.9,8.8
			C871.5,847.8,867.6,851.8,862.7,851.8L862.7,851.8z"/>
		<g class="st21">
			<path class="st39" d="M614.4,647.8v50.4h-11.2v-17.5c0-1.5,0.2-2.8,0.6-3.8l-0.1-0.1c-0.2,0.1-0.6,0.3-1.1,0.4
				c-0.6,0.1-1.4,0.2-2.2,0.2l-15.6,20.8h-13.6l14.2-17.7c1.8-2.2,3.3-3.5,5.5-4.2v-0.1c-0.5,0.1-0.9,0.1-1.5,0.1
				c-5.7,0-12-5.2-12-14c0-8.6,5.8-14.4,17-14.4H614.4z M601.4,657.4H595c-3.7,0-5.9,2-5.9,5.5c0,3.7,2.2,5.7,5.9,5.7h6.5
				c1.2,0,1.7,0.1,2,0.4l0.1-0.1c-0.2-0.4-0.4-1.2-0.4-2.2v-7.3c0-1,0.1-1.8,0.4-2.2l-0.1-0.1C603.1,657.2,602.6,657.4,601.4,657.4z
				"/>
			<path class="st39" d="M667.5,698.2h-11.2v-19.6c0-1,0.1-1.8,0.4-2.2l-0.1-0.1c-0.4,0.2-0.9,0.4-2,0.4h-17.6c-1.2,0-1.7-0.1-2-0.4
				l-0.1,0.1c0.2,0.4,0.4,1.2,0.4,2.2v19.6h-11.2v-50.4h11.2v16.7c0,1-0.1,1.9-0.4,2.2l0.1,0.1c0.4-0.2,0.9-0.4,2-0.4h17.6
				c1.1,0,1.6,0.1,2,0.4l0.1-0.1c-0.2-0.4-0.4-1.2-0.4-2.2v-16.7h11.2V698.2z"/>
			<path class="st39" d="M672.6,689.3h4.3c1.2,0,1.7,0.1,2,0.4l0.1-0.1c0-0.9,0-1.5,0.5-2.2c2.9-6.6,4.8-14.4,4.8-26.6v-13h32.8
				v39.5c0,0.9-0.1,1.8-0.3,2.2l0.1,0.1c0.4-0.2,0.9-0.4,1.9-0.4h4.6v19h-10.4v-7.1c0-1,0.1-1.9,0.4-2.2l-0.1-0.1
				c-0.4,0.2-0.9,0.4-2,0.4h-26.5c-1.1,0-1.6-0.1-1.9-0.4l-0.1,0.1c0.1,0.4,0.3,1.2,0.3,2.2v7.1h-10.4V689.3z M692.4,689.3h12
				c1.2,0,1.7,0.1,2,0.4l0.1-0.1c-0.2-0.4-0.4-1.2-0.4-2.2v-27.7c0-1,0.1-1.9,0.4-2.2l-0.1-0.1c-0.4,0.2-0.9,0.4-2,0.4h-7.3
				c-1.1,0-1.6-0.1-1.9-0.4l-0.1,0.1c0.1,0.4,0.3,1.2,0.3,2.2v3.6c0,10.7-2.3,21.3-4.9,26.3l0.1,0.1
				C690.9,689.4,691.4,689.3,692.4,689.3z"/>
			<path class="st39" d="M760.7,657.7h-18.3c-1.2,0-1.7-0.1-2-0.4l-0.1,0.1c0.2,0.4,0.4,1.2,0.4,2.2v5c0,1-0.1,1.9-0.4,2.2l0.1,0.1
				c0.4-0.2,0.9-0.4,2-0.4h16.3v9.8h-16.3c-1.2,0-1.7-0.1-2-0.4l-0.1,0.1c0.2,0.4,0.4,1.2,0.4,2.2v7.8c0,0.9-0.1,1.8-0.4,2.2
				l0.1,0.1c0.4-0.2,0.9-0.4,2-0.4H761v9.9h-31.5v-50.4h31.3V657.7z"/>
			<path class="st39" d="M793.4,691.1l-1.8-8.8c-0.8-4.2-2.7-5.9-6.3-5.9h-3.7c-1.1,0-1.6-0.1-2-0.4l-0.1,0.1
				c0.2,0.4,0.4,1.3,0.4,2.3v19.7h-11.2v-50.4h11.2v17.7c0,1-0.1,1.9-0.4,2.3l0.1,0.1c0.4-0.3,0.9-0.4,2-0.4h3.7
				c3.4,0,5.3-1.8,6.3-6l1.9-7.3c1.2-4.8,4.4-6.8,10.7-6.8c2,0,3.8,0.1,5.5,0.3v10.1c-1.1-0.1-1.5-0.1-2.9-0.1c-2,0-3,0.8-3.5,2.7
				l-1.7,5.8c-1.2,4.5-3.5,5.5-12.2,5.7v0.3c9.1,0.1,12,1.7,13,6.7l1.1,4.7c0.6,3.4,1.6,4.4,4.1,4.4c1.2,0,2.2-0.1,3-0.2v10.7
				c-2.6,0.2-4.3,0.3-5.6,0.3C798.1,698.6,794.4,696.2,793.4,691.1z"/>
			<path class="st39" d="M811.5,673c0-15.3,11.2-26.3,27.3-26.3c6.7,0,13.1,1.9,18.4,5.6l-5.7,9.1c-4-2.6-8.1-3.9-12.5-3.9
				c-9.4,0-15.8,6.3-15.8,15.5c0,9.1,6.4,15.5,15.8,15.5c4.3,0,8.4-1.3,12.5-3.9l5.7,9.1c-5.3,3.7-11.7,5.6-18.4,5.6
				C822.8,699.3,811.5,688.3,811.5,673z"/>
		</g>
		<g class="st21">
			<path class="st39" d="M634.4,741.1c-0.8-1.8-1.1-2.6-1.2-4h-0.2c-0.1,1.4-0.3,2.4-0.8,4.1l-4.8,14.6h-8.1l12.5-34.1h1.3l8.1,18.1
				c0.6,1.4,0.7,2.1,0.9,3.3h0.2c0.1-1.2,0.2-1.9,0.9-3.3l8.1-18.1h1.3l12.5,34.1H657l-4.8-14.6c-0.5-1.7-0.7-2.7-0.8-4.1h-0.2
				c-0.1,1.4-0.3,2.2-1.2,4l-7.2,15h-1.1L634.4,741.1z"/>
			<path class="st39" d="M682.6,721.6h1.5l16.6,34.2h-8.2l-3.1-7h-12l-3.2,7H666L682.6,721.6z M681.2,743.3h4.3c1,0,1.6,0,2.2,0.2
				l0,0c-0.4-0.5-0.9-1.2-1.3-2.3l-1.9-4.6c-0.7-1.6-1-2.7-1.1-3.5h-0.2c0,0.8-0.3,1.8-1,3.5l-1.9,4.6c-0.5,1-0.9,1.8-1.3,2.3l0,0
				C679.6,743.3,680.2,743.3,681.2,743.3z"/>
			<path class="st39" d="M728.4,732.6c0,6.6-4.3,10.4-11.5,10.4h-4.2c-0.7,0-1.1,0-1.3-0.2l-0.1,0.1c0.1,0.2,0.2,0.8,0.2,1.4v11.5
				h-7.4v-33.6h12.4C724.1,722.2,728.4,726,728.4,732.6z M711.3,728.4c0.1,0.2,0.2,0.8,0.2,1.4v5.4c0,0.7-0.1,1.2-0.2,1.5l0.1,0.1
				c0.3-0.2,0.6-0.2,1.3-0.2h4c2.6,0,4.3-1.6,4.3-4c0-2.4-1.7-4-4.3-4h-4C712,728.6,711.7,728.5,711.3,728.4L711.3,728.4z"/>
			<path class="st39" d="M748.7,751l-1.2-5.9c-0.5-2.8-1.8-3.9-4.2-3.9h-2.4c-0.7,0-1.1,0-1.3-0.2l-0.1,0.1c0.1,0.3,0.2,0.9,0.2,1.5
				v13.2h-7.4v-33.6h7.4V734c0,0.7-0.1,1.2-0.2,1.5l0.1,0.1c0.3-0.2,0.6-0.2,1.3-0.2h2.4c2.3,0,3.5-1.2,4.2-4l1.3-4.9
				c0.8-3.2,2.9-4.6,7.2-4.6c1.3,0,2.5,0,3.6,0.2v6.7c-0.7-0.1-1-0.1-1.9-0.1c-1.3,0-2,0.5-2.4,1.8l-1.1,3.9c-0.8,3-2.4,3.7-8.2,3.8
				v0.2c6.1,0.1,8,1.1,8.6,4.5l0.7,3.1c0.4,2.3,1.1,2.9,2.7,2.9c0.8,0,1.4-0.1,2-0.1v7.2c-1.7,0.1-2.9,0.2-3.7,0.2
				C751.8,756.1,749.3,754.5,748.7,751z"/>
			<path class="st39" d="M784.6,728.8h-12.2c-0.8,0-1.1-0.1-1.3-0.2l-0.1,0.1c0.1,0.2,0.2,0.8,0.2,1.4v3.4c0,0.7-0.1,1.2-0.2,1.5
				l0.1,0.1c0.2-0.1,0.6-0.2,1.3-0.2h10.9v6.5h-10.9c-0.8,0-1.1-0.1-1.3-0.2l-0.1,0.1c0.1,0.2,0.2,0.8,0.2,1.4v5.2
				c0,0.6-0.1,1.2-0.2,1.4l0.1,0.1c0.2-0.1,0.6-0.2,1.3-0.2h12.4v6.6h-21v-33.6h20.8V728.8z"/>
			<path class="st39" d="M812.4,729h-7.8c-0.7,0-1-0.1-1.2-0.2l-0.1,0.1c0.1,0.2,0.1,0.8,0.1,1.4v25.5h-7.4v-25.5
				c0-0.7,0.1-1.2,0.2-1.4l-0.1-0.1c-0.2,0.1-0.6,0.2-1.2,0.2h-7.9v-6.8h25.5V729z"/>
		</g>
		<path class="st3" d="M566.6,486.7c-12.4,6.2-17.4,21.3-11.2,33.7s21.3,17.4,33.7,11.2c12.2-6.1,17.3-20.9,11.4-33.3
			C594.3,485.8,579.2,480.6,566.6,486.7L566.6,486.7z M586.6,528.7c-10.8,4.9-23.5,0.1-28.3-10.7c-4.9-10.8-0.1-23.5,10.7-28.3
			c10.6-4.8,23.2-0.2,28.2,10.3C602.1,510.8,597.4,523.7,586.6,528.7L586.6,528.7L586.6,528.7z"/>
		<path class="st40" d="M869.9,607.9h492.4c24,0,43.4,19.4,43.4,43.4v524.4c0,24-19.4,43.4-43.4,43.4H869.9
			c-24,0-43.4-19.4-43.4-43.4V651.3C826.5,627.3,845.9,607.9,869.9,607.9z"/>
		<path class="st1" d="M897.8,625.8h437.6c24,0,43.4,19.4,43.4,43.4v490.4c0,24-19.4,43.4-43.4,43.4H897.8
			c-24,0-43.4-19.4-43.4-43.4V669.2C854.4,645.2,873.8,625.8,897.8,625.8z"/>
		
			<linearGradient id="SVGID_00000115515287922307365950000016269290336175721374_" gradientUnits="userSpaceOnUse" x1="893" y1="646.2" x2="1197.6001" y2="646.2" gradientTransform="matrix(1 0 0 -1 0 1490)">
			<stop  offset="6.944507e-03" style="stop-color:#005BFF"/>
			<stop  offset="1" style="stop-color:#F91155"/>
		</linearGradient>
		<path style="fill:url(#SVGID_00000115515287922307365950000016269290336175721374_);" d="M918.4,725.4h253.8
			c14,0,25.4,11.4,25.4,25.4v186c0,14-11.4,25.4-25.4,25.4H918.4c-14,0-25.4-11.4-25.4-25.4v-186C893,736.8,904.3,725.4,918.4,725.4
			z"/>
		<path class="st11" d="M888.6,641.5h313c9.1,0,16.5,7.4,16.5,16.5v3c0,9.1-7.4,16.5-16.5,16.5h-313c-9.1,0-16.5-7.4-16.5-16.5v-3
			C872,648.9,879.4,641.5,888.6,641.5z"/>
		
			<linearGradient id="SVGID_00000168830892581046537890000003284538285067568003_" gradientUnits="userSpaceOnUse" x1="1235.1" y1="-782" x2="1264.62" y2="-782" gradientTransform="matrix(1 0 0 1 0 1442)">
			<stop  offset="0" style="stop-color:#FFFFFF"/>
			<stop  offset="1" style="stop-color:#FFFFFF"/>
		</linearGradient>
		<path style="fill:url(#SVGID_00000168830892581046537890000003284538285067568003_);" d="M1249.9,673.9c-8.1,0-14.8-6.2-14.8-13.9
			s6.6-13.9,14.8-13.9s14.8,6.2,14.8,13.9S1258,673.9,1249.9,673.9z M1249.9,649.9c-6,0-10.9,4.5-10.9,10s4.9,10,10.9,10
			s10.9-4.5,10.9-10S1255.9,650,1249.9,649.9L1249.9,649.9z"/>
		
			<linearGradient id="SVGID_00000023964001648682830180000006668888800756781492_" gradientUnits="userSpaceOnUse" x1="1285.0599" y1="-782" x2="1314.58" y2="-782" gradientTransform="matrix(1 0 0 1 0 1442)">
			<stop  offset="0" style="stop-color:#FFFFFF"/>
			<stop  offset="1" style="stop-color:#FFFFFF"/>
		</linearGradient>
		<path style="fill:url(#SVGID_00000023964001648682830180000006668888800756781492_);" d="M1299.8,673.9c-8.1,0-14.8-6.2-14.8-13.9
			s6.6-13.9,14.8-13.9s14.8,6.2,14.8,13.9S1308,673.9,1299.8,673.9z M1299.8,649.9c-6,0-10.9,4.5-10.9,10s4.9,10,10.9,10
			s10.9-4.5,10.9-10S1305.8,650,1299.8,649.9L1299.8,649.9z"/>
		
			<linearGradient id="SVGID_00000175291958643577361970000002989435230482354850_" gradientUnits="userSpaceOnUse" x1="1335" y1="-782" x2="1364.52" y2="-782" gradientTransform="matrix(1 0 0 1 0 1442)">
			<stop  offset="0" style="stop-color:#FFFFFF"/>
			<stop  offset="1" style="stop-color:#FFFFFF"/>
		</linearGradient>
		<path style="fill:url(#SVGID_00000175291958643577361970000002989435230482354850_);" d="M1349.8,673.9c-8.1,0-14.8-6.2-14.8-13.9
			s6.6-13.9,14.8-13.9s14.8,6.2,14.8,13.9S1357.9,673.9,1349.8,673.9z M1349.8,649.9c-6,0-10.9,4.5-10.9,10s4.9,10,10.9,10
			s10.9-4.5,10.9-10S1355.8,650,1349.8,649.9L1349.8,649.9z"/>
		<path class="st11" d="M1198.8,667.5H891.7c-4.2,0-7.6-3.4-7.6-7.6s3.4-7.6,7.6-7.6l0,0h307.1c4.2,0,7.6,3.4,7.6,7.6
			S1203.1,667.5,1198.8,667.5C1198.9,667.5,1198.9,667.5,1198.8,667.5z"/>
		<path class="st40" d="M890.2,678.6l-34.7,35.3c-1.4,1.4-1.4,3.7,0.1,5c0.1,0.1,0.1,0.1,0.2,0.2l0.3,0.2c1.4,1.2,3.5,1,4.7-0.4l0,0
			l31.8-38.3L890.2,678.6z"/>
		
			<ellipse transform="matrix(0.9025 -0.4307 0.4307 0.9025 -196.1132 454.2095)" class="st12" cx="905.1" cy="660.2" rx="23" ry="22.6"/>
		<path class="st2" d="M894.2,637.5c-12.4,6.2-17.4,21.3-11.2,33.7s21.3,17.4,33.7,11.2c12.2-6.1,17.3-20.9,11.4-33.3
			C922,636.6,906.8,631.4,894.2,637.5z M914.2,679.5c-10.8,4.9-23.5,0.1-28.4-10.6c-4.9-10.8-0.1-23.5,10.6-28.4
			c10.6-4.8,23.2-0.3,28.2,10.3C929.7,661.6,925.1,674.5,914.2,679.5L914.2,679.5z"/>
		<path class="st22" d="M1188.8,1004h-287c-4.9,0-8.9-4-8.9-8.8c0-4.9,4-8.9,8.8-8.9l0,0h287c4.9,0,8.9,4,8.9,8.8
			C1197.7,1000,1193.7,1004,1188.8,1004L1188.8,1004z"/>
		<path class="st3" d="M1188.5,1037.8h-287c-4.9,0-8.9-4-8.8-8.9c0-4.9,4-8.8,8.8-8.8h287c4.9,0,8.9,4,8.9,8.8
			C1197.4,1033.8,1193.4,1037.8,1188.5,1037.8L1188.5,1037.8z"/>
		<path class="st1" d="M912.8,1056.2h264.5c11.1,0,20.1,9,20.1,20.1v89.3c0,11.1-9,20.1-20.1,20.1H912.8c-11.1,0-20.1-9-20.1-20.1
			v-89.3C892.7,1065.2,901.7,1056.2,912.8,1056.2z"/>
		<path class="st11" d="M1236.9,725.4h105.6c11.1,0,20.1,9,20.1,20.1v115.6c0,11.1-9,20.1-20.1,20.1h-105.6
			c-11.1,0-20.1-9-20.1-20.1V745.5C1216.8,734.4,1225.8,725.4,1236.9,725.4z"/>
		<path class="st11" d="M1236.9,916.7h105.6c11.1,0,20.1,9,20.1,20.1v115.6c0,11.1-9,20.1-20.1,20.1h-105.6
			c-11.1,0-20.1-9-20.1-20.1V936.8C1216.8,925.7,1225.8,916.7,1236.9,916.7z"/>
		<path class="st11" d="M1236.9,1084.2h105.6c11.1,0,20.1,9,20.1,20.1v61.3c0,11.1-9,20.1-20.1,20.1h-105.6
			c-11.1,0-20.1-9-20.1-20.1v-61.3C1216.8,1093.2,1225.8,1084.2,1236.9,1084.2z"/>
		<path class="st11" d="M1355.1,906h-130.8c-4.1-0.2-7.3-3.7-7.1-7.9c0.2-3.8,3.3-6.9,7.1-7.1h130.8c4.1,0.2,7.3,3.7,7.1,7.9
			C1362,902.7,1358.9,905.8,1355.1,906z"/>
		
			<linearGradient id="SVGID_00000144324258095652993040000008044195887627041167_" gradientUnits="userSpaceOnUse" x1="888.3" y1="-325.05" x2="1034.1" y2="-325.05" gradientTransform="matrix(1 0 0 1 0 1442)">
			<stop  offset="0" style="stop-color:#FFFFFF"/>
			<stop  offset="1" style="stop-color:#FFFFFF"/>
		</linearGradient>
		<path style="fill:url(#SVGID_00000144324258095652993040000008044195887627041167_);" d="M908.4,1052.2H1014
			c11.1,0,20.1,9,20.1,20.1v89.3c0,11.1-9,20.1-20.1,20.1H908.4c-11.1,0-20.1-9-20.1-20.1v-89.3
			C888.3,1061.2,897.3,1052.2,908.4,1052.2z"/>
		
			<linearGradient id="SVGID_00000048477776022017094890000007432469060918616215_" gradientUnits="userSpaceOnUse" x1="1063" y1="-325.05" x2="1208.7999" y2="-325.05" gradientTransform="matrix(1 0 0 1 0 1442)">
			<stop  offset="0" style="stop-color:#FFFFFF"/>
			<stop  offset="1" style="stop-color:#FFFFFF"/>
		</linearGradient>
		<path style="fill:url(#SVGID_00000048477776022017094890000007432469060918616215_);" d="M1083.1,1052.2h105.6
			c11.1,0,20.1,9,20.1,20.1v89.3c0,11.1-9,20.1-20.1,20.1h-105.6c-11.1,0-20.1-9-20.1-20.1v-89.3
			C1063,1061.2,1072,1052.2,1083.1,1052.2z"/>
		<path class="st47" d="M1243,794.5h492.4c24,0,43.4,19.4,43.4,43.4v524.4c0,24-19.4,43.4-43.4,43.4H1243c-24,0-43.4-19.4-43.4-43.4
			V837.8C1199.6,813.9,1219,794.5,1243,794.5z"/>
		<path class="st1" d="M1270.9,812.4h437.6c24,0,43.4,19.4,43.4,43.4v490.3c0,24-19.4,43.4-43.4,43.4h-437.6
			c-24,0-43.4-19.4-43.4-43.4V855.8C1227.5,831.8,1246.9,812.4,1270.9,812.4z"/>
		
			<linearGradient id="SVGID_00000026128364441373985790000015527378651596206235_" gradientUnits="userSpaceOnUse" x1="1282.4999" y1="459.6" x2="1702.1" y2="459.6" gradientTransform="matrix(1 0 0 -1 0 1490)">
			<stop  offset="0" style="stop-color:#CB11AB"/>
			<stop  offset="1" style="stop-color:#481173"/>
		</linearGradient>
		<path style="fill:url(#SVGID_00000026128364441373985790000015527378651596206235_);" d="M1307.9,912h368.8
			c14,0,25.4,11.4,25.4,25.4v186c0,14-11.4,25.4-25.4,25.4h-368.8c-14,0-25.4-11.4-25.4-25.4v-186
			C1282.5,923.4,1293.9,912,1307.9,912z"/>
		
			<linearGradient id="SVGID_00000065783480240588192860000012102850310748783752_" gradientUnits="userSpaceOnUse" x1="1245.199" y1="-595.9" x2="1591.2" y2="-595.9" gradientTransform="matrix(1 0 0 1 0 1442)">
			<stop  offset="0" style="stop-color:#FFFFFF"/>
			<stop  offset="1" style="stop-color:#FFFFFF"/>
		</linearGradient>
		<path style="fill:url(#SVGID_00000065783480240588192860000012102850310748783752_);" d="M1261.7,828.1h313
			c9.1,0,16.5,7.4,16.5,16.5v3c0,9.1-7.4,16.5-16.5,16.5h-313c-9.1,0-16.5-7.4-16.5-16.5v-3C1245.1,835.5,1252.5,828.1,1261.7,828.1
			z"/>
		
			<linearGradient id="SVGID_00000028323243100882882460000005594645776299785380_" gradientUnits="userSpaceOnUse" x1="1608.24" y1="-595.4" x2="1637.76" y2="-595.4" gradientTransform="matrix(1 0 0 1 0 1442)">
			<stop  offset="0" style="stop-color:#FFFFFF"/>
			<stop  offset="1" style="stop-color:#FFFFFF"/>
		</linearGradient>
		<path style="fill:url(#SVGID_00000028323243100882882460000005594645776299785380_);" d="M1623,860.5c-8.1,0-14.8-6.2-14.8-13.9
			s6.6-13.9,14.8-13.9s14.8,6.2,14.8,13.9S1631.1,860.5,1623,860.5z M1623,836.6c-6,0-10.9,4.5-10.9,10s4.9,10,10.9,10
			s10.9-4.5,10.9-10S1629,836.6,1623,836.6z"/>
		
			<linearGradient id="SVGID_00000016790253266503215840000001022883315333154995_" gradientUnits="userSpaceOnUse" x1="1658.2" y1="-595.4" x2="1687.72" y2="-595.4" gradientTransform="matrix(1 0 0 1 0 1442)">
			<stop  offset="0" style="stop-color:#FFFFFF"/>
			<stop  offset="1" style="stop-color:#FFFFFF"/>
		</linearGradient>
		<path style="fill:url(#SVGID_00000016790253266503215840000001022883315333154995_);" d="M1673,860.5c-8.1,0-14.8-6.2-14.8-13.9
			s6.6-13.9,14.8-13.9s14.8,6.2,14.8,13.9S1681.1,860.5,1673,860.5z M1673,836.6c-6,0-10.9,4.5-10.9,10s4.9,10,10.9,10
			s10.9-4.5,10.9-10S1679,836.6,1673,836.6z"/>
		
			<linearGradient id="SVGID_00000030471812008285442450000002873324363880389284_" gradientUnits="userSpaceOnUse" x1="1708.14" y1="-595.4" x2="1737.67" y2="-595.4" gradientTransform="matrix(1 0 0 1 0 1442)">
			<stop  offset="0" style="stop-color:#FFFFFF"/>
			<stop  offset="1" style="stop-color:#FFFFFF"/>
		</linearGradient>
		<path style="fill:url(#SVGID_00000030471812008285442450000002873324363880389284_);" d="M1722.9,860.5c-8.1,0-14.8-6.2-14.8-13.9
			s6.6-13.9,14.8-13.9s14.8,6.2,14.8,13.9S1731,860.5,1722.9,860.5z M1722.9,836.6c-6,0-10.9,4.5-10.9,10s4.9,10,10.9,10
			s10.9-4.5,10.9-10S1728.9,836.6,1722.9,836.6z"/>
		<path class="st11" d="M1572,854h-307.1c-4.2,0-7.6-3.4-7.6-7.6s3.4-7.6,7.6-7.6l0,0H1572c4.2,0,7.6,3.4,7.6,7.6
			S1576.2,854,1572,854z"/>
		<path class="st33" d="M1704.4,1190.6H1278c-4.9,0-8.9-4-8.8-8.9c0-4.9,4-8.8,8.8-8.8h426.4c4.9,0,8.9,4,8.8,8.9
			C1713.3,1186.6,1709.3,1190.6,1704.4,1190.6L1704.4,1190.6z"/>
		<path class="st3" d="M1704,1224.4h-426.4c-4.9,0-8.9-4-8.9-8.8c0-4.9,4-8.9,8.8-8.9l0,0H1704c4.9,0,8.9,4,8.8,8.9
			C1712.8,1220.4,1708.9,1224.4,1704,1224.4z"/>
		
			<linearGradient id="SVGID_00000149375731186772678370000001969367355179697815_" gradientUnits="userSpaceOnUse" x1="1254.2001" y1="-134.45" x2="1558.9" y2="-134.45" gradientTransform="matrix(1 0 0 1 0 1442)">
			<stop  offset="0" style="stop-color:#FFFFFF"/>
			<stop  offset="1" style="stop-color:#FFFFFF"/>
		</linearGradient>
		<path style="fill:url(#SVGID_00000149375731186772678370000001969367355179697815_);" d="M1274.3,1242.8h264.5
			c11.1,0,20.1,9,20.1,20.1v89.3c0,11.1-9,20.1-20.1,20.1h-264.5c-11.1,0-20.1-9-20.1-20.1v-89.3
			C1254.2,1251.8,1263.2,1242.8,1274.3,1242.8z"/>
		
			<linearGradient id="SVGID_00000157292726430939306060000015096232871438467757_" gradientUnits="userSpaceOnUse" x1="1578.3" y1="-134.45" x2="1724.1" y2="-134.45" gradientTransform="matrix(1 0 0 1 0 1442)">
			<stop  offset="0" style="stop-color:#FFFFFF"/>
			<stop  offset="1" style="stop-color:#FFFFFF"/>
		</linearGradient>
		<path style="fill:url(#SVGID_00000157292726430939306060000015096232871438467757_);" d="M1598.4,1242.8H1704
			c11.1,0,20.1,9,20.1,20.1v89.3c0,11.1-9,20.1-20.1,20.1h-105.6c-11.1,0-20.1-9-20.1-20.1v-89.3
			C1578.3,1251.8,1587.3,1242.8,1598.4,1242.8z"/>
		<path class="st13" d="M814.2,966.6l-460.9,441.6c-18.3,17.5-18.9,46.6-1.4,64.9c0.8,0.9,1.7,1.7,2.6,2.5l3.3,2.9
			c17.6,15.7,44.6,14.2,60.3-3.4c0.1-0.1,0.1-0.1,0.2-0.2l424.4-481.4L814.2,966.6z"/>
		
			<ellipse transform="matrix(0.9151 -0.4032 0.4032 0.9151 -210.3999 471.099)" class="st55" cx="1013.6" cy="735.2" rx="296.1" ry="290.8"/>
		<path class="st2" d="M883.1,439.1C716.6,512.5,640,704.6,712,868.1s265.5,236.6,432,163.3s243.1-265.4,171.1-428.9
			S1049.7,365.8,883.1,439.1z M1124.8,987.8c-142.1,62.6-307.1,0.2-368.5-139.3s3.9-303.3,146-365.9s307.1-0.2,368.5,139.3
			S1266.9,925.3,1124.8,987.8z"/>
		<path class="st1" d="M750.4,893.8c-0.5,0.1-1-0.1-1.2-0.6c-4-6.6-7.7-13.4-11.2-20.3c-0.2-0.6,0.1-1.3,0.7-1.5
			c0.5-0.2,1.1,0,1.4,0.5c3.4,6.8,7.2,13.6,11.1,20.2c0.3,0.6,0.2,1.3-0.4,1.6l0,0C750.7,893.7,750.6,893.8,750.4,893.8z M716,810.1
			c-0.6,0.1-1.2-0.3-1.4-0.9c-5-20.5-7.7-41.5-8.2-62.6c-1.4-59.9,15-118.9,47.2-169.5c66-103.9,186.7-159.5,308.5-142.1
			c0.6,0.1,1.1,0.8,0.9,1.4c-0.1,0.6-0.7,1-1.3,0.9c-57.4-8.3-116.1-0.2-169.1,23.2c-114.6,50.6-186.7,162.8-183.8,286
			c0.5,20.9,3.3,41.8,8.2,62.1C717.2,809.2,716.8,809.9,716,810.1L716,810.1z"/>
		<path class="st26" d="M395.2,1474.8h-0.1c-19.4,1.6-32.4-4.1-38.8-17s-3.5-28.9,7.2-39.7l54.6-54.7c0.5-0.4,1.2-0.4,1.7,0.1
			c0.4,0.5,0.4,1.1,0,1.6l-54.6,54.7c-10,10-12.7,24.9-6.8,37s18.1,17.2,36.5,15.7c0.7,0,1.2,0.5,1.2,1.1
			C396.2,1474.2,395.8,1474.7,395.2,1474.8L395.2,1474.8z"/>
		<path class="st19" d="M436,1348.5c-0.6,0.1-1.3-0.3-1.4-1c-0.1-0.4,0.1-0.8,0.3-1l7.1-7.1c0.5-0.5,1.2-0.5,1.7,0s0.5,1.2,0,1.7
			l-7.1,7.1C436.5,1348.3,436.2,1348.4,436,1348.5z"/>
		<g class="st21">
			<path class="st0" d="M1459.7,1036.7c4.5,12,5.5,15.3,6.2,22.5h0.7c0.7-7.2,2.1-11.5,5.8-22.4l21.7-62.8h20.5l-47.3,122.1h-2.1
				l-27.3-70.5c-2.4-6.4-2.8-9.6-3.1-14.8h-0.7c-0.3,5.2-0.7,8.4-3.1,14.8l-27.3,70.5h-2.1l-47.3-122.1h20.5l21.7,62.8
				c3.8,10.8,5.2,15.1,5.8,22.4h0.7c0.7-7.2,1.7-10.5,6.2-22.5l24.1-64.3h2.4L1459.7,1036.7z"/>
			<path class="st0" d="M1527.5,974.1h44.5c20.6,0,33.9,11.9,33.9,30.3c0,11.5-5.5,20-15.1,23.7c-2.9,1.2-5.2,1.7-8.6,1.9v0.7
				c4,0,5.8,0.2,8.8,1c13.9,3.3,22.2,14.3,22.2,29.4c0,20.1-14.6,33.4-36.8,33.4h-48.8V974.1z M1549.5,1024.1h17.9
				c12.7,0,20.1-6.4,20.1-17.2c0-10.3-6.7-16-18.7-16h-19.3c-2.1,0-3.1-0.2-4.3-0.7l-0.3,0.3c0.3,0.9,0.5,2.4,0.5,4.5v25.1
				c0,2.1-0.2,3.4-0.5,4.3l0.3,0.3C1546.4,1024.3,1547.4,1024.1,1549.5,1024.1z M1549.5,1077.6h23.6c14.3,0,21.3-5.8,21.3-17.9
				c0-12.6-8.1-19.1-23.6-19.1h-21.3c-2.1,0-3.1-0.2-4.3-0.7l-0.3,0.3c0.3,0.9,0.5,2.2,0.5,4.3v28.9c0,2.1-0.2,3.6-0.5,4.5l0.3,0.3
				C1546.4,1077.8,1547.4,1077.6,1549.5,1077.6z"/>
		</g>
		<g class="st21">
			<path class="st0" d="M981.6,840.1c0,21.2-15.3,36.5-36.5,36.5c-21.2,0-36.5-15.3-36.5-36.5c0-21.2,15.3-36.5,36.5-36.5
				C966.3,803.6,981.6,818.9,981.6,840.1z M920,840.1c0,15.1,10.4,25.9,25.1,25.9c14.7,0,25.1-10.8,25.1-25.9
				c0-15.1-10.4-25.9-25.1-25.9C930.4,814.2,920,825,920,840.1z"/>
			<path class="st0" d="M1036,805.6l-38.7,60.8l0.2,0.3c1.4-1.3,2.9-1.8,6.3-1.8h32l-5.3,10.2h-50.1l-0.3-0.5l38.8-60.7l-0.2-0.3
				c-1.5,1.1-3.3,1.7-7.7,1.7h-26.7l5.1-10.2h46.4L1036,805.6z"/>
			<path class="st0" d="M1109,840.1c0,21.2-15.3,36.5-36.5,36.5c-21.2,0-36.5-15.3-36.5-36.5c0-21.2,15.3-36.5,36.5-36.5
				C1093.7,803.6,1109,818.9,1109,840.1z M1047.4,840.1c0,15.1,10.4,25.9,25.1,25.9c14.7,0,25.1-10.8,25.1-25.9
				c0-15.1-10.4-25.9-25.1-25.9C1057.8,814.2,1047.4,825,1047.4,840.1z"/>
			<path class="st0" d="M1163.5,846.7c2.4,2.4,4.6,5.6,5.5,7.8l0.4-0.1c-0.6-2.3-1-6.8-1-12.6v-36.7h10.4v71h-0.9l-42.6-42.6
				c-2.4-2.4-4.6-5.6-5.5-7.8l-0.4,0.1c0.6,2.3,1,6.8,1,12.5v36.8H1120v-71h0.9L1163.5,846.7z"/>
		</g>
	</g>
</g>
</svg>
