<?xml version="1.0" encoding="UTF-8"?> <!-- Generator: Adobe Illustrator 16.0.0, SVG Export Plug-In . SVG Version: 6.00 Build 0) --> <svg xmlns="http://www.w3.org/2000/svg" xmlns:xlink="http://www.w3.org/1999/xlink" id="Layer_1" x="0px" y="0px" width="529.379px" height="528.87px" viewBox="32.64 138.96 529.379 528.87" xml:space="preserve"> <g> <g> <path fill="#FFFFFF" d="M297.33,667.83C151.47,667.83,32.64,549,32.64,403.141c0-145.86,118.83-264.181,264.69-264.181 c145.86,0,264.689,118.83,264.689,264.69C562.02,549.51,443.19,667.83,297.33,667.83z M297.33,154.26 c-137.19,0-248.88,111.69-248.88,248.88c0,137.189,111.69,249.39,249.39,249.39c137.19,0,249.391-111.69,249.391-249.39 C547.23,265.44,435.03,154.26,297.33,154.26z"></path> </g> <g> <path fill="#FFFFFF" d="M319.77,546.96"></path> </g> <g> <path fill="#FFFFFF" d="M290.7,259.32c-82.62,0-149.43,66.81-149.43,149.43c0,82.11,66.81,149.43,149.43,149.43 c38.76,0,75.479-14.79,103.53-41.819c2.55-2.551,2.55-6.12,0-8.67c-2.551-2.551-6.12-2.551-8.671,0 c-25.5,24.479-59.67,38.25-94.859,38.25c-75.48,0-137.19-61.71-137.19-137.19c0-75.48,61.71-137.19,137.19-137.19 c75.479,0,137.189,61.71,137.189,137.19c0,16.83-3.06,33.66-9.18,49.47c-1.02,3.061,0.51,6.63,3.57,7.65 c3.06,1.02,6.63-0.51,7.649-3.57c6.63-17.34,10.2-35.189,10.2-54.06C440.13,326.13,372.81,259.32,290.7,259.32L290.7,259.32z"></path> </g> <g> <g> <path fill="#FFFFFF" d="M300.9,330.72c13.77,0,25.5,4.59,34.68,14.28c9.689,9.69,14.28,20.91,14.28,34.68 s-4.591,24.99-14.28,34.679c-9.69,10.2-21.42,14.791-34.68,14.791h-25.5v48.96c0,1.529-0.51,3.06-1.53,4.08 c-1.02,1.02-2.55,1.529-4.08,1.529c-1.53,0-3.06-0.51-4.08-1.529c-1.02-1.021-1.53-2.551-1.53-4.08V336.84 c0-1.53,0.51-3.06,1.53-4.08s2.55-1.53,4.08-1.53h31.11V330.72z M275.4,342.96v74.97h25.5c10.199,0,18.869-3.57,26.52-10.709 c7.14-7.141,11.22-16.321,11.22-26.521c0-10.2-3.569-18.87-11.22-26.52c-7.14-7.14-16.32-11.22-26.52-11.22H275.4z"></path> <path fill="#FFFFFF" d="M269.28,485.76c-2.04,0-3.57-0.51-5.1-2.04c-1.53-1.529-2.04-3.06-2.04-5.1V336.84 c0-2.04,0.51-3.57,2.04-5.1c1.53-1.53,3.06-2.04,5.1-2.04H300.9c13.77,0,26.01,5.1,35.699,14.79 c9.69,9.69,14.79,21.42,14.79,35.7c0,13.77-5.1,26.01-14.79,35.701c-9.689,9.689-21.93,14.789-35.699,14.789h-24.48v47.94 c0,2.04-0.51,3.57-2.04,5.1C272.85,484.74,271.32,485.76,269.28,485.76z M269.28,332.25c-1.53,0-2.55,0.51-3.06,1.53 c-1.02,1.02-1.53,2.04-1.53,3.57v141.27c0,1.53,0.51,2.55,1.53,3.57c1.53,2.04,4.59,2.04,6.63,0c1.02-1.021,1.53-2.04,1.53-3.57 v-50.49H300.9c13.26,0,24.479-4.59,33.659-13.771c9.181-9.18,14.28-20.909,14.28-33.659c0-13.26-4.59-24.48-14.28-33.66 c-9.18-9.18-20.399-14.28-33.659-14.28H269.28V332.25z M300.9,418.95h-27.03v-77.52h27.03c10.71,0,19.89,4.08,27.029,11.22 c7.65,7.65,11.221,16.83,11.221,27.03c0,10.71-4.08,19.89-11.221,27.541C320.28,414.87,311.1,418.95,300.9,418.95z M276.42,416.4 h24.48c9.689,0,18.359-3.57,25.5-10.711c7.14-7.14,10.71-15.81,10.71-25.5s-3.57-18.36-10.71-25.5 c-7.141-7.14-15.811-10.71-25.5-10.71h-24.48V416.4z"></path> </g> </g> <path fill="#FFFFFF" d="M318.75,460.771H239.7c-3.57,0-6.63-3.061-6.63-6.631c0-3.569,3.06-6.63,6.63-6.63h79.05 c3.57,0,6.63,3.061,6.63,6.63C325.38,458.22,322.32,460.771,318.75,460.771z"></path> </g> </svg> 