<?xml version="1.0" encoding="UTF-8"?> <!-- Generator: Adobe Illustrator 16.0.0, SVG Export Plug-In . SVG Version: 6.00 Build 0) --> <svg xmlns="http://www.w3.org/2000/svg" xmlns:xlink="http://www.w3.org/1999/xlink" id="Layer_1" x="0px" y="0px" width="529.379px" height="529.38px" viewBox="34.68 137.94 529.379 529.38" xml:space="preserve"> <g> <g> <path fill="#FFFFFF" d="M299.37,667.32c-145.86,0-264.69-118.83-264.69-264.69c0-145.86,118.83-264.69,264.69-264.69 S564.06,256.77,564.06,402.63C564.06,548.49,445.23,667.32,299.37,667.32z M299.37,153.24c-137.19,0-249.39,111.69-249.39,249.39 c0,137.19,111.69,249.391,249.39,249.391S548.76,540.33,548.76,402.63C548.25,264.93,436.56,153.24,299.37,153.24z"></path> </g> <path fill="#FFFFFF" d="M339.66,334.29v-19.38c0-36.72-30.09-66.81-66.81-66.81h-1.02c-36.72,0-66.81,30.09-66.81,66.81v60.18 c0,24.99-20.4,45.391-44.88,45.391l0,0c-3.57,0.51-6.12,3.569-6.12,6.63c0,3.569,2.55,6.12,6.12,6.63l0,0c0.51,0,0.51,0,1.02,0l0,0 h0.51c32.13-1.021,57.63-27.03,57.63-59.16v-59.67c0-29.07,23.97-53.04,53.04-53.04h1.02c29.07,0,53.041,23.97,53.041,53.04v19.38 c-41.311,3.57-73.44,37.74-73.44,80.069v65.791c0,44.37,36.21,80.069,80.07,80.069h1.529c28.561,0,55.591-15.3,69.87-40.29 c2.04-3.569,0.511-7.649-2.55-9.689c-3.57-2.04-7.649-0.51-9.689,2.55c-11.73,20.4-33.66,33.66-57.631,33.66h-1.529 c-36.72,0-66.3-29.58-66.3-66.3v-65.791c0-34.169,26.01-62.729,59.67-66.299v72.42h-38.25c-4.08,0-7.14,3.06-7.14,7.14 s3.06,7.14,7.14,7.14h112.71v27.54c0,4.08,3.06,7.141,7.14,7.141s7.14-3.061,7.14-7.141v-47.94 C414.12,372.03,381.48,337.35,339.66,334.29z M400.35,420.99H339.66v-72.42c33.66,3.06,60.689,31.62,60.689,66.3V420.99z"></path> </g> </svg> 